SplineFontDB: 3.0
FontName: DejaVuSerif-Italic
FullName: DejaVu Serif Italic
FamilyName: DejaVu Serif
Weight: Book
Copyright: Copyright (c) 2003 by Bitstream, Inc. All Rights Reserved.\nDejaVu changes are in public domain\n
Version: 2.32
ItalicAngle: -11
UnderlinePosition: -85
UnderlineWidth: 90
Ascent: 1556
Descent: 492
LayerCount: 2
Layer: 0 1 "Back"  1
Layer: 1 1 "Fore"  0
NeedsXUIDChange: 1
FSType: 0
OS2Version: 0
OS2_WeightWidthSlopeOnly: 0
OS2_UseTypoMetrics: 0
PfmFamily: 17
TTFWeight: 400
TTFWidth: 5
LineGap: 0
VLineGap: 0
Panose: 2 6 6 3 5 3 5 11 2 4
OS2TypoAscent: 1556
OS2TypoAOffset: 0
OS2TypoDescent: -492
OS2TypoDOffset: 0
OS2TypoLinegap: 410
OS2WinAscent: 1901
OS2WinAOffset: 0
OS2WinDescent: 483
OS2WinDOffset: 0
HheadAscent: 1901
HheadAOffset: 0
HheadDescent: -483
HheadDOffset: 0
OS2Vendor: 'PfEd'
Lookup: 6 0 0 "'ccmp' Contextual Chaining Substitution"  {"'ccmp' Contextual Chaining Substitution"  } ['ccmp' ('DFLT' <'dflt' > 'cyrl' <'MKD ' 'SRB ' 'dflt' > 'grek' <'dflt' > 'latn' <'AZE ' 'CRT ' 'GAG ' 'ISM ' 'KAZ ' 'KRK ' 'KSM ' 'LSM ' 'MOL ' 'NSM ' 'ROM ' 'SKS ' 'SSM ' 'TAT ' 'TRK ' 'dflt' > ) ]
Lookup: 1 0 0 "'locl' Localized Forms in Cyrillic - Serbian"  {"'locl' Localized Forms in Cyrillic - Serbian"  } ['locl' ('cyrl' <'MKD ' 'SRB ' > ) ]
Lookup: 1 0 0 "'locl' Localized Forms in Latin - Sami"  {"'locl' Localized Forms in Latin - Sami"  } ['locl' ('latn' <'ISM ' 'KSM ' 'LSM ' 'NSM ' 'SKS ' 'SSM ' > ) ]
Lookup: 4 0 1 "'liga' Standard Ligatures"  {"'liga' Standard Ligatures"  } ['liga' ('DFLT' <'dflt' > 'cyrl' <'MKD ' 'SRB ' 'dflt' > 'grek' <'dflt' > 'latn' <'AZE ' 'CRT ' 'GAG ' 'ISM ' 'KAZ ' 'KRK ' 'KSM ' 'LSM ' 'MOL ' 'NSM ' 'ROM ' 'SKS ' 'SSM ' 'TAT ' 'TRK ' 'dflt' > ) ]
Lookup: 4 0 1 "'liga' Standard Ligatures - Without dotless i"  {"'liga' Standard Ligatures - Without dotless i"  } ['liga' ('DFLT' <'dflt' > 'cyrl' <'MKD ' 'SRB ' 'dflt' > 'grek' <'dflt' > 'latn' <'ISM ' 'KSM ' 'LSM ' 'MOL ' 'NSM ' 'ROM ' 'SKS ' 'SSM ' 'dflt' > ) ]

StartChar: .notdef
Encoding: 0 -1 0
Width: 1229
Flags: W
LayerCount: 2
Fore
SplineSet
102 -362 m 1,0,-1
 102 1444 l 1,1,-1
 1126 1444 l 1,2,-1
 1126 -362 l 1,3,-1
 102 -362 l 1,0,-1
217 -248 m 1,4,-1
 1012 -248 l 1,5,-1
 1012 1329 l 1,6,-1
 217 1329 l 1,7,-1
 217 -248 l 1,4,-1
EndSplineSet
EndChar
StartChar: exclam
Encoding: 33 33 33
Width: 823
Flags: W
LayerCount: 2
Fore
SplineSet
156.929 104 m 0,0,1
 167.814 160 167.814 160 213.396 199 c 128,-1,2
 258.977 238 258.977 238 315.977 238 c 0,3,4
 370.977 238 370.977 238 402.396 199 c 128,-1,5
 433.814 160 433.814 160 422.929 104 c 0,6,7
 412.238 49 412.238 49 365.657 10 c 128,-1,8
 319.076 -29 319.076 -29 264.076 -29 c 0,9,10
 207.076 -29 207.076 -29 176.561 9.5 c 128,-1,11
 146.044 48 146.044 48 156.929 104 c 0,0,1
430.924 1493 m 1,12,-1
 688.924 1493 l 1,13,-1
 461.337 672 l 1,14,-1
 412.354 420 l 1,15,-1
 289.354 420 l 1,16,-1
 338.337 672 l 1,17,-1
 430.924 1493 l 1,12,-1
EndSplineSet
EndChar
StartChar: quotedbl
Encoding: 34 34 34
Width: 942
Flags: W
LayerCount: 2
Fore
SplineSet
360 1493 m 1,0,-1
 360 938 l 1,1,-1
 201 938 l 1,2,-1
 201 1493 l 1,3,-1
 360 1493 l 1,0,-1
741 1493 m 1,4,-1
 741 938 l 1,5,-1
 582 938 l 1,6,-1
 582 1493 l 1,7,-1
 741 1493 l 1,4,-1
EndSplineSet
EndChar
StartChar: numbersign
Encoding: 35 35 35
Width: 1716
Flags: W
LayerCount: 2
Fore
SplineSet
1042 901 m 1,0,-1
 760 901 l 1,1,-1
 676 567 l 1,2,-1
 961 567 l 1,3,-1
 1042 901 l 1,0,-1
901 1470 m 1,4,-1
 799 1055 l 1,5,-1
 1081 1055 l 1,6,-1
 1184 1470 l 1,7,-1
 1356 1470 l 1,8,-1
 1251 1055 l 1,9,-1
 1559 1055 l 1,10,-1
 1559 901 l 1,11,-1
 1212 901 l 1,12,-1
 1130 567 l 1,13,-1
 1444 567 l 1,14,-1
 1444 414 l 1,15,-1
 1092 414 l 1,16,-1
 989 0 l 1,17,-1
 817 0 l 1,18,-1
 922 414 l 1,19,-1
 639 414 l 1,20,-1
 535 0 l 1,21,-1
 365 0 l 1,22,-1
 467 414 l 1,23,-1
 158 414 l 1,24,-1
 158 567 l 1,25,-1
 506 567 l 1,26,-1
 588 901 l 1,27,-1
 272 901 l 1,28,-1
 272 1055 l 1,29,-1
 627 1055 l 1,30,-1
 731 1470 l 1,31,-1
 901 1470 l 1,4,-1
EndSplineSet
EndChar
StartChar: dollar
Encoding: 36 36 36
Width: 1303
Flags: W
LayerCount: 2
Fore
SplineSet
581.244 68 m 1,0,1
 696.188 78 696.188 78 766.379 133 c 128,-1,2
 836.57 188 836.57 188 855.036 283 c 0,3,4
 871.753 369 871.753 369 824.415 429 c 128,-1,5
 777.078 489 777.078 489 669.104 520 c 1,6,-1
 581.244 68 l 1,0,1
698.756 1187 m 1,7,8
 594.396 1180 594.396 1180 527.19 1127.5 c 128,-1,9
 459.985 1075 459.985 1075 442.88 987 c 0,10,11
 427.329 907 427.329 907 469.527 854 c 128,-1,12
 511.725 801 511.725 801 617.311 768 c 1,13,-1
 698.756 1187 l 1,7,8
68.0215 72 m 1,14,-1
 121.671 348 l 1,15,-1
 229.671 348 l 1,16,17
 207.041 211 207.041 211 269.434 141 c 128,-1,18
 331.827 71 331.827 71 481.244 68 c 1,19,-1
 575.519 553 l 1,20,21
 357.959 617 357.959 617 281.189 700.5 c 128,-1,22
 204.421 784 204.421 784 231.245 922 c 0,23,24
 262.346 1082 262.346 1082 391.201 1179 c 128,-1,25
 520.056 1276 520.056 1276 718.389 1288 c 1,26,-1
 770.482 1556 l 1,27,-1
 870.482 1556 l 1,28,-1
 818.389 1288 l 1,29,30
 917.833 1280 917.833 1280 1006.57 1255.5 c 128,-1,31
 1095.31 1231 1095.31 1231 1176.34 1190 c 1,32,-1
 1125.41 928 l 1,33,-1
 1016.41 928 l 1,34,35
 1026.96 1044 1026.96 1044 970.982 1111 c 128,-1,36
 915.006 1178 915.006 1178 798.756 1187 c 1,37,-1
 710.896 735 l 1,38,39
 943.872 668 943.872 668 1025.56 581.5 c 128,-1,40
 1107.24 495 1107.24 495 1079.06 350 c 0,41,42
 1046.79 184 1046.79 184 911.354 84 c 128,-1,43
 775.916 -16 775.916 -16 562.001 -31 c 1,44,-1
 509.518 -301 l 1,45,-1
 409.518 -301 l 1,46,-1
 462.001 -31 l 1,47,48
 366.39 -29 366.39 -29 268.346 -3.5 c 128,-1,49
 170.303 22 170.303 22 68.0215 72 c 1,14,-1
EndSplineSet
EndChar
StartChar: percent
Encoding: 37 37 37
Width: 1946
Flags: W
LayerCount: 2
Fore
SplineSet
591.47 1427 m 0,0,1
 503.47 1427 503.47 1427 437.837 1344 c 128,-1,2
 372.203 1261 372.203 1261 343.24 1112 c 0,3,4
 314.666 965 314.666 965 348.839 881 c 128,-1,5
 383.011 797 383.011 797 469.011 797 c 0,6,7
 554.011 797 554.011 797 619.741 880.5 c 128,-1,8
 685.472 964 685.472 964 714.24 1112 c 0,9,10
 743.009 1260 743.009 1260 709.739 1343.5 c 128,-1,11
 676.47 1427 676.47 1427 591.47 1427 c 0,0,1
1478.99 694 m 0,12,13
 1391.99 694 1391.99 694 1326.16 610 c 128,-1,14
 1260.33 526 1260.33 526 1231.37 377 c 0,15,16
 1202.8 230 1202.8 230 1236.57 146.5 c 128,-1,17
 1270.34 63 1270.34 63 1356.33 63 c 0,18,19
 1442.34 63 1442.34 63 1507.57 146.5 c 128,-1,20
 1572.8 230 1572.8 230 1601.37 377 c 0,21,22
 1630.14 525 1630.14 525 1597.06 609.5 c 128,-1,23
 1563.99 694 1563.99 694 1478.99 694 c 0,12,13
1496.48 784 m 0,24,25
 1654.48 784 1654.48 784 1726.1 674 c 128,-1,26
 1797.72 564 1797.72 564 1761.37 377 c 0,27,28
 1725.02 190 1725.02 190 1610.24 80.5 c 128,-1,29
 1495.45 -29 1495.45 -29 1338.45 -29 c 0,30,31
 1178.45 -29 1178.45 -29 1106.74 80.5 c 128,-1,32
 1035.02 190 1035.02 190 1071.37 377 c 0,33,34
 1107.91 565 1107.91 565 1222.7 674.5 c 128,-1,35
 1337.48 784 1337.48 784 1496.48 784 c 0,24,25
1514.55 1520 m 1,36,-1
 1666.55 1520 l 1,37,-1
 431.452 -29 l 1,38,-1
 279.452 -29 l 1,39,-1
 1514.55 1520 l 1,36,-1
607.548 1520 m 0,40,41
 765.548 1520 765.548 1520 838.263 1410.5 c 128,-1,42
 910.979 1301 910.979 1301 874.629 1114 c 0,43,44
 837.892 925 837.892 925 723.204 816 c 128,-1,45
 608.517 707 608.517 707 449.517 707 c 0,46,47
 290.517 707 290.517 707 219.301 816.5 c 128,-1,48
 148.086 926 148.086 926 184.629 1114 c 0,49,50
 220.784 1300 220.784 1300 335.166 1410 c 128,-1,51
 449.548 1520 449.548 1520 607.548 1520 c 0,40,41
EndSplineSet
EndChar
StartChar: ampersand
Encoding: 38 38 38
Width: 1823
Flags: W
LayerCount: 2
Fore
SplineSet
1005.99 231 m 1,0,-1
 543.15 844 l 1,1,2
 440.98 766 440.98 766 379.89 675.5 c 128,-1,4
 318.8 585 318.8 585 298.98 483 c 0,5,6
 290.68 440.28 290.68 440.28 290.68 401.11 c 0,7,8
 290.68 288.05 290.68 288.05 359.84 204.5 c 0,9,10
 452.97 92 452.97 92 624.97 92 c 0,11,12
 726.97 92 726.97 92 824.37 127.5 c 128,-1,13
 921.77 163 921.77 163 1005.99 231 c 1,0,-1
1581.09 0 m 1,14,-1
 1180.09 0 l 1,15,-1
 1071.27 145 l 1,16,17
 949.17 57 949.17 57 821.81 14 c 128,-1,18
 694.45 -29 694.45 -29 556.45 -29 c 0,19,20
 298.45 -29 298.45 -29 173.11 103 c 0,21,22
 80.3 200.74 80.3 200.74 80.3 350.03 c 0,23,24
 80.3 402.35 80.3 402.35 91.7 461 c 0,25,26
 117.55 594 117.55 594 216.5 709.5 c 128,-1,28
 315.45 825 315.45 825 490.09 926 c 1,29,30
 450.94 987 450.94 987 438.7 1047.5 c 0,31,32
 432.72 1077.04 432.72 1077.04 432.72 1107.89 c 0,33,34
 432.72 1140.22 432.72 1140.22 439.29 1174 c 0,35,36
 470.2 1333 470.2 1333 602.87 1426.5 c 128,-1,38
 735.55 1520 735.55 1520 932.55 1520 c 0,39,40
 999.55 1520 999.55 1520 1085.74 1503 c 128,-1,42
 1171.94 1486 1171.94 1486 1280.33 1452 c 1,43,-1
 1230.18 1194 l 1,44,-1
 1117.18 1194 l 1,45,46
 1117.95 1206.14 1117.95 1206.14 1117.95 1217.63 c 0,47,48
 1117.95 1307.36 1117.95 1307.36 1070.86 1357 c 0,49,50
 1017.75 1413 1017.75 1413 907.75 1413 c 0,51,52
 804.75 1413 804.75 1413 729.77 1356.5 c 128,-1,54
 654.78 1300 654.78 1300 637.29 1210 c 0,55,56
 633.17 1188.78 633.17 1188.78 633.17 1167.63 c 0,57,58
 633.17 1127.96 633.17 1127.96 647.67 1088.5 c 0,59,60
 669.14 1030.11 669.14 1030.11 755.95 915 c 2,61,-1
 1166.2 371 l 1,62,63
 1250.75 451 1250.75 451 1308.24 543.5 c 128,-1,65
 1365.72 636 1365.72 636 1396.12 741 c 1,66,-1
 1416.92 848 l 1,67,-1
 1709.92 848 l 1,68,-1
 1689.12 741 l 1,69,-1
 1517.12 741 l 1,70,71
 1474.86 611 1474.86 611 1403.39 498 c 128,-1,73
 1331.93 385 1331.93 385 1230.27 289 c 1,74,-1
 1366.69 106 l 1,75,-1
 1601.69 106 l 1,76,-1
 1581.09 0 l 1,14,-1
EndSplineSet
EndChar
StartChar: quotesingle
Encoding: 39 39 39
Width: 563
Flags: W
LayerCount: 2
Fore
SplineSet
360 1493 m 1,0,-1
 360 938 l 1,1,-1
 201 938 l 1,2,-1
 201 1493 l 1,3,-1
 360 1493 l 1,0,-1
EndSplineSet
EndChar
StartChar: parenleft
Encoding: 40 40 40
Width: 799
Flags: W
LayerCount: 2
Fore
SplineSet
470.769 -319 m 1,0,1
 248.956 -210 248.956 -210 170.927 26.5 c 128,-1,2
 92.8975 263 92.8975 263 161.902 618 c 0,3,4
 231.103 974 231.103 974 401.073 1210.5 c 128,-1,5
 571.044 1447 571.044 1447 835.231 1556 c 1,6,-1
 816.183 1458 l 1,7,8
 641.578 1352 641.578 1352 537.16 1159.5 c 128,-1,9
 432.741 967 432.741 967 364.902 618 c 0,10,11
 297.259 270 297.259 270 326.84 77.5 c 128,-1,12
 356.422 -115 356.422 -115 489.817 -221 c 1,13,-1
 470.769 -319 l 1,0,1
EndSplineSet
EndChar
StartChar: parenright
Encoding: 41 41 41
Width: 799
Flags: W
LayerCount: 2
Fore
SplineSet
-37.2314 -319 m 1,0,-1
 -18.1826 -221 l 1,1,2
 156.422 -115 156.422 -115 261.34 77.5 c 128,-1,3
 366.259 270 366.259 270 433.902 618 c 0,4,5
 501.741 967 501.741 967 471.66 1159.5 c 128,-1,6
 441.578 1352 441.578 1352 308.183 1458 c 1,7,-1
 327.231 1556 l 1,8,9
 550.044 1447 550.044 1447 628.073 1210.5 c 128,-1,10
 706.103 974 706.103 974 636.902 618 c 0,11,12
 567.897 263 567.897 263 397.927 26.5 c 128,-1,13
 227.956 -210 227.956 -210 -37.2314 -319 c 1,0,-1
EndSplineSet
EndChar
StartChar: asterisk
Encoding: 42 42 42
Width: 1024
Flags: W
LayerCount: 2
Fore
SplineSet
991 1237 m 1,0,-1
 600 1055 l 1,1,-1
 991 870 l 1,2,-1
 915 752 l 1,3,-1
 567 969 l 1,4,-1
 580 588 l 1,5,-1
 444 588 l 1,6,-1
 457 969 l 1,7,-1
 109 752 l 1,8,-1
 33 870 l 1,9,-1
 424 1053 l 1,10,-1
 33 1237 l 1,11,-1
 109 1356 l 1,12,-1
 457 1139 l 1,13,-1
 444 1520 l 1,14,-1
 580 1520 l 1,15,-1
 567 1139 l 1,16,-1
 915 1356 l 1,17,-1
 991 1237 l 1,0,-1
EndSplineSet
EndChar
StartChar: plus
Encoding: 43 43 43
Width: 1716
Flags: W
LayerCount: 2
Fore
SplineSet
938 1284 m 1,0,-1
 938 723 l 1,1,-1
 1499 723 l 1,2,-1
 1499 561 l 1,3,-1
 938 561 l 1,4,-1
 938 0 l 1,5,-1
 778 0 l 1,6,-1
 778 561 l 1,7,-1
 217 561 l 1,8,-1
 217 723 l 1,9,-1
 778 723 l 1,10,-1
 778 1284 l 1,11,-1
 938 1284 l 1,0,-1
EndSplineSet
EndChar
StartChar: comma
Encoding: 44 44 44
Width: 651
Flags: W
LayerCount: 2
Fore
SplineSet
40.3721 -199 m 1,0,1
 147.784 -130 147.784 -130 209.959 -36.5 c 128,-1,2
 272.134 57 272.134 57 297.986 190 c 2,3,-1
 305.178 227 l 1,4,-1
 502.178 227 l 1,5,6
 460.939 56 460.939 56 364.628 -66.5 c 128,-1,7
 268.316 -189 268.316 -189 104.822 -279 c 1,8,-1
 40.3721 -199 l 1,0,1
EndSplineSet
EndChar
StartChar: hyphen
Encoding: 45 45 45
Width: 692
Flags: W
LayerCount: 2
Fore
SplineSet
105.162 627 m 1,0,-1
 617.162 627 l 1,1,-1
 586.838 471 l 1,2,-1
 74.8379 471 l 1,3,-1
 105.162 627 l 1,0,-1
EndSplineSet
EndChar
StartChar: period
Encoding: 46 46 46
Width: 651
Flags: W
LayerCount: 2
Fore
SplineSet
192.902 104 m 0,0,1
 203.788 160 203.788 160 249.369 199 c 128,-1,2
 294.95 238 294.95 238 351.95 238 c 0,3,4
 406.95 238 406.95 238 438.369 199 c 128,-1,5
 469.788 160 469.788 160 458.902 104 c 0,6,7
 448.212 49 448.212 49 401.631 10 c 128,-1,8
 355.05 -29 355.05 -29 300.05 -29 c 0,9,10
 243.05 -29 243.05 -29 212.534 9.5 c 128,-1,11
 182.018 48 182.018 48 192.902 104 c 0,0,1
EndSplineSet
EndChar
StartChar: slash
Encoding: 47 47 47
Width: 690
Flags: W
LayerCount: 2
Fore
SplineSet
693.571 1493 m 1,0,-1
 853.571 1493 l 1,1,-1
 -3.57129 -190 l 1,2,-1
 -163.571 -190 l 1,3,-1
 693.571 1493 l 1,0,-1
EndSplineSet
EndChar
StartChar: zero
Encoding: 48 48 48
Width: 1303
Flags: W
LayerCount: 2
Fore
SplineSet
519.696 70 m 0,0,1
 672.696 70 672.696 70 781.352 238 c 128,-1,2
 890.008 406 890.008 406 955.902 745 c 0,3,4
 1021.99 1085 1021.99 1085 978.648 1253 c 128,-1,5
 935.304 1421 935.304 1421 782.304 1421 c 0,6,7
 629.304 1421 629.304 1421 520.648 1253 c 128,-1,8
 411.992 1085 411.992 1085 345.902 745 c 0,9,10
 280.008 406 280.008 406 323.352 238 c 128,-1,11
 366.696 70 366.696 70 519.696 70 c 0,0,1
500.452 -29 m 0,12,13
 257.452 -29 257.452 -29 160.606 175 c 128,-1,14
 63.7598 379 63.7598 379 134.902 745 c 0,15,16
 206.24 1112 206.24 1112 382.394 1316 c 128,-1,17
 558.548 1520 558.548 1520 801.548 1520 c 0,18,19
 1045.55 1520 1045.55 1520 1141.89 1316 c 128,-1,20
 1238.24 1112 1238.24 1112 1166.9 745 c 0,21,22
 1095.76 379 1095.76 379 920.106 175 c 128,-1,23
 744.452 -29 744.452 -29 500.452 -29 c 0,12,13
EndSplineSet
EndChar
StartChar: one
Encoding: 49 49 49
Width: 1303
Flags: W
LayerCount: 2
Fore
SplineSet
143.271 0 m 1,0,-1
 163.875 106 l 1,1,-1
 423.875 106 l 1,2,-1
 665.296 1348 l 1,3,-1
 326.392 1153 l 1,4,-1
 351.855 1284 l 1,5,-1
 761.729 1520 l 1,6,-1
 899.729 1520 l 1,7,-1
 624.875 106 l 1,8,-1
 884.875 106 l 1,9,-1
 864.271 0 l 1,10,-1
 143.271 0 l 1,0,-1
EndSplineSet
EndChar
StartChar: two
Encoding: 50 50 50
Width: 1303
Flags: W
LayerCount: 2
Fore
SplineSet
335.281 1137 m 1,0,-1
 223.281 1137 l 1,1,-1
 274.986 1403 l 1,2,3
 393.066 1460 393.066 1460 507.397 1490 c 128,-1,4
 621.729 1520 621.729 1520 725.729 1520 c 0,5,6
 958.729 1520 958.729 1520 1071.76 1407 c 128,-1,7
 1184.8 1294 1184.8 1294 1147.09 1100 c 0,8,9
 1104.52 881 1104.52 881 739.234 576 c 0,10,11
 710.764 553 710.764 553 696.431 541 c 2,12,-1
 246.149 164 l 1,13,-1
 869.149 164 l 1,14,-1
 904.915 348 l 1,15,-1
 1021.92 348 l 1,16,-1
 954.271 0 l 1,17,-1
 -8.72949 0 l 1,18,-1
 12.458 109 l 1,19,-1
 553.318 561 l 2,20,21
 732.476 711 732.476 711 820.87 836.5 c 128,-1,22
 909.265 962 909.265 962 936.089 1100 c 0,23,24
 965.44 1251 965.44 1251 903.463 1336 c 128,-1,25
 841.485 1421 841.485 1421 703.485 1421 c 0,26,27
 560.485 1421 560.485 1421 468.685 1350 c 128,-1,28
 376.884 1279 376.884 1279 335.281 1137 c 1,0,-1
EndSplineSet
EndChar
StartChar: three
Encoding: 51 51 51
Width: 1303
Flags: W
LayerCount: 2
Fore
SplineSet
332.054 1430 m 1,0,1
 457.606 1474 457.606 1474 569.577 1497 c 128,-1,2
 681.548 1520 681.548 1520 775.548 1520 c 0,3,4
 994.548 1520 994.548 1520 1099.18 1425.5 c 128,-1,5
 1203.81 1331 1203.81 1331 1171.15 1163 c 0,6,7
 1144.91 1028 1144.91 1028 1042.32 937.5 c 128,-1,8
 939.729 847 939.729 847 777.51 815 c 1,9,10
 956.455 789 956.455 789 1037.06 681.5 c 128,-1,11
 1117.66 574 1117.66 574 1084.42 403 c 0,12,13
 1043.8 194 1043.8 194 881.626 82.5 c 128,-1,14
 719.452 -29 719.452 -29 455.452 -29 c 0,15,16
 338.452 -29 338.452 -29 231.812 -4 c 128,-1,17
 125.172 21 125.172 21 25.085 72 c 1,18,-1
 81.4551 362 l 1,19,-1
 193.455 362 l 1,20,21
 175.465 218 175.465 218 248.08 144 c 128,-1,22
 320.696 70 320.696 70 478.696 70 c 0,23,24
 631.696 70 631.696 70 737.398 158.5 c 128,-1,25
 843.102 247 843.102 247 873.036 401 c 0,26,27
 907.247 577 907.247 577 833.838 667.5 c 128,-1,28
 760.43 758 760.43 758 584.43 758 c 2,29,-1
 489.43 758 l 1,30,-1
 509.257 860 l 1,31,-1
 559.257 860 l 2,32,33
 734.257 860 734.257 860 835.849 932.5 c 128,-1,34
 937.441 1005 937.441 1005 965.821 1151 c 0,35,36
 991.285 1282 991.285 1282 932.795 1351.5 c 128,-1,37
 874.304 1421 874.304 1421 739.304 1421 c 0,38,39
 604.304 1421 604.304 1421 517.363 1357 c 128,-1,40
 430.423 1293 430.423 1293 392.932 1167 c 1,41,-1
 280.932 1167 l 1,42,-1
 332.054 1430 l 1,0,1
EndSplineSet
EndChar
StartChar: four
Encoding: 52 52 52
Width: 1303
Flags: W
LayerCount: 2
Fore
SplineSet
665.627 506 m 1,0,-1
 819.966 1300 l 1,1,-1
 155.627 506 l 1,2,-1
 665.627 506 l 1,0,-1
1007.27 0 m 1,3,-1
 327.271 0 l 1,4,-1
 347.875 106 l 1,5,-1
 587.875 106 l 1,6,-1
 644.829 399 l 1,7,-1
 -7.1709 399 l 1,8,-1
 14.0166 508 l 1,9,-1
 864.729 1520 l 1,10,-1
 1062.73 1520 l 1,11,-1
 865.627 506 l 1,12,-1
 1150.63 506 l 1,13,-1
 1129.83 399 l 1,14,-1
 844.829 399 l 1,15,-1
 787.875 106 l 1,16,-1
 1027.88 106 l 1,17,-1
 1007.27 0 l 1,3,-1
EndSplineSet
EndChar
StartChar: five
Encoding: 53 53 53
Width: 1303
Flags: W
LayerCount: 2
Fore
SplineSet
1177.92 1493 m 1,0,-1
 1146.04 1329 l 1,1,-1
 462.045 1329 l 1,2,-1
 378.851 901 l 1,3,4
 437.848 937 437.848 937 510.847 955 c 128,-1,5
 583.846 973 583.846 973 669.846 973 c 0,6,7
 911.846 973 911.846 973 1025.8 839 c 128,-1,8
 1139.75 705 1139.75 705 1094.66 473 c 0,9,10
 1048.59 236 1048.59 236 881.332 103.5 c 128,-1,11
 714.076 -29 714.076 -29 458.076 -29 c 0,12,13
 355.076 -29 355.076 -29 251.937 -4 c 128,-1,14
 148.796 21 148.796 21 45.709 72 c 1,15,-1
 102.079 362 l 1,16,-1
 215.079 362 l 1,17,18
 196.478 220 196.478 220 263.398 145 c 128,-1,19
 330.32 70 330.32 70 477.32 70 c 0,20,21
 635.32 70 635.32 70 740.536 174 c 128,-1,22
 845.751 278 845.751 278 883.655 473 c 0,23,24
 921.365 667 921.365 667 856.983 770.5 c 128,-1,25
 792.602 874 792.602 874 633.602 874 c 0,26,27
 543.602 874 543.602 874 468.882 842 c 128,-1,28
 394.162 810 394.162 810 328.138 743 c 1,29,-1
 242.138 743 l 1,30,-1
 387.924 1493 l 1,31,-1
 1177.92 1493 l 1,0,-1
EndSplineSet
EndChar
StartChar: six
Encoding: 54 54 54
Width: 1303
Flags: W
LayerCount: 2
Fore
SplineSet
538.696 70 m 0,0,1
 679.696 70 679.696 70 775.814 173.5 c 128,-1,2
 871.933 277 871.933 277 909.643 471 c 0,3,4
 947.353 665 947.353 665 891.471 768.5 c 128,-1,5
 835.589 872 835.589 872 694.589 872 c 0,6,7
 551.589 872 551.589 872 457.151 772 c 128,-1,8
 362.713 672 362.713 672 325.976 483 c 0,9,10
 287.294 284 287.294 284 342.495 177 c 128,-1,11
 397.696 70 397.696 70 538.696 70 c 0,0,1
358.87 822 m 1,12,13
 441.448 897 441.448 897 534.641 934 c 128,-1,14
 627.833 971 627.833 971 735.833 971 c 0,15,16
 958.833 971 958.833 971 1062.29 837 c 128,-1,17
 1165.74 703 1165.74 703 1120.64 471 c 0,18,19
 1076.52 244 1076.52 244 910.485 107.5 c 128,-1,20
 744.452 -29 744.452 -29 511.452 -29 c 0,21,22
 258.452 -29 258.452 -29 159.093 159.5 c 128,-1,23
 59.7334 348 59.7334 348 127.767 698 c 0,24,25
 203.964 1090 203.964 1090 406.756 1305 c 128,-1,26
 609.548 1520 609.548 1520 902.548 1520 c 0,27,28
 981.548 1520 981.548 1520 1065.63 1505 c 128,-1,29
 1149.72 1490 1149.72 1490 1234.88 1460 c 1,30,-1
 1187.07 1214 l 1,31,-1
 1074.07 1214 l 1,32,33
 1081.7 1315 1081.7 1315 1027 1368 c 128,-1,34
 972.304 1421 972.304 1421 862.304 1421 c 0,35,36
 668.304 1421 668.304 1421 544.73 1274 c 128,-1,37
 421.156 1127 421.156 1127 358.87 822 c 1,12,13
EndSplineSet
EndChar
StartChar: seven
Encoding: 55 55 55
Width: 1303
Flags: W
LayerCount: 2
Fore
SplineSet
1280.28 1391 m 1,0,-1
 425.896 0 l 1,1,-1
 276.896 0 l 1,2,-1
 1092.23 1329 l 1,3,-1
 402.227 1329 l 1,4,-1
 366.461 1145 l 1,5,-1
 249.461 1145 l 1,6,-1
 317.104 1493 l 1,7,-1
 1300.1 1493 l 1,8,-1
 1280.28 1391 l 1,0,-1
EndSplineSet
EndChar
StartChar: eight
Encoding: 56 56 56
Width: 1303
Flags: W
LayerCount: 2
Fore
SplineSet
888.396 408 m 0,0,1
 919.497 568 919.497 568 857.2 656.5 c 128,-1,2
 794.902 745 794.902 745 650.902 745 c 0,3,4
 506.902 745 506.902 745 410.2 656.5 c 128,-1,5
 313.497 568 313.497 568 282.396 408 c 0,6,7
 251.102 247 251.102 247 313.398 158.5 c 128,-1,8
 375.696 70 375.696 70 519.696 70 c 0,9,10
 663.696 70 663.696 70 760.398 158.5 c 128,-1,11
 857.102 247 857.102 247 888.396 408 c 0,0,1
988.322 1133 m 0,12,13
 1014.76 1269 1014.76 1269 960.531 1345 c 128,-1,14
 906.304 1421 906.304 1421 782.304 1421 c 0,15,16
 659.304 1421 659.304 1421 575.031 1345 c 128,-1,17
 490.758 1269 490.758 1269 464.322 1133 c 0,18,19
 437.692 996 437.692 996 492.419 920 c 128,-1,20
 547.146 844 547.146 844 670.146 844 c 0,21,22
 794.146 844 794.146 844 877.919 920 c 128,-1,23
 961.692 996 961.692 996 988.322 1133 c 0,12,13
814.622 795 m 1,24,25
 980.151 772 980.151 772 1055.23 669.5 c 128,-1,26
 1130.3 567 1130.3 567 1099.4 408 c 0,27,28
 1058.58 198 1058.58 198 903.515 84.5 c 128,-1,29
 748.452 -29 748.452 -29 500.452 -29 c 0,30,31
 253.452 -29 253.452 -29 142.015 84.5 c 128,-1,32
 30.5771 198 30.5771 198 71.3965 408 c 0,33,34
 102.303 567 102.303 567 217.228 669.5 c 128,-1,35
 332.151 772 332.151 772 507.622 795 c 1,36,37
 361.87 822 361.87 822 298.378 909.5 c 128,-1,38
 234.887 997 234.887 997 261.322 1133 c 0,39,40
 296.311 1313 296.311 1313 440.429 1416.5 c 128,-1,41
 584.548 1520 584.548 1520 801.548 1520 c 0,42,43
 1018.55 1520 1018.55 1520 1122.43 1416.5 c 128,-1,44
 1226.31 1313 1226.31 1313 1191.32 1133 c 0,45,46
 1164.89 997 1164.89 997 1067.38 909.5 c 128,-1,47
 969.87 822 969.87 822 814.622 795 c 1,24,25
EndSplineSet
EndChar
StartChar: nine
Encoding: 57 57 57
Width: 1303
Flags: W
LayerCount: 2
Fore
SplineSet
943.13 669 m 1,0,1
 861.552 594 861.552 594 767.359 557 c 128,-1,2
 673.167 520 673.167 520 564.167 520 c 0,3,4
 342.167 520 342.167 520 239.714 654 c 128,-1,5
 137.261 788 137.261 788 182.357 1020 c 0,6,7
 226.481 1247 226.481 1247 392.515 1383.5 c 128,-1,8
 558.548 1520 558.548 1520 791.548 1520 c 0,9,10
 1044.55 1520 1044.55 1520 1143.41 1331.5 c 128,-1,11
 1242.27 1143 1242.27 1143 1174.23 793 c 0,12,13
 1098.04 401 1098.04 401 895.244 186 c 128,-1,14
 692.452 -29 692.452 -29 400.452 -29 c 0,15,16
 321.452 -29 321.452 -29 237.368 -14 c 128,-1,17
 153.284 1 153.284 1 68.1152 31 c 1,18,-1
 116.321 279 l 1,19,-1
 228.321 279 l 1,20,21
 221.689 178 221.689 178 276.192 124 c 128,-1,22
 330.696 70 330.696 70 439.696 70 c 0,23,24
 633.696 70 633.696 70 757.173 216.5 c 128,-1,25
 880.649 363 880.649 363 943.13 669 c 1,0,1
764.304 1421 m 0,26,27
 622.304 1421 622.304 1421 526.686 1317.5 c 128,-1,28
 431.067 1214 431.067 1214 393.357 1020 c 0,29,30
 355.647 826 355.647 826 410.932 722 c 128,-1,31
 466.217 618 466.217 618 608.217 618 c 0,32,33
 750.217 618 750.217 618 845.252 718.5 c 128,-1,34
 940.287 819 940.287 819 977.024 1008 c 0,35,36
 1015.71 1207 1015.71 1207 960.505 1314 c 128,-1,37
 905.304 1421 905.304 1421 764.304 1421 c 0,26,27
EndSplineSet
EndChar
StartChar: colon
Encoding: 58 58 58
Width: 690
Flags: W
LayerCount: 2
Fore
SplineSet
149.632 104 m 0,0,1
 160.518 160 160.518 160 206.599 199 c 128,-1,2
 252.679 238 252.679 238 308.679 238 c 0,3,4
 364.679 238 364.679 238 395.599 199 c 128,-1,5
 426.518 160 426.518 160 415.632 104 c 0,6,7
 404.747 48 404.747 48 359.263 9.5 c 128,-1,8
 313.779 -29 313.779 -29 256.779 -29 c 0,9,10
 199.779 -29 199.779 -29 169.263 9.5 c 128,-1,11
 138.747 48 138.747 48 149.632 104 c 0,0,1
276.368 756 m 0,12,13
 287.253 812 287.253 812 333.237 850.5 c 128,-1,14
 379.221 889 379.221 889 435.221 889 c 0,15,16
 492.221 889 492.221 889 522.834 851 c 128,-1,17
 553.447 813 553.447 813 542.368 756 c 0,18,19
 531.288 699 531.288 699 485.901 661 c 128,-1,20
 440.516 623 440.516 623 383.516 623 c 0,21,22
 327.516 623 327.516 623 296.499 661.5 c 128,-1,23
 265.482 700 265.482 700 276.368 756 c 0,12,13
EndSplineSet
EndChar
StartChar: semicolon
Encoding: 59 59 59
Width: 690
Flags: W
LayerCount: 2
Fore
SplineSet
-23.9678 -199 m 1,0,1
 83.4443 -130 83.4443 -130 145.619 -36.5 c 128,-1,2
 207.794 57 207.794 57 233.646 190 c 2,3,-1
 240.838 227 l 1,4,-1
 437.838 227 l 1,5,6
 396.6 56 396.6 56 300.288 -66.5 c 128,-1,7
 203.977 -189 203.977 -189 40.4814 -279 c 1,8,-1
 -23.9678 -199 l 1,0,1
304.665 756 m 0,9,10
 315.551 812 315.551 812 361.534 850.5 c 128,-1,11
 407.519 889 407.519 889 463.519 889 c 0,12,13
 519.519 889 519.519 889 550.438 850 c 128,-1,14
 581.356 811 581.356 811 570.665 756 c 0,15,16
 559.78 700 559.78 700 513.797 661.5 c 128,-1,17
 467.812 623 467.812 623 411.812 623 c 0,18,19
 355.812 623 355.812 623 324.797 661.5 c 128,-1,20
 293.78 700 293.78 700 304.665 756 c 0,9,10
EndSplineSet
EndChar
StartChar: less
Encoding: 60 60 60
Width: 1716
Flags: W
LayerCount: 2
Fore
SplineSet
1499 1020 m 1,0,-1
 461 641 l 1,1,-1
 1499 264 l 1,2,-1
 1499 94 l 1,3,-1
 217 559 l 1,4,-1
 217 725 l 1,5,-1
 1499 1190 l 1,6,-1
 1499 1020 l 1,0,-1
EndSplineSet
EndChar
StartChar: equal
Encoding: 61 61 61
Width: 1716
Flags: W
LayerCount: 2
Fore
SplineSet
217 926 m 1,0,-1
 1499 926 l 1,1,-1
 1499 766 l 1,2,-1
 217 766 l 1,3,-1
 217 926 l 1,0,-1
217 518 m 1,4,-1
 1499 518 l 1,5,-1
 1499 358 l 1,6,-1
 217 358 l 1,7,-1
 217 518 l 1,4,-1
EndSplineSet
EndChar
StartChar: greater
Encoding: 62 62 62
Width: 1716
Flags: W
LayerCount: 2
Fore
SplineSet
217 1020 m 1,0,-1
 217 1190 l 1,1,-1
 1499 725 l 1,2,-1
 1499 559 l 1,3,-1
 217 94 l 1,4,-1
 217 264 l 1,5,-1
 1255 641 l 1,6,-1
 217 1020 l 1,0,-1
EndSplineSet
EndChar
StartChar: question
Encoding: 63 63 63
Width: 1098
Flags: W
LayerCount: 2
Fore
SplineSet
235.305 104 m 0,0,1
 246.19 160 246.19 160 292.271 199 c 128,-1,2
 338.352 238 338.352 238 395.352 238 c 0,3,4
 450.352 238 450.352 238 481.771 199 c 128,-1,5
 513.19 160 513.19 160 502.305 104 c 0,6,7
 491.614 49 491.614 49 445.033 10 c 128,-1,8
 398.452 -29 398.452 -29 343.452 -29 c 0,9,10
 286.452 -29 286.452 -29 255.437 9.5 c 128,-1,11
 224.42 48 224.42 48 235.305 104 c 0,0,1
271.47 1427 m 1,12,13
 386.606 1474 386.606 1474 486.577 1497 c 128,-1,14
 586.548 1520 586.548 1520 670.548 1520 c 0,15,16
 892.548 1520 892.548 1520 1000.25 1413 c 128,-1,17
 1107.95 1306 1107.95 1306 1072.57 1124 c 0,18,19
 1036.42 938 1036.42 938 902.981 820 c 128,-1,20
 769.545 702 769.545 702 536.631 651 c 1,21,-1
 487.259 397 l 1,22,-1
 364.259 397 l 1,23,-1
 428.016 725 l 1,24,25
 613.374 768 613.374 768 722.506 869 c 128,-1,26
 831.639 970 831.639 970 861.962 1126 c 0,27,28
 888.592 1263 888.592 1263 830.948 1342 c 128,-1,29
 773.304 1421 773.304 1421 647.304 1421 c 0,30,31
 533.304 1421 533.304 1421 448.072 1355.5 c 128,-1,32
 362.84 1290 362.84 1290 317.932 1167 c 1,33,-1
 220.932 1167 l 1,34,-1
 271.47 1427 l 1,12,13
EndSplineSet
EndChar
StartChar: at
Encoding: 64 64 64
Width: 2048
Flags: W
LayerCount: 2
Fore
SplineSet
1236.66 248 m 1,0,1
 1161.72 166 1161.72 166 1080.44 126 c 128,-1,2
 999.168 86 999.168 86 906.168 86 c 0,3,4
 731.168 86 731.168 86 646.466 211 c 128,-1,5
 561.764 336 561.764 336 600.834 537 c 0,6,7
 639.904 738 639.904 738 773.104 862.5 c 128,-1,8
 906.305 987 906.305 987 1081.3 987 c 0,9,10
 1174.3 987 1174.3 987 1240.03 947 c 128,-1,11
 1305.75 907 1305.75 907 1348.82 825 c 1,12,-1
 1376.42 967 l 1,13,-1
 1532.42 967 l 1,14,-1
 1382.36 195 l 1,15,16
 1559.55 232 1559.55 232 1677.85 357 c 128,-1,17
 1796.14 482 1796.14 482 1832.69 670 c 0,18,19
 1854.26 781 1854.26 781 1839.51 880 c 128,-1,20
 1824.75 979 1824.75 979 1774.08 1063 c 0,21,22
 1693.93 1196 1693.93 1196 1555.13 1266.5 c 128,-1,23
 1416.34 1337 1416.34 1337 1237.34 1337 c 0,24,25
 1147.34 1337 1147.34 1337 1055.64 1318 c 128,-1,26
 963.951 1299 963.951 1299 870.371 1260 c 0,27,28
 650.293 1167 650.293 1167 501.652 978.5 c 128,-1,29
 353.012 790 353.012 790 305 543 c 0,30,31
 272.538 376 272.538 376 295.229 235.5 c 128,-1,32
 317.918 95 317.918 95 392.896 -8 c 0,33,34
 478.766 -127 478.766 -127 616.116 -189.5 c 128,-1,35
 753.468 -252 753.468 -252 926.468 -252 c 0,36,37
 1055.47 -252 1055.47 -252 1174.85 -214 c 128,-1,38
 1294.24 -176 1294.24 -176 1405.01 -100 c 1,39,-1
 1444.41 -170 l 1,40,41
 1318.33 -263 1318.33 -263 1172.29 -309.5 c 128,-1,42
 1026.25 -356 1026.25 -356 863.252 -356 c 0,43,44
 680.252 -356 680.252 -356 526.679 -289.5 c 128,-1,45
 373.104 -223 373.104 -223 272.014 -100 c 0,46,47
 167.7 27 167.7 27 132.98 190.5 c 128,-1,48
 98.2617 354 98.2617 354 135 543 c 0,49,50
 170.766 727 170.766 727 269.45 890 c 128,-1,51
 368.134 1053 368.134 1053 520.82 1180 c 0,52,53
 672.312 1306 672.312 1306 858.03 1374 c 128,-1,54
 1043.75 1442 1043.75 1442 1237.75 1442 c 0,55,56
 1451.75 1442 1451.75 1442 1612.11 1359 c 128,-1,57
 1772.48 1276 1772.48 1276 1861.16 1120 c 0,58,59
 1918.11 1022 1918.11 1022 1934.75 907 c 128,-1,60
 1951.4 792 1951.4 792 1927.3 668 c 0,61,62
 1875.2 400 1875.2 400 1681.98 244.5 c 128,-1,63
 1488.75 89 1488.75 89 1206.17 86 c 1,64,-1
 1236.66 248 l 1,0,1
1282.73 485 m 2,65,-1
 1303.14 590 l 2,66,67
 1327.43 715 1327.43 715 1271 792.5 c 128,-1,68
 1214.56 870 1214.56 870 1099.56 870 c 0,69,70
 978.562 870 978.562 870 894.054 782.5 c 128,-1,71
 809.546 695 809.546 695 778.834 537 c 0,72,73
 747.928 378 747.928 378 798.919 290.5 c 128,-1,74
 849.911 203 849.911 203 971.911 203 c 0,75,76
 1085.91 203 1085.91 203 1172.17 281.5 c 128,-1,77
 1258.43 360 1258.43 360 1282.73 485 c 2,65,-1
EndSplineSet
EndChar
StartChar: A
Encoding: 65 65 65
Width: 1479
Flags: W
AnchorPoint: "above" 878.662 1465 basechar 0
AnchorPoint: "below" 593.896 0 basechar 0
LayerCount: 2
Fore
SplineSet
370.055 541 m 1,0,-1
 918.055 541 l 1,1,-1
 782.064 1251 l 1,2,-1
 370.055 541 l 1,0,-1
-157.104 0 m 1,3,-1
 -136.501 106 l 1,4,-1
 -5.50098 106 l 1,5,-1
 796.104 1493 l 1,6,-1
 964.104 1493 l 1,7,-1
 1227.5 106 l 1,8,-1
 1374.5 106 l 1,9,-1
 1353.9 0 l 1,10,-1
 810.896 0 l 1,11,-1
 831.499 106 l 1,12,-1
 997.499 106 l 1,13,-1
 936.256 434 l 1,14,-1
 308.256 434 l 1,15,-1
 119.499 106 l 1,16,-1
 283.499 106 l 1,17,-1
 262.896 0 l 1,18,-1
 -157.104 0 l 1,3,-1
EndSplineSet
EndChar
StartChar: B
Encoding: 66 66 66
Width: 1505
Flags: W
AnchorPoint: "above" 882.662 1465 basechar 0
AnchorPoint: "below" 597.896 0 basechar 0
LayerCount: 2
Fore
SplineSet
381.499 106 m 1,0,-1
 680.499 106 l 2,1,2
 860.499 106 860.499 106 958.661 184 c 128,-1,3
 1056.82 262 1056.82 262 1089.87 432 c 0,4,5
 1122.72 601 1122.72 601 1055.28 678.5 c 128,-1,6
 987.847 756 987.847 756 806.847 756 c 2,7,-1
 507.847 756 l 1,8,-1
 381.499 106 l 1,0,-1
528.451 862 m 1,9,-1
 782.451 862 l 2,10,11
 946.451 862 946.451 862 1034.2 925 c 128,-1,12
 1121.94 988 1121.94 988 1148.38 1124 c 0,13,14
 1175.01 1261 1175.01 1261 1111.66 1323.5 c 128,-1,15
 1048.31 1386 1048.31 1386 884.307 1386 c 2,16,-1
 630.307 1386 l 1,17,-1
 528.451 862 l 1,9,-1
-32.1045 0 m 1,18,-1
 -11.501 106 l 1,19,-1
 178.499 106 l 1,20,-1
 427.307 1386 l 1,21,-1
 237.307 1386 l 1,22,-1
 258.104 1493 l 1,23,-1
 995.104 1493 l 2,24,25
 1221.1 1493 1221.1 1493 1317.62 1400.5 c 128,-1,26
 1414.14 1308 1414.14 1308 1378.38 1124 c 0,27,28
 1352.53 991 1352.53 991 1257.67 912 c 128,-1,29
 1162.81 833 1162.81 833 1006.32 815 c 1,30,31
 1191.65 791 1191.65 791 1271.2 693.5 c 128,-1,32
 1350.75 596 1350.75 596 1318.87 432 c 0,33,34
 1275.71 210 1275.71 210 1115.3 105 c 128,-1,35
 954.896 0 954.896 0 657.896 0 c 2,36,-1
 -32.1045 0 l 1,18,-1
EndSplineSet
EndChar
StartChar: C
Encoding: 67 67 67
Width: 1567
Flags: W
AnchorPoint: "above" 968.856 1465 basechar 0
AnchorPoint: "below" 684.09 0 basechar 0
LayerCount: 2
Fore
SplineSet
1375.87 395 m 1,0,1
 1269.24 186 1269.24 186 1092.85 78.5 c 128,-1,2
 916.452 -29 916.452 -29 678.452 -29 c 0,3,4
 532.452 -29 532.452 -29 417.172 21 c 128,-1,5
 301.891 71 301.891 71 223.745 168 c 0,6,7
 133.516 280 133.516 280 106.715 422.5 c 128,-1,8
 79.9141 565 79.9141 565 114.902 745 c 0,9,10
 182.547 1093 182.547 1093 425.047 1306.5 c 128,-1,11
 667.548 1520 667.548 1520 996.548 1520 c 0,12,13
 1118.55 1520 1118.55 1520 1250.33 1488 c 128,-1,14
 1382.11 1456 1382.11 1456 1528.47 1391 c 1,15,-1
 1461.61 1047 l 1,16,-1
 1348.61 1047 l 1,17,18
 1348.15 1235 1348.15 1235 1253.95 1324 c 128,-1,19
 1159.75 1413 1159.75 1413 958.749 1413 c 0,20,21
 719.749 1413 719.749 1413 563.802 1243.5 c 128,-1,22
 407.854 1074 407.854 1074 343.902 745 c 0,23,24
 280.146 417 280.146 417 370.198 247.5 c 128,-1,25
 460.251 78 460.251 78 699.251 78 c 0,26,27
 866.251 78 866.251 78 989.704 157.5 c 128,-1,28
 1113.16 237 1113.16 237 1191.87 395 c 1,29,-1
 1375.87 395 l 1,0,1
EndSplineSet
EndChar
StartChar: D
Encoding: 68 68 68
Width: 1642
Flags: W
AnchorPoint: "below" 597.896 0 basechar 0
AnchorPoint: "above" 888.5 1465 basechar 0
LayerCount: 2
Fore
SplineSet
381.499 106 m 1,0,-1
 567.499 106 l 2,1,2
 858.499 106 858.499 106 1046.27 272 c 128,-1,3
 1234.03 438 1234.03 438 1294.29 748 c 128,-1,4
 1354.55 1058 1354.55 1058 1231.43 1222 c 128,-1,5
 1108.31 1386 1108.31 1386 816.307 1386 c 2,6,-1
 630.307 1386 l 1,7,-1
 381.499 106 l 1,0,-1
-32.1045 0 m 1,8,-1
 -11.501 106 l 1,9,-1
 178.499 106 l 1,10,-1
 427.307 1386 l 1,11,-1
 237.307 1386 l 1,12,-1
 258.104 1493 l 1,13,-1
 852.104 1493 l 2,14,15
 1238.1 1493 1238.1 1493 1415.31 1296 c 128,-1,16
 1592.52 1099 1592.52 1099 1524.29 748 c 0,17,18
 1455.87 396 1455.87 396 1201.38 198 c 128,-1,19
 946.896 0 946.896 0 561.896 0 c 2,20,-1
 -32.1045 0 l 1,8,-1
EndSplineSet
EndChar
StartChar: E
Encoding: 69 69 69
Width: 1495
Flags: W
AnchorPoint: "above" 887.662 1465 basechar 0
AnchorPoint: "below" 602.896 0 basechar 0
LayerCount: 2
Fore
SplineSet
-32.1045 0 m 1,0,-1
 -11.501 106 l 1,1,-1
 178.499 106 l 1,2,-1
 427.307 1386 l 1,3,-1
 237.307 1386 l 1,4,-1
 258.104 1493 l 1,5,-1
 1460.1 1493 l 1,6,-1
 1395.57 1161 l 1,7,-1
 1272.57 1161 l 1,8,-1
 1313.2 1370 l 1,9,-1
 627.196 1370 l 1,10,-1
 530.006 870 l 1,11,-1
 1019.01 870 l 1,12,-1
 1055.36 1057 l 1,13,-1
 1178.36 1057 l 1,14,-1
 1081.94 561 l 1,15,-1
 958.942 561 l 1,16,-1
 995.292 748 l 1,17,-1
 506.292 748 l 1,18,-1
 384.804 123 l 1,19,-1
 1086.8 123 l 1,20,-1
 1127.43 332 l 1,21,-1
 1250.43 332 l 1,22,-1
 1185.9 0 l 1,23,-1
 -32.1045 0 l 1,0,-1
EndSplineSet
EndChar
StartChar: F
Encoding: 70 70 70
Width: 1421
Flags: W
AnchorPoint: "below" 258.896 0 basechar 0
AnchorPoint: "above" 897.662 1465 basechar 0
LayerCount: 2
Fore
SplineSet
-32.1045 0 m 1,0,-1
 -11.501 106 l 1,1,-1
 178.499 106 l 1,2,-1
 427.307 1386 l 1,3,-1
 237.307 1386 l 1,4,-1
 258.104 1493 l 1,5,-1
 1480.1 1493 l 1,6,-1
 1415.57 1161 l 1,7,-1
 1292.57 1161 l 1,8,-1
 1333.2 1370 l 1,9,-1
 627.196 1370 l 1,10,-1
 530.006 870 l 1,11,-1
 1040.01 870 l 1,12,-1
 1076.36 1057 l 1,13,-1
 1199.36 1057 l 1,14,-1
 1102.94 561 l 1,15,-1
 979.942 561 l 1,16,-1
 1016.29 748 l 1,17,-1
 506.292 748 l 1,18,-1
 381.499 106 l 1,19,-1
 620.499 106 l 1,20,-1
 599.896 0 l 1,21,-1
 -32.1045 0 l 1,0,-1
EndSplineSet
EndChar
StartChar: G
Encoding: 71 71 71
Width: 1636
Flags: W
AnchorPoint: "below" 711.09 0 basechar 0
AnchorPoint: "above" 1001.5 1465 basechar 0
LayerCount: 2
Fore
SplineSet
1369.61 1047 m 1,0,1
 1370.96 1234 1370.96 1234 1277.35 1323.5 c 128,-1,2
 1183.75 1413 1183.75 1413 985.749 1413 c 0,3,4
 727.749 1413 727.749 1413 568.481 1247 c 128,-1,5
 409.215 1081 409.215 1081 343.902 745 c 0,6,7
 279.952 416 279.952 416 378.102 247 c 128,-1,8
 476.251 78 476.251 78 730.251 78 c 0,9,10
 843.251 78 843.251 78 951.693 106 c 128,-1,11
 1060.14 134 1060.14 134 1164.02 190 c 1,12,-1
 1238.86 575 l 1,13,-1
 957.858 575 l 1,14,-1
 978.657 682 l 1,15,-1
 1462.66 682 l 1,16,-1
 1354.39 125 l 1,17,18
 1206.42 48 1206.42 48 1045.44 9.5 c 128,-1,19
 884.452 -29 884.452 -29 709.452 -29 c 0,20,21
 371.452 -29 371.452 -29 209.063 182.5 c 128,-1,22
 46.6758 394 46.6758 394 114.902 745 c 0,23,24
 183.714 1099 183.714 1099 428.631 1309.5 c 128,-1,25
 673.548 1520 673.548 1520 1018.55 1520 c 0,26,27
 1146.55 1520 1146.55 1520 1277.31 1490.5 c 128,-1,28
 1408.08 1461 1408.08 1461 1550.42 1401 c 1,29,-1
 1481.61 1047 l 1,30,-1
 1369.61 1047 l 1,0,1
EndSplineSet
EndChar
StartChar: H
Encoding: 72 72 72
Width: 1786
Flags: W
AnchorPoint: "above" 1032.66 1465 basechar 0
AnchorPoint: "below" 747.896 0 basechar 0
LayerCount: 2
Fore
SplineSet
-32.1045 0 m 1,0,-1
 -11.501 106 l 1,1,-1
 178.499 106 l 1,2,-1
 427.307 1386 l 1,3,-1
 237.307 1386 l 1,4,-1
 258.104 1493 l 1,5,-1
 841.104 1493 l 1,6,-1
 820.307 1386 l 1,7,-1
 630.307 1386 l 1,8,-1
 530.006 870 l 1,9,-1
 1304.01 870 l 1,10,-1
 1404.31 1386 l 1,11,-1
 1214.31 1386 l 1,12,-1
 1235.1 1493 l 1,13,-1
 1818.1 1493 l 1,14,-1
 1797.31 1386 l 1,15,-1
 1607.31 1386 l 1,16,-1
 1358.5 106 l 1,17,-1
 1548.5 106 l 1,18,-1
 1527.9 0 l 1,19,-1
 944.896 0 l 1,20,-1
 965.499 106 l 1,21,-1
 1155.5 106 l 1,22,-1
 1280.29 748 l 1,23,-1
 506.292 748 l 1,24,-1
 381.499 106 l 1,25,-1
 571.499 106 l 1,26,-1
 550.896 0 l 1,27,-1
 -32.1045 0 l 1,0,-1
EndSplineSet
EndChar
StartChar: I
Encoding: 73 73 73
Width: 809
Flags: W
AnchorPoint: "below" 260.896 0 basechar 0
AnchorPoint: "above" 551.504 1465 basechar 0
LayerCount: 2
Fore
SplineSet
381.499 106 m 1,0,-1
 571.499 106 l 1,1,-1
 550.896 0 l 1,2,-1
 -32.1045 0 l 1,3,-1
 -11.501 106 l 1,4,-1
 178.499 106 l 1,5,-1
 427.307 1386 l 1,6,-1
 237.307 1386 l 1,7,-1
 258.104 1493 l 1,8,-1
 841.104 1493 l 1,9,-1
 820.307 1386 l 1,10,-1
 630.307 1386 l 1,11,-1
 381.499 106 l 1,0,-1
EndSplineSet
EndChar
StartChar: J
Encoding: 74 74 74
Width: 821
Flags: W
AnchorPoint: "above" 616.065 1465 basechar 0
AnchorPoint: "below" -0.285156 -430 basechar 0
LayerCount: 2
Fore
SplineSet
-345.29 -358 m 1,0,-1
 -299.61 -123 l 1,1,-1
 -185.61 -123 l 1,2,3
 -201.854 -222 -201.854 -222 -167.282 -270.5 c 128,-1,4
 -132.709 -319 -132.709 -319 -44.709 -319 c 0,5,6
 74.291 -319 74.291 -319 135.869 -244 c 128,-1,7
 197.448 -169 197.448 -169 239.822 49 c 2,8,-1
 499.709 1386 l 1,9,-1
 267.709 1386 l 1,10,-1
 288.508 1493 l 1,11,-1
 913.508 1493 l 1,12,-1
 892.709 1386 l 1,13,-1
 702.709 1386 l 1,14,-1
 441.268 41 l 2,15,16
 393.256 -206 393.256 -206 272.874 -316 c 128,-1,17
 152.492 -426 152.492 -426 -67.5078 -426 c 0,18,19
 -138.508 -426 -138.508 -426 -208.703 -409 c 128,-1,20
 -278.899 -392 -278.899 -392 -345.29 -358 c 1,0,-1
EndSplineSet
EndChar
StartChar: K
Encoding: 75 75 75
Width: 1530
Flags: W
AnchorPoint: "below" 695.896 0 basechar 0
AnchorPoint: "above" 980.662 1465 basechar 0
LayerCount: 2
Fore
SplineSet
-32.1045 0 m 1,0,-1
 -11.501 106 l 1,1,-1
 178.499 106 l 1,2,-1
 427.307 1386 l 1,3,-1
 237.307 1386 l 1,4,-1
 258.104 1493 l 1,5,-1
 841.104 1493 l 1,6,-1
 820.307 1386 l 1,7,-1
 630.307 1386 l 1,8,-1
 520.481 821 l 1,9,-1
 1273.31 1386 l 1,10,-1
 1111.31 1386 l 1,11,-1
 1132.1 1493 l 1,12,-1
 1628.1 1493 l 1,13,-1
 1607.31 1386 l 1,14,-1
 1439.31 1386 l 1,15,-1
 688.87 823 l 1,16,-1
 1266.5 106 l 1,17,-1
 1436.5 106 l 1,18,-1
 1415.9 0 l 1,19,-1
 1068.9 0 l 1,20,-1
 498.711 709 l 1,21,-1
 381.499 106 l 1,22,-1
 571.499 106 l 1,23,-1
 550.896 0 l 1,24,-1
 -32.1045 0 l 1,0,-1
EndSplineSet
EndChar
StartChar: L
Encoding: 76 76 76
Width: 1360
Flags: W
AnchorPoint: "below" 614.896 0 basechar 0
AnchorPoint: "above" 545.662 1465 basechar 0
LayerCount: 2
Fore
SplineSet
-32.1045 0 m 1,0,-1
 -11.501 106 l 1,1,-1
 178.499 106 l 1,2,-1
 427.307 1386 l 1,3,-1
 237.307 1386 l 1,4,-1
 258.104 1493 l 1,5,-1
 841.104 1493 l 1,6,-1
 820.307 1386 l 1,7,-1
 630.307 1386 l 1,8,-1
 384.804 123 l 1,9,-1
 1066.8 123 l 1,10,-1
 1115.4 373 l 1,11,-1
 1238.4 373 l 1,12,-1
 1165.9 0 l 1,13,-1
 -32.1045 0 l 1,0,-1
EndSplineSet
EndChar
StartChar: M
Encoding: 77 77 77
Width: 2097
Flags: W
AnchorPoint: "above" 1187.66 1465 basechar 0
AnchorPoint: "below" 902.896 0 basechar 0
LayerCount: 2
Fore
SplineSet
-32.1045 0 m 1,0,-1
 -11.501 106 l 1,1,-1
 178.499 106 l 1,2,-1
 427.307 1386 l 1,3,-1
 226.307 1386 l 1,4,-1
 247.104 1493 l 1,5,-1
 682.104 1493 l 1,6,-1
 999.479 430 l 1,7,-1
 1730.1 1493 l 1,8,-1
 2138.1 1493 l 1,9,-1
 2117.31 1386 l 1,10,-1
 1918.31 1386 l 1,11,-1
 1669.5 106 l 1,12,-1
 1860.5 106 l 1,13,-1
 1839.9 0 l 1,14,-1
 1255.9 0 l 1,15,-1
 1276.5 106 l 1,16,-1
 1466.5 106 l 1,17,-1
 1690.81 1260 l 1,18,-1
 976.465 219 l 1,19,-1
 835.465 219 l 1,20,-1
 525.814 1260 l 1,21,-1
 301.499 106 l 1,22,-1
 491.499 106 l 1,23,-1
 470.896 0 l 1,24,-1
 -32.1045 0 l 1,0,-1
EndSplineSet
EndChar
StartChar: N
Encoding: 78 78 78
Width: 1792
Flags: W
AnchorPoint: "below" 728.714 0 basechar 0
AnchorPoint: "above" 1007 1464 basechar 0
LayerCount: 2
Fore
SplineSet
-42.2861 0 m 1,0,-1
 -21.6816 106 l 1,1,-1
 179.318 106 l 1,2,-1
 428.125 1386 l 1,3,-1
 227.125 1386 l 1,4,-1
 247.924 1493 l 1,5,-1
 630.924 1493 l 1,6,-1
 1296.94 315 l 1,7,-1
 1505.12 1386 l 1,8,-1
 1305.12 1386 l 1,9,-1
 1325.92 1493 l 1,10,-1
 1849.92 1493 l 1,11,-1
 1829.12 1386 l 1,12,-1
 1628.12 1386 l 1,13,-1
 1353.08 -29 l 1,14,-1
 1232.08 -29 l 1,15,-1
 520.607 1229 l 1,16,-1
 302.318 106 l 1,17,-1
 503.318 106 l 1,18,-1
 482.714 0 l 1,19,-1
 -42.2861 0 l 1,0,-1
EndSplineSet
EndChar
StartChar: O
Encoding: 79 79 79
Width: 1679
Flags: W
AnchorPoint: "above" 979.856 1465 basechar 0
AnchorPoint: "below" 695.09 0 basechar 0
LayerCount: 2
Fore
SplineSet
710.251 78 m 0,0,1
 955.251 78 955.251 78 1113 246.5 c 128,-1,2
 1270.76 415 1270.76 415 1334.9 745 c 0,3,4
 1399.24 1076 1399.24 1076 1307 1244.5 c 128,-1,5
 1214.75 1413 1214.75 1413 969.749 1413 c 0,6,7
 723.749 1413 723.749 1413 565.996 1244.5 c 128,-1,8
 408.243 1076 408.243 1076 343.902 745 c 0,9,10
 279.757 415 279.757 415 372.004 246.5 c 128,-1,11
 464.251 78 464.251 78 710.251 78 c 0,0,1
689.452 -29 m 0,12,13
 537.452 -29 537.452 -29 419.672 21 c 128,-1,14
 301.891 71 301.891 71 223.745 168 c 0,15,16
 133.516 280 133.516 280 106.618 422 c 128,-1,17
 79.7197 564 79.7197 564 114.902 745 c 128,-1,18
 150.086 926 150.086 926 232.285 1068.5 c 128,-1,19
 314.484 1211 314.484 1211 448.255 1323 c 0,20,21
 565.304 1421 565.304 1421 700.926 1470.5 c 128,-1,22
 836.548 1520 836.548 1520 990.548 1520 c 0,23,24
 1315.55 1520 1315.55 1520 1474.14 1307 c 128,-1,25
 1632.74 1094 1632.74 1094 1564.9 745 c 0,26,27
 1530.11 566 1530.11 566 1447.21 422.5 c 128,-1,28
 1364.32 279 1364.32 279 1230.75 168 c 0,29,30
 1113.7 70 1113.7 70 978.074 20.5 c 128,-1,31
 842.452 -29 842.452 -29 689.452 -29 c 0,12,13
EndSplineSet
EndChar
StartChar: P
Encoding: 80 80 80
Width: 1378
Flags: W
AnchorPoint: "above" 882.662 1465 basechar 0
AnchorPoint: "below" 260.896 0 basechar 0
LayerCount: 2
Fore
SplineSet
508.624 760 m 1,0,-1
 772.624 760 l 2,1,2
 921.624 760 921.624 760 1015.27 840.5 c 128,-1,3
 1108.92 921 1108.92 921 1138.46 1073 c 0,4,5
 1168.21 1226 1168.21 1226 1105.76 1306 c 128,-1,6
 1043.31 1386 1043.31 1386 894.307 1386 c 2,7,-1
 630.307 1386 l 1,8,-1
 508.624 760 l 1,0,-1
-32.1045 0 m 1,9,-1
 -11.501 106 l 1,10,-1
 178.499 106 l 1,11,-1
 427.307 1386 l 1,12,-1
 237.307 1386 l 1,13,-1
 258.104 1493 l 1,14,-1
 964.104 1493 l 2,15,16
 1188.1 1493 1188.1 1493 1297.04 1379.5 c 128,-1,17
 1405.98 1266 1405.98 1266 1368.46 1073 c 0,18,19
 1331.14 881 1331.14 881 1177.98 767 c 128,-1,20
 1024.83 653 1024.83 653 800.825 653 c 2,21,-1
 487.825 653 l 1,22,-1
 381.499 106 l 1,23,-1
 612.499 106 l 1,24,-1
 591.896 0 l 1,25,-1
 -32.1045 0 l 1,9,-1
EndSplineSet
EndChar
StartChar: Q
Encoding: 81 81 81
Width: 1679
Flags: W
AnchorPoint: "below" 660.004 -330 basechar 0
AnchorPoint: "above" 1008.92 1465 basechar 0
LayerCount: 2
Fore
SplineSet
742.51 -29 m 1,0,1
 399.51 -29 399.51 -29 237.43 181.5 c 0,2,3
 123.56 329.39 123.56 329.39 123.56 547.62 c 0,4,5
 123.56 640.01 123.56 640.01 143.96 745 c 0,6,7
 179.15 926 179.15 926 261.35 1068.5 c 128,-1,8
 343.54 1211 343.54 1211 477.31 1323 c 0,9,10
 594.36 1421 594.36 1421 729.98 1470.5 c 128,-1,11
 865.61 1520 865.61 1520 1019.61 1520 c 0,12,13
 1344.61 1520 1344.61 1520 1503.2 1307 c 0,14,15
 1614.29 1157.81 1614.29 1157.81 1614.29 941.91 c 0,16,17
 1614.29 849.56 1614.29 849.56 1593.96 745 c 0,18,19
 1536.43 449 1536.43 449 1347.26 247.5 c 0,20,21
 1158.09 46 1158.09 46 882.82 -12 c 1,22,23
 923.79 -79 923.79 -79 995.07 -111 c 0,24,25
 1066.35 -143 1066.35 -143 1175.35 -143 c 2,26,-1
 1425.35 -143 l 1,27,-1
 1389.39 -328 l 1,28,-1
 1272.39 -328 l 2,29,30
 1007.1 -328 1007.1 -328 896.93 -245.5 c 0,31,32
 788.67 -164.44 788.67 -164.44 742.51 -29 c 1,0,1
739.31 78 m 0,33,34
 984.31 78 984.31 78 1142.06 246.5 c 0,35,36
 1299.82 415 1299.82 415 1363.96 745 c 0,37,38
 1390.4 881 1390.4 881 1390.4 989.57 c 0,39,40
 1390.4 1145.23 1390.4 1145.23 1336.06 1244.5 c 0,41,42
 1243.81 1413 1243.81 1413 998.81 1413 c 0,43,44
 752.81 1413 752.81 1413 595.06 1244.5 c 128,-1,45
 437.3 1076 437.3 1076 372.96 745 c 0,46,47
 346.65 609.65 346.65 609.65 346.66 501.46 c 0,48,49
 346.66 345.89 346.66 345.89 401.06 246.5 c 0,50,51
 493.31 78 493.31 78 739.31 78 c 0,33,34
EndSplineSet
EndChar
StartChar: R
Encoding: 82 82 82
Width: 1542
Flags: W
AnchorPoint: "below" 585.896 0 basechar 0
AnchorPoint: "above" 876.5 1465 basechar 0
LayerCount: 2
Fore
SplineSet
979.931 741 m 1,0,1
 1046.24 722 1046.24 722 1087.89 676.5 c 128,-1,2
 1129.55 631 1129.55 631 1153.61 549 c 2,3,-1
 1284.5 106 l 1,4,-1
 1466.5 106 l 1,5,-1
 1445.9 0 l 1,6,-1
 1093.9 0 l 1,7,-1
 953.226 475 l 1,8,9
 913.05 613 913.05 613 864.923 653.5 c 128,-1,10
 816.795 694 816.795 694 718.795 694 c 2,11,-1
 495.795 694 l 1,12,-1
 381.499 106 l 1,13,-1
 592.499 106 l 1,14,-1
 571.896 0 l 1,15,-1
 -32.1045 0 l 1,16,-1
 -11.501 106 l 1,17,-1
 178.499 106 l 1,18,-1
 427.307 1386 l 1,19,-1
 237.307 1386 l 1,20,-1
 258.104 1493 l 1,21,-1
 1015.1 1493 l 2,22,23
 1233.1 1493 1233.1 1493 1331.39 1389 c 128,-1,24
 1429.67 1285 1429.67 1285 1392.55 1094 c 0,25,26
 1362.61 940 1362.61 940 1258.91 851.5 c 128,-1,27
 1155.21 763 1155.21 763 979.931 741 c 1,0,1
516.594 801 m 1,28,-1
 811.594 801 l 2,29,30
 962.594 801 962.594 801 1048.49 872.5 c 128,-1,31
 1134.39 944 1134.39 944 1163.55 1094 c 128,-1,33
 1192.7 1244 1192.7 1244 1134.5 1315 c 128,-1,34
 1076.31 1386 1076.31 1386 925.307 1386 c 2,35,-1
 630.307 1386 l 1,36,-1
 516.594 801 l 1,28,-1
EndSplineSet
EndChar
StartChar: S
Encoding: 83 83 83
Width: 1403
Flags: W
AnchorPoint: "below" 557.09 0 basechar 0
AnchorPoint: "above" 847.5 1465 basechar 0
LayerCount: 2
Fore
SplineSet
59.085 72 m 1,0,-1
 125.174 412 l 1,1,-1
 239.979 411 l 1,2,3
 211.936 241 211.936 241 289.593 159.5 c 128,-1,4
 367.251 78 367.251 78 558.251 78 c 0,5,6
 736.251 78 736.251 78 843.455 148.5 c 128,-1,7
 950.659 219 950.659 219 976.9 354 c 0,8,9
 997.894 462 997.894 462 952.667 520 c 128,-1,10
 907.441 578 907.441 578 736.132 633 c 2,11,-1
 550.601 692 l 2,12,13
 349.235 757 349.235 757 280.59 854 c 128,-1,14
 211.945 951 211.945 951 244.796 1120 c 0,15,16
 281.728 1310 281.728 1310 437.138 1415 c 128,-1,17
 592.548 1520 592.548 1520 836.548 1520 c 0,18,19
 940.548 1520 940.548 1520 1060.17 1497.5 c 128,-1,20
 1179.8 1475 1179.8 1475 1311.44 1432 c 1,21,-1
 1249.63 1114 l 1,22,-1
 1136.63 1114 l 1,23,24
 1150.34 1272 1150.34 1272 1075.54 1342.5 c 128,-1,25
 1000.75 1413 1000.75 1413 819.749 1413 c 0,26,27
 661.749 1413 661.749 1413 566.711 1348.5 c 128,-1,28
 471.674 1284 471.674 1284 447.765 1161 c 0,29,30
 426.967 1054 426.967 1054 477.109 993 c 128,-1,31
 527.252 932 527.252 932 716.589 872 c 2,32,-1
 890.898 817 l 2,33,34
 1082.04 756 1082.04 756 1150.17 661.5 c 128,-1,35
 1218.3 567 1218.3 567 1187.4 408 c 0,36,37
 1145.22 191 1145.22 191 984.834 81 c 128,-1,38
 824.452 -29 824.452 -29 549.452 -29 c 0,39,40
 426.452 -29 426.452 -29 303.812 -4 c 128,-1,41
 181.172 21 181.172 21 59.085 72 c 1,0,-1
EndSplineSet
EndChar
StartChar: T
Encoding: 84 84 84
Width: 1366
Flags: W
AnchorPoint: "below" 531.896 0 basechar 0
AnchorPoint: "above" 822.5 1465 basechar 0
LayerCount: 2
Fore
SplineSet
245.896 0 m 1,0,-1
 266.499 106 l 1,1,-1
 457.499 106 l 1,2,-1
 703.974 1374 l 1,3,-1
 264.974 1374 l 1,4,-1
 219.683 1141 l 1,5,-1
 96.6826 1141 l 1,6,-1
 165.104 1493 l 1,7,-1
 1491.1 1493 l 1,8,-1
 1422.68 1141 l 1,9,-1
 1299.68 1141 l 1,10,-1
 1344.97 1374 l 1,11,-1
 905.974 1374 l 1,12,-1
 659.499 106 l 1,13,-1
 850.499 106 l 1,14,-1
 829.896 0 l 1,15,-1
 245.896 0 l 1,0,-1
EndSplineSet
EndChar
StartChar: U
Encoding: 85 85 85
Width: 1726
Flags: W
AnchorPoint: "below" 760.714 0 basechar 0
AnchorPoint: "above" 1048.5 1465 basechar 0
LayerCount: 2
Fore
SplineSet
414.125 1386 m 1,0,-1
 223.125 1386 l 1,1,-1
 243.924 1493 l 1,2,-1
 827.924 1493 l 1,3,-1
 807.125 1386 l 1,4,-1
 616.125 1386 l 1,5,-1
 466.063 614 l 2,6,7
 410.471 328 410.471 328 482.006 215 c 128,-1,8
 553.54 102 553.54 102 782.54 102 c 0,9,10
 1011.54 102 1011.54 102 1127.01 215 c 128,-1,11
 1242.47 328 1242.47 328 1298.06 614 c 2,12,-1
 1448.12 1386 l 1,13,-1
 1257.12 1386 l 1,14,-1
 1277.92 1493 l 1,15,-1
 1781.92 1493 l 1,16,-1
 1761.12 1386 l 1,17,-1
 1571.12 1386 l 1,18,-1
 1417.18 594 l 2,19,20
 1350.89 253 1350.89 253 1192.48 112 c 128,-1,21
 1034.08 -29 1034.08 -29 720.076 -29 c 0,22,23
 406.076 -29 406.076 -29 300.179 113 c 128,-1,24
 194.28 255 194.28 255 260.176 594 c 2,25,-1
 414.125 1386 l 1,0,-1
EndSplineSet
EndChar
StartChar: V
Encoding: 86 86 86
Width: 1479
Flags: W
AnchorPoint: "below" 593.896 0 basechar 0
AnchorPoint: "above" 878.662 1465 basechar 0
LayerCount: 2
Fore
SplineSet
482.307 1386 m 1,0,-1
 700.546 240 l 1,1,-1
 1363.31 1386 l 1,2,-1
 1195.31 1386 l 1,3,-1
 1216.1 1493 l 1,4,-1
 1654.1 1493 l 1,5,-1
 1633.31 1386 l 1,6,-1
 1488.31 1386 l 1,7,-1
 685.896 0 l 1,8,-1
 513.896 0 l 1,9,-1
 253.307 1386 l 1,10,-1
 104.307 1386 l 1,11,-1
 125.104 1493 l 1,12,-1
 669.104 1493 l 1,13,-1
 648.307 1386 l 1,14,-1
 482.307 1386 l 1,0,-1
EndSplineSet
EndChar
StartChar: W
Encoding: 87 87 87
Width: 2105
Flags: W
AnchorPoint: "below" 908.896 0 basechar 0
AnchorPoint: "above" 1177 1465 basechar 0
LayerCount: 2
Fore
SplineSet
1415.9 0 m 1,0,-1
 1251.9 0 l 1,1,-1
 1145.87 1214 l 1,2,-1
 567.896 0 l 1,3,-1
 403.896 0 l 1,4,-1
 282.307 1386 l 1,5,-1
 134.307 1386 l 1,6,-1
 155.104 1493 l 1,7,-1
 700.104 1493 l 1,8,-1
 679.307 1386 l 1,9,-1
 493.307 1386 l 1,10,-1
 589.904 283 l 1,11,-1
 1165.1 1493 l 1,12,-1
 1327.1 1493 l 1,13,-1
 1435.38 270 l 1,14,-1
 1965.31 1386 l 1,15,-1
 1793.31 1386 l 1,16,-1
 1814.1 1493 l 1,17,-1
 2244.1 1493 l 1,18,-1
 2223.31 1386 l 1,19,-1
 2076.31 1386 l 1,20,-1
 1415.9 0 l 1,0,-1
EndSplineSet
EndChar
StartChar: X
Encoding: 88 88 88
Width: 1458
Flags: W
AnchorPoint: "below" 583.896 0 basechar 0
AnchorPoint: "above" 871 1465 basechar 0
LayerCount: 2
Fore
SplineSet
657.104 639 m 1,0,-1
 188.499 106 l 1,1,-1
 381.499 106 l 1,2,-1
 360.896 0 l 1,3,-1
 -133.104 0 l 1,4,-1
 -112.501 106 l 1,5,-1
 59.499 106 l 1,6,-1
 611.376 733 l 1,7,-1
 302.307 1386 l 1,8,-1
 142.307 1386 l 1,9,-1
 163.104 1493 l 1,10,-1
 755.104 1493 l 1,11,-1
 734.307 1386 l 1,12,-1
 558.307 1386 l 1,13,-1
 784.81 905 l 1,14,-1
 1207.31 1386 l 1,15,-1
 1015.31 1386 l 1,16,-1
 1036.1 1493 l 1,17,-1
 1525.1 1493 l 1,18,-1
 1504.31 1386 l 1,19,-1
 1336.31 1386 l 1,20,-1
 829.537 811 l 1,21,-1
 1163.5 106 l 1,22,-1
 1323.5 106 l 1,23,-1
 1302.9 0 l 1,24,-1
 710.896 0 l 1,25,-1
 731.499 106 l 1,26,-1
 909.499 106 l 1,27,-1
 657.104 639 l 1,0,-1
EndSplineSet
EndChar
StartChar: Y
Encoding: 89 89 89
Width: 1352
Flags: W
AnchorPoint: "below" 527.896 0 basechar 0
AnchorPoint: "above" 794 1465 basechar 0
LayerCount: 2
Fore
SplineSet
241.896 0 m 1,0,-1
 262.499 106 l 1,1,-1
 453.499 106 l 1,2,-1
 557.882 643 l 1,3,-1
 241.307 1386 l 1,4,-1
 101.307 1386 l 1,5,-1
 122.104 1493 l 1,6,-1
 677.104 1493 l 1,7,-1
 656.307 1386 l 1,8,-1
 482.307 1386 l 1,9,-1
 737.9 782 l 1,10,-1
 1228.31 1386 l 1,11,-1
 1060.31 1386 l 1,12,-1
 1081.1 1493 l 1,13,-1
 1515.1 1493 l 1,14,-1
 1494.31 1386 l 1,15,-1
 1353.31 1386 l 1,16,-1
 763.575 662 l 1,17,-1
 655.499 106 l 1,18,-1
 846.499 106 l 1,19,-1
 825.896 0 l 1,20,-1
 241.896 0 l 1,0,-1
EndSplineSet
EndChar
StartChar: Z
Encoding: 90 90 90
Width: 1423
Flags: W
AnchorPoint: "below" 567.896 0 basechar 0
AnchorPoint: "above" 858 1465 basechar 0
LayerCount: 2
Fore
SplineSet
-53 0 m 1,0,-1
 -39 72 l 1,1,-1
 1143 1370 l 1,2,-1
 371 1370 l 1,3,-1
 328 1147 l 1,4,-1
 205 1147 l 1,5,-1
 272 1493 l 1,6,-1
 1452 1493 l 1,7,-1
 1438 1421 l 1,8,-1
 256 123 l 1,9,-1
 1100 123 l 1,10,-1
 1140 332 l 1,11,-1
 1262 332 l 1,12,-1
 1198 0 l 1,13,-1
 -53 0 l 1,0,-1
EndSplineSet
EndChar
StartChar: bracketleft
Encoding: 91 91 91
Width: 799
Flags: W
LayerCount: 2
Fore
SplineSet
353.469 1556 m 1,0,-1
 818.469 1556 l 1,1,-1
 797.865 1450 l 1,2,-1
 523.865 1450 l 1,3,-1
 210.135 -164 l 1,4,-1
 484.135 -164 l 1,5,-1
 463.531 -270 l 1,6,-1
 -1.46875 -270 l 1,7,-1
 353.469 1556 l 1,0,-1
EndSplineSet
EndChar
StartChar: backslash
Encoding: 92 92 92
Width: 690
Flags: W
LayerCount: 2
Fore
SplineSet
323.571 1493 m 1,0,-1
 526.429 -190 l 1,1,-1
 366.429 -190 l 1,2,-1
 163.571 1493 l 1,3,-1
 323.571 1493 l 1,0,-1
EndSplineSet
EndChar
StartChar: bracketright
Encoding: 93 93 93
Width: 799
Flags: W
LayerCount: 2
Fore
SplineSet
800.469 1556 m 1,0,-1
 445.531 -270 l 1,1,-1
 -19.4688 -270 l 1,2,-1
 1.13477 -164 l 1,3,-1
 275.135 -164 l 1,4,-1
 588.865 1450 l 1,5,-1
 314.865 1450 l 1,6,-1
 335.469 1556 l 1,7,-1
 800.469 1556 l 1,0,-1
EndSplineSet
EndChar
StartChar: asciicircum
Encoding: 94 94 94
Width: 1716
Flags: W
LayerCount: 2
Fore
SplineSet
956 1493 m 1,0,-1
 1499 936 l 1,1,-1
 1346 936 l 1,2,-1
 858 1317 l 1,3,-1
 371 936 l 1,4,-1
 217 936 l 1,5,-1
 760 1493 l 1,6,-1
 956 1493 l 1,0,-1
EndSplineSet
EndChar
StartChar: underscore
Encoding: 95 95 95
Width: 1024
Flags: W
LayerCount: 2
Fore
SplineSet
1024 -403 m 1,0,-1
 1024 -483 l 1,1,-1
 0 -483 l 1,2,-1
 0 -403 l 1,3,-1
 1024 -403 l 1,0,-1
EndSplineSet
EndChar
StartChar: grave
Encoding: 96 96 96
Width: 1024
Flags: W
LayerCount: 2
Fore
SplineSet
564 1636 m 1,0,-1
 750 1260 l 1,1,-1
 633 1260 l 1,2,-1
 367 1636 l 1,3,-1
 564 1636 l 1,0,-1
EndSplineSet
EndChar
StartChar: a
Encoding: 97 97 97
Width: 1221
Flags: W
AnchorPoint: "below" 466 0 basechar 0
AnchorPoint: "above" 677 1092 basechar 0
LayerCount: 2
Fore
SplineSet
743.952 166 m 1,0,1
 610.52 -29 610.52 -29 396.447 -29 c 0,2,3
 220.055 -29 220.055 -29 131.199 90.3467 c 0,4,5
 68.6153 174.409 68.6153 174.409 68.6153 294.442 c 0,6,7
 68.6153 344.832 68.6153 344.832 79.6445 401.567 c 0,8,9
 148.427 755.414 148.427 755.414 393.819 937 c 0,10,11
 603.316 1092.02 603.316 1092.02 856.022 1092.02 c 0,12,13
 1025.64 1092.02 1025.64 1092.02 1084.31 1063 c 9,14,-1
 898.29 106 l 1,15,-1
 1056.29 106 l 1,16,-1
 1035.69 0 l 1,17,-1
 711.69 0 l 1,18,-1
 743.952 166 l 1,0,1
263.392 299.999 m 0,19,20
 263.392 86 263.392 86 470.098 86 c 0,21,22
 596.098 86 596.098 86 681.788 186.5 c 128,-1,23
 767.474 287.008 767.474 287.008 804.793 479 c 2,24,-1
 898.484 961 l 1,25,-1
 898.489 961.451 l 2,26,27
 898.489 990 898.489 990 818.121 990 c 0,28,29
 626.121 990 626.121 990 476.965 840 c 0,30,31
 329.029 689.033 329.029 689.033 275.74 414.925 c 0,32,33
 263.392 351.409 263.392 351.409 263.392 299.999 c 0,19,20
EndSplineSet
EndChar
StartChar: b
Encoding: 98 98 98
Width: 1311
Flags: W
AnchorPoint: "below" 582.534 10 basechar 0
AnchorPoint: "above" 478.159 1536 basechar 0
LayerCount: 2
Fore
SplineSet
369.44 1450 m 1,0,-1
 192.44 1450 l 1,1,-1
 213.05 1556 l 1,2,-1
 574.05 1556 l 1,3,-1
 445.95 897 l 1,4,5
 519.39 997 519.39 997 612.12 1044.5 c 128,-1,6
 704.85 1092 704.85 1092 827.85 1092 c 0,7,8
 1023.85 1092 1023.85 1092 1117.72 937 c 0,9,10
 1179.58 834.87 1179.58 834.87 1179.58 691.5 c 0,11,12
 1179.58 617.28 1179.58 617.28 1163 532 c 0,13,14
 1114.41 282 1114.41 282 960.18 126.5 c 128,-1,16
 805.95 -29 805.95 -29 609.95 -29 c 0,17,18
 486.95 -29 486.95 -29 412.69 18.5 c 128,-1,20
 338.42 66 338.42 66 303.86 166 c 1,21,-1
 271.59 0 l 1,22,-1
 87.59 0 l 1,23,-1
 369.44 1450 l 1,0,-1
364.7 479 m 2,24,25
 349.44 400.5 349.44 400.5 349.44 337.3 c 0,26,27
 349.44 245.91 349.44 245.91 381.34 186.5 c 0,28,29
 435.31 86 435.31 86 575.31 86 c 0,30,31
 716.31 86 716.31 86 810.77 199 c 128,-1,33
 905.24 312 905.24 312 948 532 c 0,34,35
 967.7 633.34 967.7 633.34 967.7 711.75 c 0,36,37
 967.7 804.36 967.7 804.36 940.23 865 c 0,38,39
 889.5 977 889.5 977 748.5 977 c 0,40,41
 608.5 977 608.5 977 515.37 876 c 128,-1,42
 422.24 775 422.24 775 385.11 584 c 2,43,-1
 364.7 479 l 2,24,25
EndSplineSet
EndChar
StartChar: c
Encoding: 99 99 99
Width: 1147
Flags: W
AnchorPoint: "below" 514.631 10 basechar 0
AnchorPoint: "above" 724 1092 basechar 0
LayerCount: 2
Fore
SplineSet
1011.69 319 m 1,0,1
 939.65 149 939.65 149 811.35 60 c 128,-1,2
 683.05 -29 683.05 -29 507.05 -29 c 0,3,4
 275.05 -29 275.05 -29 163.89 124.5 c 0,5,6
 86.91 230.79 86.91 230.79 86.91 385.26 c 0,7,8
 86.91 453.88 86.91 453.88 102.1 532 c 0,9,10
 151.66 787 151.66 787 322.31 939.5 c 128,-1,11
 492.95 1092 492.95 1092 724.95 1092 c 0,12,13
 825.95 1092 825.95 1092 921.38 1068.5 c 128,-1,14
 1016.81 1045 1016.81 1045 1108.48 997 c 1,15,-1
 1055.61 725 l 1,16,-1
 948.61 725 l 1,17,18
 949.21 738.55 949.21 738.55 949.21 751.38 c 0,19,20
 949.21 871.19 949.21 871.19 896.77 929 c 0,21,22
 838.71 993 838.71 993 707.71 993 c 0,23,24
 558.71 993 558.71 993 460.26 877.5 c 128,-1,25
 361.8 762 361.8 762 317.1 532 c 0,26,27
 296.63 426.7 296.63 426.7 296.63 345.3 c 0,28,29
 296.63 248.89 296.63 248.89 325.34 186 c 0,30,31
 378.29 70 378.29 70 528.29 70 c 0,32,33
 647.29 70 647.29 70 730.34 132 c 128,-1,34
 813.4 194 813.4 194 863.69 319 c 1,35,-1
 1011.69 319 l 1,0,1
EndSplineSet
EndChar
StartChar: d
Encoding: 100 100 100
Width: 1311
Flags: W
AnchorPoint: "below" 420.591 0 basechar 0
AnchorPoint: "above" 1133.16 1536 basechar 0
LayerCount: 2
Fore
SplineSet
1229.05 1556 m 1,0,-1
 926.59 0 l 1,1,-1
 742.59 0 l 1,2,-1
 774.86 166 l 1,3,4
 701.42 66 701.42 66 608.69 18.5 c 0,5,6
 515.95 -29 515.95 -29 392.95 -29 c 0,7,8
 196.95 -29 196.95 -29 102.68 126.5 c 0,9,10
 40.47 229.11 40.47 229.11 40.47 372.87 c 0,11,12
 40.47 446.97 40.47 446.97 57 532 c 0,13,14
 105.6 782 105.6 782 259.72 937 c 0,15,16
 413.85 1092 413.85 1092 610.85 1092 c 0,17,18
 733.85 1092 733.85 1092 808.12 1044.5 c 128,-1,19
 882.39 997 882.39 997 916.95 897 c 1,20,-1
 1024.44 1450 l 1,21,-1
 850.44 1450 l 1,22,-1
 871.05 1556 l 1,23,-1
 1229.05 1556 l 1,0,-1
835.7 479 m 2,24,-1
 856.11 584 l 2,25,26
 871.26 661.93 871.26 661.93 871.26 724.88 c 0,27,28
 871.26 816.21 871.26 816.21 839.37 876 c 0,29,30
 785.5 977 785.5 977 645.5 977 c 0,31,32
 503.5 977 503.5 977 409.23 865 c 0,33,34
 314.96 753 314.96 753 272 532 c 0,35,36
 252.4 431.16 252.4 431.16 252.4 352.8 c 0,37,38
 252.4 260.21 252.4 260.21 279.77 199 c 0,39,40
 330.31 86 330.31 86 472.31 86 c 0,41,42
 612.31 86 612.31 86 705.34 186.5 c 0,43,44
 798.38 287 798.38 287 835.7 479 c 2,24,-1
EndSplineSet
EndChar
StartChar: e
Encoding: 101 101 101
Width: 1212
Flags: W
AnchorPoint: "below" 502.687 0 basechar 0
AnchorPoint: "above" 714 1092 basechar 0
LayerCount: 2
Fore
SplineSet
300 408 m 1,0,1
 296 370 296 370 296 336 c 0,2,3
 296 242 296 242 330 180 c 0,4,5
 389 70 389 70 547 70 c 0,6,7
 663 70 663 70 720 105 c 0,8,9
 822 168 822 168 846 249 c 1,10,-1
 981 249 l 1,11,12
 941 122 941 122 792 33 c 0,13,14
 688 -29 688 -29 482 -29 c 128,-1,15
 276 -29 276 -29 165 124 c 0,16,17
 87 231 87 231 87 386 c 0,18,19
 87 454 87 454 102 531 c 0,20,21
 151 784 151 784 320 938 c 128,-1,22
 489 1092 489 1092 729 1092 c 0,23,24
 1120 1092 1120 1092 1120 815 c 0,25,26
 1120 612 1120 612 915 513 c 0,27,28
 706 412 706 412 300 408 c 1,0,1
813 632 m 16,29,30
 925 698 925 698 925 822 c 0,31,32
 925 993 925 993 698 993 c 0,33,34
 564 993 564 993 471 891 c 128,-1,35
 378 789 378 789 321 514 c 1,36,37
 642 529 642 529 813 632 c 16,29,30
EndSplineSet
EndChar
StartChar: f
Encoding: 102 102 102
Width: 758
Flags: W
AnchorPoint: "below" 40.0234 -430 basechar 0
AnchorPoint: "above" 749.176 1536 basechar 0
LayerCount: 2
Fore
SplineSet
1020.27 1305 m 1,0,-1
 923.272 1305 l 1,1,2
 927.155 1326.45 927.155 1326.45 927.154 1344.94 c 0,3,4
 927.154 1391.15 927.154 1391.15 902.934 1419 c 0,5,6
 869.015 1458 869.015 1458 790.015 1458 c 0,7,8
 687.015 1458 687.015 1458 634.031 1401.5 c 128,-1,9
 581.048 1345 581.048 1345 552.863 1200 c 2,10,-1
 526.232 1063 l 1,11,-1
 823.232 1063 l 1,12,-1
 802.436 956 l 1,13,-1
 505.436 956 l 1,14,-1
 306.777 -66 l 2,15,16
 272.179 -243.997 272.179 -243.997 161.99 -335 c 128,-1,17
 51.8018 -426 51.8018 -426 -127.197 -426 c 1,18,-1
 -115.15 -328 l 1,19,20
 -10.0928 -328 -10.0928 -328 40.833 -271.5 c 0,21,22
 94.3809 -212.091 94.3809 -212.091 122.777 -66 c 2,23,-1
 321.436 956 l 1,24,-1
 145.436 956 l 1,25,-1
 166.232 1063 l 1,26,-1
 342.232 1063 l 1,27,-1
 368.086 1196 l 2,28,29
 402.827 1374.72 402.827 1374.72 512.874 1465 c 0,30,31
 623.062 1556 623.062 1556 802.062 1556 c 0,32,33
 869.062 1556 869.062 1556 933.729 1544 c 128,-1,34
 998.398 1532 998.398 1532 1059.54 1507 c 1,35,-1
 1020.27 1305 l 1,0,-1
EndSplineSet
EndChar
StartChar: g
Encoding: 103 103 103
Width: 1311
Flags: W
AnchorPoint: "below" 458.506 -430 basechar 0
AnchorPoint: "above" 712 1092 basechar 0
LayerCount: 2
Fore
SplineSet
1222.53 1063 m 1,0,-1
 1020.38 23 l 2,1,2
 974.054 -215.333 974.054 -215.333 825.666 -330.5 c 0,3,4
 665.254 -455 665.254 -455 442.466 -455 c 0,5,6
 337.465 -455 337.465 -455 245.158 -436 c 128,-1,7
 152.852 -417 152.852 -417 72.2383 -379 c 1,8,-1
 115.585 -156 l 1,9,-1
 211.585 -156 l 1,10,11
 209.369 -260 209.369 -260 267.039 -308 c 128,-1,12
 324.709 -356 324.709 -356 449.709 -356 c 0,13,14
 611.709 -356 611.709 -356 704.994 -264.5 c 0,15,16
 798.157 -173.625 798.157 -173.625 836.379 23 c 2,17,-1
 864.177 166 l 1,18,19
 790.737 66 790.737 66 698.005 18.5 c 128,-1,20
 605.271 -29 605.271 -29 487.976 -29 c 24,21,22
 311.585 -29 311.585 -29 222.725 90.3467 c 0,23,24
 166.975 165.228 166.975 165.228 160.885 268.644 c 0,25,26
 157.274 330.067 157.274 330.067 171.175 401.567 c 0,27,28
 239.955 755.414 239.955 755.414 485.346 937 c 0,29,30
 694.075 1091.45 694.075 1091.45 938.476 1092 c 0,31,32
 1161.89 1092.79 1161.89 1092.79 1222.53 1063 c 1,0,-1
1018.74 956 m 9,33,34
 1018.47 990 1018.47 990 909.646 990 c 0,35,36
 715.487 990 715.487 990 568.495 840 c 0,37,38
 420.556 689.033 420.556 689.033 367.265 414.925 c 0,39,40
 351.585 334.277 351.585 334.277 355.815 273.147 c 0,41,42
 360.095 211.266 360.095 211.266 384.775 169.338 c 0,43,44
 433.835 86 433.835 86 561.625 86 c 24,45,46
 701.625 86 701.625 86 794.66 186.5 c 128,-1,47
 887.696 287 887.696 287 925.018 479 c 2,48,-1
 945.428 584 l 17,49,-1
 1018.74 956 l 9,33,34
EndSplineSet
AlternateSubs2: "'aalt' Access All Alternates" g.alt
Substitution2: "'salt' Stylistic Alternatives" g.alt
EndChar
StartChar: h
Encoding: 104 104 104
Width: 1319
Flags: W
AnchorPoint: "above" 475.534 1537 basechar 0
AnchorPoint: "below" 521.772 0 basechar 0
LayerCount: 2
Fore
SplineSet
98.77 0 m 1,0,-1
 380.62 1450 l 1,1,-1
 204.62 1450 l 1,2,-1
 225.23 1556 l 1,3,-1
 585.23 1556 l 1,4,-1
 452.66 874 l 1,5,6
 524.65 982 524.65 982 616.84 1037 c 0,7,8
 709.04 1092 709.04 1092 817.04 1092 c 0,9,10
 993.04 1092 993.04 1092 1056.4 991 c 0,11,12
 1094.66 930.03 1094.66 930.03 1094.66 827.87 c 0,13,14
 1094.66 760.81 1094.66 760.81 1078.17 676 c 2,15,-1
 967.38 106 l 1,16,-1
 1131.38 106 l 1,17,-1
 1110.77 0 l 1,18,-1
 761.77 0 l 1,19,-1
 881.9 618 l 2,20,21
 901.99 721.36 901.99 721.36 901.99 790.03 c 0,22,23
 901.99 850.9 901.99 850.9 886.2 884.5 c 0,24,25
 852.6 956 852.6 956 730.6 956 c 0,26,27
 602.6 956 602.6 956 517.52 863 c 0,28,29
 432.45 770 432.45 770 397.85 592 c 2,30,-1
 282.77 0 l 1,31,-1
 98.77 0 l 1,0,-1
EndSplineSet
EndChar
StartChar: i
Encoding: 105 105 105
Width: 655
Flags: W
AnchorPoint: "below" 181.534 0 basechar 0
AnchorPoint: "above" 477.972 1524 basechar 0
LayerCount: 2
Fore
SplineSet
323.31 1393 m 0,0,1
 332.25 1439 332.25 1439 372.36 1473 c 128,-1,3
 412.47 1507 412.47 1507 459.47 1507 c 0,4,5
 505.47 1507 505.47 1507 532.36 1473 c 0,6,7
 552.54 1447.48 552.54 1447.48 552.54 1415.21 c 0,8,9
 552.54 1404.48 552.54 1404.48 550.31 1393 c 0,10,11
 541.17 1346 541.17 1346 501.76 1313 c 128,-1,13
 462.34 1280 462.34 1280 415.34 1280 c 128,-1,14
 368.34 1280 368.34 1280 341.26 1313 c 0,15,16
 321 1337.68 321 1337.68 321 1370.18 c 0,17,18
 321 1381.14 321 1381.14 323.31 1393 c 0,0,1
308.14 106 m 1,19,-1
 482.14 106 l 1,20,-1
 461.53 0 l 1,21,-1
 103.53 0 l 1,22,-1
 289.36 956 l 1,23,-1
 113.36 956 l 1,24,-1
 134.16 1063 l 1,25,-1
 494.16 1063 l 1,26,-1
 308.14 106 l 1,19,-1
EndSplineSet
Substitution2: "Single Substitution - Dotless Form" dotlessi
EndChar
StartChar: j
Encoding: 106 106 106
Width: 635
Flags: W
AnchorPoint: "below" -67.8271 -430 basechar 0
AnchorPoint: "above" 537.972 1524 basechar 0
LayerCount: 2
Fore
SplineSet
373.53 1393 m 0,0,1
 382.47 1439 382.47 1439 422.58 1473 c 0,2,3
 462.69 1507 462.69 1507 509.69 1507 c 0,4,5
 555.69 1507 555.69 1507 582.58 1473 c 0,6,7
 602.76 1447.48 602.76 1447.48 602.76 1415.21 c 0,8,9
 602.76 1404.48 602.76 1404.48 600.53 1393 c 0,10,11
 591.39 1346 591.39 1346 552.48 1313 c 0,12,13
 513.56 1280 513.56 1280 465.56 1280 c 0,14,15
 418.56 1280 418.56 1280 391.48 1313 c 0,16,17
 371.22 1337.68 371.22 1337.68 371.22 1370.18 c 0,18,19
 371.22 1381.15 371.22 1381.15 373.53 1393 c 0,0,1
333.58 956 m 1,20,-1
 159.58 956 l 1,21,-1
 180.38 1063 l 1,22,-1
 538.38 1063 l 1,23,-1
 311.54 -104 l 2,24,25
 279.66 -268 279.66 -268 163.99 -361.5 c 0,26,27
 48.31 -455 48.31 -455 -122.69 -455 c 0,28,29
 -194.69 -455 -194.69 -455 -256.98 -438.5 c 0,30,31
 -319.27 -422 -319.27 -422 -374.86 -389 c 1,32,-1
 -332.29 -170 l 1,33,-1
 -237.29 -170 l 1,34,35
 -240.28 -194.65 -240.28 -194.65 -240.28 -215.93 c 0,36,37
 -240.28 -277.55 -240.28 -277.55 -215.2 -311 c 0,38,39
 -181.44 -356 -181.44 -356 -99.44 -356 c 0,40,41
 -8.44 -356 -8.44 -356 47.01 -294.5 c 0,42,43
 102.47 -233 102.47 -233 127.54 -104 c 2,44,-1
 333.58 956 l 1,20,-1
EndSplineSet
Substitution2: "Single Substitution - Dotless Form" dotlessj
EndChar
StartChar: k
Encoding: 107 107 107
Width: 1241
Flags: W
AnchorPoint: "above" 475.34 1536 basechar 0
AnchorPoint: "below" 506.772 0 basechar 0
LayerCount: 2
Fore
SplineSet
675.84 664 m 1,0,-1
 971.38 106 l 1,1,-1
 1124.38 106 l 1,2,-1
 1103.77 0 l 1,3,-1
 808.77 0 l 1,4,-1
 519.32 543 l 1,5,-1
 348.08 408 l 1,6,-1
 268.77 0 l 1,7,-1
 84.77 0 l 1,8,-1
 366.62 1450 l 1,9,-1
 189.62 1450 l 1,10,-1
 210.23 1556 l 1,11,-1
 571.23 1556 l 1,12,-1
 374.32 543 l 1,13,-1
 902.6 956 l 1,14,-1
 749.6 956 l 1,15,-1
 770.4 1063 l 1,16,-1
 1069.4 1063 l 1,17,-1
 1048.6 956 l 1,18,-1
 675.84 664 l 1,0,-1
EndSplineSet
EndChar
StartChar: l
Encoding: 108 108 108
Width: 655
Flags: W
AnchorPoint: "above" 475.34 1536 basechar 0
AnchorPoint: "below" 176.772 0 basechar 0
LayerCount: 2
Fore
SplineSet
289.38 106 m 1,0,-1
 463.38 106 l 1,1,-1
 442.77 0 l 1,2,-1
 84.77 0 l 1,3,-1
 366.62 1450 l 1,4,-1
 189.62 1450 l 1,5,-1
 210.23 1556 l 1,6,-1
 571.23 1556 l 1,7,-1
 289.38 106 l 1,0,-1
EndSplineSet
EndChar
StartChar: m
Encoding: 109 109 109
Width: 1942
Flags: W
AnchorPoint: "below" 878.868 0 basechar 0
AnchorPoint: "above" 1091.13 1092 basechar 0
LayerCount: 2
Fore
SplineSet
1121.26 856 m 1,0,1
 1197 973 1197 973 1291.07 1032.5 c 0,2,3
 1385.13 1092 1385.13 1092 1495.13 1092 c 0,4,5
 1662.13 1092 1662.13 1092 1724.01 988.5 c 0,6,7
 1761.37 926.02 1761.37 926.02 1761.37 825.09 c 0,8,9
 1761.37 758.83 1761.37 758.83 1745.27 676 c 2,10,-1
 1634.47 106 l 1,11,-1
 1800.47 106 l 1,12,-1
 1779.87 0 l 1,13,-1
 1429.87 0 l 1,14,-1
 1557.19 655 l 2,15,16
 1572.34 732.93 1572.34 732.93 1572.34 789.37 c 0,17,18
 1572.34 850.99 1572.34 850.99 1554.28 887 c 0,19,20
 1519.7 956 1519.7 956 1408.7 956 c 0,21,22
 1285.7 956 1285.7 956 1203.12 863 c 128,-1,23
 1120.54 770 1120.54 770 1085.94 592 c 2,24,-1
 970.87 0 l 1,25,-1
 786.87 0 l 1,26,-1
 915.55 662 l 2,27,28
 930.07 736.7 930.07 736.7 930.07 791.2 c 0,29,30
 930.07 852.71 930.07 852.71 911.58 888.5 c 0,31,32
 876.7 956 876.7 956 765.7 956 c 0,33,34
 642.7 956 642.7 956 560.12 863 c 0,35,36
 477.54 770 477.54 770 442.94 592 c 2,37,-1
 327.87 0 l 1,38,-1
 143.87 0 l 1,39,-1
 330.08 958 l 1,40,-1
 154.09 958 l 1,41,-1
 174.49 1063 l 1,42,-1
 534.49 1063 l 1,43,-1
 497.76 874 l 1,44,45
 569.36 980 569.36 980 659.25 1036 c 0,46,47
 749.13 1092 749.13 1092 849.13 1092 c 0,48,49
 973.13 1092 973.13 1092 1044.18 1030.5 c 0,50,51
 1115.22 969 1115.22 969 1121.26 856 c 1,0,1
EndSplineSet
EndChar
StartChar: n
Encoding: 110 110 110
Width: 1319
Flags: W
AnchorPoint: "below" 566.868 0 basechar 0
AnchorPoint: "above" 714 1092 basechar 0
LayerCount: 2
Fore
SplineSet
143.87 0 m 1,0,-1
 329.7 956 l 1,1,-1
 153.7 956 l 1,2,-1
 174.49 1063 l 1,3,-1
 534.49 1063 l 1,4,-1
 497.76 874 l 1,5,6
 569.75 982 569.75 982 661.94 1037 c 128,-1,7
 754.13 1092 754.13 1092 862.13 1092 c 0,8,9
 1038.13 1092 1038.13 1092 1101.5 991 c 0,10,11
 1139.76 930.027 1139.76 930.027 1139.76 827.871 c 0,12,13
 1139.76 760.809 1139.76 760.809 1123.27 676 c 2,14,-1
 1012.47 106 l 1,15,-1
 1176.47 106 l 1,16,-1
 1155.87 0 l 1,17,-1
 806.87 0 l 1,18,-1
 927 618 l 2,19,20
 947.003 720.917 947.003 720.917 947.003 789.712 c 0,21,22
 947.003 851.264 947.003 851.264 930.99 885.5 c 0,23,24
 897.08 958 897.08 958 776.08 958 c 0,25,26
 648.08 958 648.08 958 562.91 864.5 c 0,27,28
 477.74 771 477.74 771 442.94 592 c 2,29,-1
 327.87 0 l 1,30,-1
 143.87 0 l 1,0,-1
EndSplineSet
EndChar
StartChar: o
Encoding: 111 111 111
Width: 1233
Flags: W
AnchorPoint: "below" 512.687 0 basechar 0
AnchorPoint: "above" 724 1092 basechar 0
LayerCount: 2
Fore
SplineSet
526.29 70 m 0,0,1
 674.29 70 674.29 70 772.54 187 c 128,-1,2
 870.78 304 870.78 304 915.1 532 c 0,3,4
 935.313 635.982 935.313 635.982 935.313 716.773 c 0,5,6
 935.313 813.131 935.313 813.131 906.56 876.5 c 0,7,8
 853.71 993 853.71 993 705.71 993 c 128,-1,9
 557.71 993 557.71 993 459.56 876.5 c 128,-1,10
 361.42 760 361.42 760 317.1 532 c 0,11,12
 296.97 428.444 296.97 428.444 296.97 347.787 c 0,13,14
 296.97 250.86 296.97 250.86 326.04 187 c 0,15,16
 379.29 70 379.29 70 526.29 70 c 0,0,1
507.05 -29 m 0,17,18
 275.05 -29 275.05 -29 163.89 124.5 c 0,19,20
 86.9123 230.788 86.9123 230.788 86.9123 385.263 c 0,21,22
 86.9123 453.878 86.9123 453.878 102.1 532 c 0,23,24
 151.47 786 151.47 786 321.71 939 c 128,-1,25
 491.95 1092 491.95 1092 724.95 1092 c 128,-1,26
 957.95 1092 957.95 1092 1068.71 939 c 0,27,28
 1145.32 833.172 1145.32 833.172 1145.32 679.022 c 0,29,30
 1145.32 610.311 1145.32 610.311 1130.1 532 c 0,31,32
 1080.72 278 1080.72 278 910.39 124.5 c 128,-1,33
 740.05 -29 740.05 -29 507.05 -29 c 0,17,18
EndSplineSet
EndChar
StartChar: p
Encoding: 112 112 112
Width: 1311
Flags: W
AnchorPoint: "above" 856.535 1092 basechar 0
AnchorPoint: "below" 179.688 -430 basechar 0
LayerCount: 2
Fore
SplineSet
468.79 584 m 2,0,-1
 448.38 479 l 2,1,2
 433.122 400.5 433.122 400.5 433.122 337.296 c 0,3,4
 433.122 245.91 433.122 245.91 465.02 186.5 c 0,5,6
 518.99 86 518.99 86 658.99 86 c 0,7,8
 799.99 86 799.99 86 894.45 199 c 0,9,10
 988.92 312 988.92 312 1031.68 532 c 0,11,12
 1051.38 633.336 1051.38 633.336 1051.38 711.754 c 0,13,14
 1051.38 804.356 1051.38 804.356 1023.91 865 c 0,15,16
 973.18 977 973.18 977 832.18 977 c 0,17,18
 692.18 977 692.18 977 599.05 876 c 0,19,20
 505.92 775 505.92 775 468.79 584 c 2,0,-1
357.1 956 m 1,21,-1
 180.1 956 l 1,22,-1
 200.9 1063 l 1,23,-1
 561.9 1063 l 1,24,-1
 529.63 897 l 1,25,26
 603.07 997 603.07 997 695.8 1044.5 c 0,27,28
 788.53 1092 788.53 1092 911.53 1092 c 0,29,30
 1107.53 1092 1107.53 1092 1201.41 937 c 0,31,32
 1263.26 834.874 1263.26 834.874 1263.26 691.507 c 0,33,34
 1263.26 617.281 1263.26 617.281 1246.68 532 c 0,35,36
 1198.09 282 1198.09 282 1043.86 126.5 c 128,-1,37
 889.63 -29 889.63 -29 693.63 -29 c 0,38,39
 570.63 -29 570.63 -29 496.37 18.5 c 0,40,41
 422.1 66 422.1 66 387.54 166 c 1,42,-1
 272.47 -426 l 1,43,-1
 88.47 -426 l 1,44,-1
 357.1 956 l 1,21,-1
EndSplineSet
EndChar
StartChar: q
Encoding: 113 113 113
Width: 1311
Flags: W
AnchorPoint: "below" 834.688 -430 basechar 0
AnchorPoint: "above" 716.535 1092 basechar 0
LayerCount: 2
Fore
SplineSet
859 166 m 1,0,1
 790 66 790 66 706 18 c 0,2,3
 622 -29 622 -29 511 -29 c 0,4,5
 335 -29 335 -29 246 90 c 0,6,7
 190 165 190 165 184 269 c 0,8,9
 180 330 180 330 194 402 c 0,10,11
 263 755 263 755 508 937 c 0,12,13
 717 1091 717 1091 962 1092 c 0,14,15
 1156 1093 1156 1093 1217 1063 c 1,16,-1
 948 -320 l 1,17,-1
 1125 -320 l 1,18,-1
 1104 -426 l 1,19,-1
 743 -426 l 1,20,-1
 859 166 l 1,0,1
933 990 m 0,21,22
 741 990 741 990 592 840 c 0,23,24
 444 689 444 689 390 415 c 0,25,26
 375 334 375 334 379 273 c 0,27,28
 383 211 383 211 408 169 c 0,29,30
 457 86 457 86 585 86 c 0,31,32
 711 86 711 86 796.5 186.5 c 128,-1,33
 882 287 882 287 919 479 c 2,34,-1
 1013 961 l 9,35,36
 1014 990 1014 990 933 990 c 0,21,22
EndSplineSet
EndChar
StartChar: r
Encoding: 114 114 114
Width: 979
Flags: W
AnchorPoint: "below" 221.868 0 basechar 0
AnchorPoint: "above" 672 1092 basechar 0
LayerCount: 2
Fore
SplineSet
1079.88 1065 m 1,0,-1
 1028.18 799 l 1,1,-1
 922.18 799 l 1,2,3
 924.745 818.58 924.745 818.58 924.745 835.702 c 0,4,5
 924.745 887.666 924.745 887.666 901.12 917 c 0,6,7
 869.7 956 869.7 956 794.7 956 c 0,8,9
 658.7 956 658.7 956 567.92 862 c 0,10,11
 477.15 768 477.15 768 442.94 592 c 2,12,-1
 327.87 0 l 1,13,-1
 143.87 0 l 1,14,-1
 330.08 958 l 1,15,-1
 154.08 958 l 1,16,-1
 174.49 1063 l 1,17,-1
 534.49 1063 l 1,18,-1
 497.76 874 l 1,19,20
 573.33 985 573.33 985 668.73 1038.5 c 0,21,22
 764.13 1092 764.13 1092 886.13 1092 c 0,23,24
 931.13 1092 931.13 1092 979.27 1085 c 128,-1,25
 1027.41 1078 1027.41 1078 1079.88 1065 c 1,0,-1
EndSplineSet
EndChar
StartChar: s
Encoding: 115 115 115
Width: 1051
Flags: W
AnchorPoint: "below" 422.687 0 basechar 0
AnchorPoint: "above" 634 1092 basechar 0
LayerCount: 2
Fore
SplineSet
71 307 m 1,0,-1
 177 307 l 1,1,2
 173 278 173 278 173 252 c 0,3,4
 173 70 173 70 420 70 c 0,5,6
 668 70 668 70 704 252 c 0,7,8
 707 270 707 270 707 302 c 0,9,10
 707 333 707 333 673 370.5 c 128,-1,11
 639 408 639 408 496 457 c 2,12,-1
 371 502 l 2,13,14
 243 546 243 546 201.5 602.5 c 128,-1,15
 160 659 160 659 160 724 c 0,16,17
 160 750 160 750 165 780 c 0,18,19
 194 926 194 926 317 1009 c 128,-1,20
 440 1092 440 1092 618 1092 c 0,21,22
 795 1092 795 1092 981 1006 c 1,23,-1
 936 774 l 1,24,-1
 830 774 l 1,25,26
 834 797 834 797 834 817 c 0,27,28
 834 890 834 890 783.5 941.5 c 128,-1,29
 733 993 733 993 616 993 c 0,30,31
 381 993 381 993 349 829 c 0,32,33
 345 812 345 812 345 782 c 0,34,35
 345 751 345 751 377.5 716 c 128,-1,36
 410 681 410 681 537 639 c 2,37,-1
 674 594 l 2,38,39
 816 547 816 547 869 476 c 0,40,41
 906 426 906 426 906 377 c 0,42,43
 906 167 906 167 738 58 c 0,44,45
 606 -29 606 -29 404 -29 c 0,46,47
 202 -29 202 -29 23 59 c 1,48,-1
 71 307 l 1,0,-1
EndSplineSet
EndChar
StartChar: t
Encoding: 116 116 116
Width: 823
Flags: W
AnchorPoint: "below" 381.433 0 basechar 0
AnchorPoint: "above" 479.001 1536 basechar 0
LayerCount: 2
Fore
SplineSet
274.26 956 m 1,0,-1
 112.26 956 l 1,1,-1
 133.06 1063 l 1,2,-1
 295.06 1063 l 1,3,-1
 359.2 1393 l 1,4,-1
 544.2 1393 l 1,5,-1
 480.06 1063 l 1,6,-1
 826.06 1063 l 1,7,-1
 805.26 956 l 1,8,-1
 459.26 956 l 1,9,-1
 328.05 281 l 2,10,11
 312.7 202.02 312.7 202.02 312.7 156.24 c 0,12,13
 312.7 123.77 312.7 123.77 320.43 108 c 0,14,15
 339.04 70 339.04 70 409.04 70 c 0,16,17
 481.04 70 481.04 70 522.3 112.5 c 0,18,19
 563.56 155 563.56 155 584.03 250 c 1,20,-1
 723.03 250 l 1,21,22
 686.84 105 686.84 105 602.82 38 c 0,23,24
 518.8 -29 518.8 -29 373.8 -29 c 0,25,26
 214.8 -29 214.8 -29 162.5 41.5 c 0,27,28
 130.38 84.8 130.38 84.8 130.38 165.26 c 0,29,30
 130.38 215.8 130.38 215.8 143.05 281 c 2,31,-1
 274.26 956 l 1,0,-1
EndSplineSet
EndChar
StartChar: u
Encoding: 117 117 117
Width: 1319
Flags: W
AnchorPoint: "below" 493.506 0 basechar 0
AnchorPoint: "above" 692 1092 basechar 0
LayerCount: 2
Fore
SplineSet
991.13 1063 m 1,0,-1
 1175.13 1063 l 1,1,-1
 989.11 106 l 1,2,-1
 1163.11 106 l 1,3,-1
 1142.51 0 l 1,4,-1
 784.51 0 l 1,5,-1
 821.05 188 l 1,6,7
 749.44 82 749.44 82 657.66 26.5 c 0,8,9
 565.87 -29 565.87 -29 458.87 -29 c 0,10,11
 281.87 -29 281.87 -29 217.9 71.5 c 0,12,13
 179.22 132.28 179.22 132.28 179.22 234.95 c 0,14,15
 179.22 302.04 179.22 302.04 195.73 387 c 2,16,-1
 306.33 956 l 1,17,-1
 140.33 956 l 1,18,-1
 161.13 1063 l 1,19,-1
 512.13 1063 l 1,20,-1
 391.81 444 l 2,21,22
 371.84 341.28 371.84 341.28 371.84 272.76 c 0,23,24
 371.84 211.88 371.84 211.88 387.61 178 c 0,25,26
 421.11 106 421.11 106 543.11 106 c 0,27,28
 671.11 106 671.11 106 756.38 200 c 128,-1,29
 841.65 294 841.65 294 876.45 473 c 2,30,-1
 991.13 1063 l 1,0,-1
EndSplineSet
EndChar
StartChar: v
Encoding: 118 118 118
Width: 1157
Flags: W
AnchorPoint: "below" 474.687 0 basechar 0
AnchorPoint: "above" 686.95 1092 basechar 0
LayerCount: 2
Fore
SplineSet
538 0 m 1,0,-1
 403 0 l 1,1,-1
 198 956 l 1,2,-1
 77 956 l 1,3,-1
 97 1063 l 1,4,-1
 372 1063 l 1,5,-1
 552 225 l 1,6,7
 667 325 667 325 744 452 c 0,8,9
 904 716 904 716 961 956 c 1,10,-1
 839 956 l 1,11,-1
 860 1063 l 1,12,-1
 1135 1063 l 1,13,14
 1026 651 1026 651 888 420 c 0,15,16
 768 220 768 220 538 0 c 1,0,-1
EndSplineSet
EndChar
StartChar: w
Encoding: 119 119 119
Width: 1753
Flags: W
AnchorPoint: "above" 987.95 1092 basechar 0
AnchorPoint: "below" 775.687 0 basechar 0
LayerCount: 2
Fore
SplineSet
1196.98 233 m 1,0,1
 1330.38 377.487 1330.38 377.487 1360 430 c 0,2,3
 1470 630 1470 630 1577.51 956 c 1,4,-1
 1423.32 955.011 l 1,5,-1
 1444.31 1063 l 1,6,-1
 1711.31 1063 l 1,7,-1
 1690.32 955.02 l 1,8,-1
 1688.95 954.771 l 1,9,10
 1587.26 584.311 1587.26 584.311 1490 405 c 0,11,12
 1346.92 149.998 1346.92 149.998 1190 0 c 1,13,-1
 1036.69 0 l 1,14,-1
 928.218 795 l 1,15,-1
 510.689 0 l 1,16,-1
 363.689 0 l 1,17,-1
 234.51 956 l 1,18,-1
 115.123 953.994 l 1,19,-1
 136.31 1063 l 1,20,-1
 410.312 1063 l 1,21,-1
 521.981 233 l 1,22,-1
 957.309 1063 l 1,23,-1
 1086.31 1063 l 1,24,-1
 1196.98 233 l 1,0,1
EndSplineSet
EndChar
StartChar: x
Encoding: 120 120 120
Width: 1155
Flags: W
AnchorPoint: "above" 686.95 1092 basechar 0
AnchorPoint: "below" 474.687 0 basechar 0
LayerCount: 2
Fore
SplineSet
130.69 0 m 1,0,-1
 5.69 0 l 1,1,-1
 474.82 510 l 1,2,-1
 238.51 956 l 1,3,-1
 107.51 956 l 1,4,-1
 128.31 1063 l 1,5,-1
 398.31 1063 l 1,6,-1
 618.84 649 l 1,7,-1
 1000.31 1063 l 1,8,-1
 1125.31 1063 l 1,9,-1
 665.12 563 l 1,10,-1
 908.29 106 l 1,11,-1
 1047.29 106 l 1,12,-1
 1026.69 0 l 1,13,-1
 747.69 0 l 1,14,-1
 522.1 424 l 1,15,-1
 130.69 0 l 1,0,-1
EndSplineSet
EndChar
StartChar: y
Encoding: 121 121 121
Width: 1157
Flags: W
AnchorPoint: "below" 429.325 -430 basechar 0
AnchorPoint: "above" 671.17 1092 basechar 0
LayerCount: 2
Fore
SplineSet
1178 1054 m 1,0,1
 1079.22 482.483 1079.22 482.483 905 180 c 0,2,3
 649.677 -263.298 649.677 -263.298 445 -396 c 0,4,5
 354 -455 354 -455 114 -455 c 0,6,7
 67 -455 67 -455 19.5 -447 c 128,-1,8
 -28 -439 -28 -439 -76 -424 c 1,9,-1
 -36 -221 l 1,10,-1
 58 -221 l 1,11,12
 56 -237 56 -237 56 -252 c 0,13,14
 56 -293.52 56 -293.52 74 -318 c 0,15,16
 99 -352 99 -352 164 -352 c 0,17,18
 340 -352 340 -352 493 -199 c 1,19,-1
 242 956 l 1,20,-1
 121 956 l 1,21,-1
 142 1063 l 1,22,-1
 417 1063 l 1,23,-1
 653 8 l 1,24,25
 814 249 814 249 853 348 c 0,26,27
 979 659 979 659 1004 947 c 1,28,-1
 883 947 l 1,29,-1
 904 1054 l 1,30,-1
 1178 1054 l 1,0,1
EndSplineSet
EndChar
StartChar: z
Encoding: 122 122 122
Width: 1079
Flags: W
AnchorPoint: "above" 637.95 1092 basechar 0
AnchorPoint: "below" 425.687 0 basechar 0
LayerCount: 2
Fore
SplineSet
814.892 975 m 0,0,1
 923.217 975 923.217 975 1028.32 1063 c 1,2,-1
 1088.32 1063 l 1,3,-1
 1071.6 977 l 1,4,-1
 344.983 219.331 l 1,5,6
 354.734 215.834 354.734 215.834 384.01 206.992 c 0,7,8
 418.139 195.805 418.139 195.805 452.333 174.398 c 2,9,-1
 500.604 144 l 2,10,11
 595.364 87 595.364 87 662.683 87 c 0,12,13
 793.813 87 793.813 87 947.801 237 c 1,14,-1
 924.281 116 l 1,15,16
 752.595 -52 752.595 -52 623.069 -52 c 0,17,18
 544.255 -50.4469 544.255 -50.4469 433.108 18.7765 c 128,-1,19
 321.961 88 321.961 88 252.123 88 c 0,20,21
 143.805 88 143.805 88 38.6973 0 c 1,22,-1
 -21.3027 0 l 1,23,-1
 -4.58594 86 l 1,24,-1
 722.528 843.489 l 1,25,26
 712.47 847.135 712.47 847.135 683.099 855.992 c 0,27,28
 648.878 867.19 648.878 867.19 614.682 888.6 c 2,29,-1
 566.41 919 l 2,30,31
 471.65 976 471.65 976 404.331 976 c 0,32,33
 273.197 976 273.197 976 119.209 826 c 1,34,-1
 142.729 947 l 1,35,36
 314.413 1115 314.413 1115 443.945 1115 c 0,37,38
 522.737 1113.45 522.737 1113.45 633.895 1044.22 c 128,-1,39
 745.054 975 745.054 975 814.892 975 c 0,0,1
EndSplineSet
EndChar
StartChar: braceleft
Encoding: 123 123 123
Width: 1303
Flags: W
LayerCount: 2
Fore
SplineSet
883.721 -229 m 1,0,-1
 863.311 -334 l 1,1,-1
 801.311 -334 l 2,2,3
 552.311 -334 552.311 -334 482.194 -260 c 128,-1,4
 412.079 -186 412.079 -186 455.037 35 c 2,5,-1
 505.188 293 l 2,6,7
 534.344 443 534.344 443 491.618 501 c 128,-1,8
 448.893 559 448.893 559 306.893 559 c 2,9,-1
 245.893 559 l 1,10,-1
 266.302 664 l 1,11,-1
 327.302 664 l 2,12,13
 469.302 664 469.302 664 534.576 722 c 128,-1,14
 599.851 780 599.851 780 629.007 930 c 2,15,-1
 679.157 1188 l 2,16,17
 722.115 1409 722.115 1409 820.902 1482.5 c 128,-1,18
 919.689 1556 919.689 1556 1168.69 1556 c 2,19,-1
 1230.69 1556 l 1,20,-1
 1210.47 1452 l 1,21,-1
 1142.47 1452 l 2,22,23
 1001.47 1452 1001.47 1452 949.921 1408 c 128,-1,24
 898.368 1364 898.368 1364 870.961 1223 c 2,25,-1
 815.174 936 l 2,26,27
 784.462 778 784.462 778 721.243 710 c 128,-1,28
 658.025 642 658.025 642 522.194 612 c 1,29,30
 647.585 578 647.585 578 683.562 511 c 128,-1,31
 719.538 444 719.538 444 689.021 287 c 2,32,-1
 633.233 0 l 2,33,34
 605.826 -141 605.826 -141 640.273 -185 c 128,-1,35
 674.721 -229 674.721 -229 815.721 -229 c 2,36,-1
 883.721 -229 l 1,0,-1
EndSplineSet
EndChar
StartChar: bar
Encoding: 124 124 124
Width: 690
Flags: W
LayerCount: 2
Fore
SplineSet
426 1565 m 1,0,-1
 426 -483 l 1,1,-1
 264 -483 l 1,2,-1
 264 1565 l 1,3,-1
 426 1565 l 1,0,-1
EndSplineSet
EndChar
StartChar: braceright
Encoding: 125 125 125
Width: 1303
Flags: W
LayerCount: 2
Fore
SplineSet
92.7207 -229 m 1,0,-1
 162.721 -229 l 2,1,2
 302.721 -229 302.721 -229 353.676 -185.5 c 128,-1,3
 404.632 -142 404.632 -142 432.233 0 c 2,4,-1
 488.021 287 l 2,5,6
 518.538 444 518.538 444 580.562 511 c 128,-1,7
 642.585 578 642.585 578 780.194 612 c 1,8,9
 656.025 642 656.025 642 619.743 710 c 128,-1,10
 583.462 778 583.462 778 614.174 936 c 2,11,-1
 669.961 1223 l 2,12,13
 697.562 1365 697.562 1365 663.519 1408.5 c 128,-1,14
 629.474 1452 629.474 1452 489.474 1452 c 2,15,-1
 419.474 1452 l 1,16,-1
 439.689 1556 l 1,17,-1
 502.689 1556 l 2,18,19
 751.689 1556 751.689 1556 820.902 1482.5 c 128,-1,20
 890.115 1409 890.115 1409 847.157 1188 c 2,21,-1
 797.007 930 l 2,22,23
 767.851 780 767.851 780 810.576 722 c 128,-1,24
 853.302 664 853.302 664 995.302 664 c 2,25,-1
 1057.3 664 l 1,26,-1
 1036.89 559 l 1,27,-1
 974.893 559 l 2,28,29
 832.893 559 832.893 559 767.618 501 c 128,-1,30
 702.344 443 702.344 443 673.188 293 c 2,31,-1
 623.037 35 l 2,32,33
 580.079 -186 580.079 -186 482.194 -260 c 128,-1,34
 384.311 -334 384.311 -334 135.311 -334 c 2,35,-1
 72.3105 -334 l 1,36,-1
 92.7207 -229 l 1,0,-1
EndSplineSet
EndChar
StartChar: asciitilde
Encoding: 126 126 126
Width: 1716
Flags: W
LayerCount: 2
Fore
SplineSet
1499 807 m 1,0,-1
 1499 659 l 1,1,2
 1399 571 1399 571 1309 529 c 128,-1,3
 1219 487 1219 487 1126 487 c 0,4,5
 1030 487 1030 487 856 553 c 2,6,-1
 846 557 l 2,7,8
 835 561 835 561 813 570 c 0,9,10
 666 627 666 627 571 627 c 0,11,12
 479 627 479 627 392.5 590.5 c 128,-1,13
 306 554 306 554 217 477 c 1,14,-1
 217 629 l 1,15,16
 317 716 317 716 406.5 756.5 c 128,-1,17
 496 797 496 797 590 797 c 0,18,19
 686 797 686 797 860 731 c 2,20,-1
 870 727 l 2,21,22
 881 723 881 723 901 715 c 0,23,24
 1046 657 1046 657 1143 657 c 0,25,26
 1235 657 1235 657 1323 694 c 128,-1,27
 1411 731 1411 731 1499 807 c 1,0,-1
EndSplineSet
EndChar
StartChar: exclamdown
Encoding: 161 161 161
Width: 823
Flags: W
LayerCount: 2
Fore
SplineSet
401.071 1389 m 0,0,1
 411.956 1445 411.956 1445 457.439 1483.5 c 128,-1,2
 502.924 1522 502.924 1522 559.924 1522 c 0,3,4
 614.924 1522 614.924 1522 646.343 1483 c 128,-1,5
 677.762 1444 677.762 1444 667.071 1389 c 0,6,7
 656.186 1333 656.186 1333 609.604 1294 c 128,-1,8
 563.023 1255 563.023 1255 508.023 1255 c 0,9,10
 451.023 1255 451.023 1255 420.604 1294 c 128,-1,11
 390.186 1333 390.186 1333 401.071 1389 c 0,0,1
135.076 0 m 1,12,-1
 361.663 821 l 1,13,-1
 410.646 1073 l 1,14,-1
 533.646 1073 l 1,15,-1
 484.663 821 l 1,16,-1
 393.076 0 l 1,17,-1
 135.076 0 l 1,12,-1
EndSplineSet
EndChar
StartChar: cent
Encoding: 162 162 162
Width: 1303
Flags: W
LayerCount: 2
Fore
SplineSet
718.706 991 m 1,0,1
 586.791 976 586.791 976 499.938 861 c 128,-1,2
 413.083 746 413.083 746 371.486 532 c 0,3,4
 329.694 317 329.694 317 371.841 202 c 128,-1,5
 413.986 87 413.986 87 540.071 72 c 1,6,-1
 718.706 991 l 1,0,1
1063.08 319 m 1,7,8
 998.148 165 998.148 165 887.335 78.5 c 128,-1,9
 776.521 -8 776.521 -8 620.827 -27 c 1,10,-1
 568.345 -297 l 1,11,-1
 468.345 -297 l 1,12,-1
 520.827 -27 l 1,13,14
 304.521 -8 304.521 -8 206.178 142 c 128,-1,15
 107.835 292 107.835 292 154.486 532 c 0,16,17
 201.526 774 201.526 774 358.086 923.5 c 128,-1,18
 514.646 1073 514.646 1073 737.95 1090 c 1,19,-1
 789.655 1356 l 1,20,-1
 889.655 1356 l 1,21,-1
 837.95 1090 l 1,22,23
 928.396 1082 928.396 1082 1007.92 1059 c 128,-1,24
 1087.45 1036 1087.45 1036 1159.87 997 c 1,25,-1
 1107 725 l 1,26,-1
 1001 725 l 1,27,28
 1005.91 848 1005.91 848 961.142 913.5 c 128,-1,29
 916.374 979 916.374 979 818.706 991 c 1,30,-1
 640.071 72 l 1,31,32
 732.403 84 732.403 84 802.747 147.5 c 128,-1,33
 873.09 211 873.09 211 915.083 319 c 1,34,-1
 1063.08 319 l 1,7,8
EndSplineSet
EndChar
StartChar: sterling
Encoding: 163 163 163
Width: 1303
Flags: W
LayerCount: 2
Fore
SplineSet
1192.39 1225 m 1,0,-1
 1087.39 1225 l 1,1,2
 1095.85 1320 1095.85 1320 1049.17 1370.5 c 128,-1,3
 1002.49 1421 1002.49 1421 906.485 1421 c 0,4,5
 779.485 1421 779.485 1421 703.921 1343.5 c 128,-1,6
 628.356 1266 628.356 1266 596.479 1102 c 2,7,-1
 539.136 807 l 1,8,-1
 951.136 807 l 1,9,-1
 930.337 700 l 1,10,-1
 518.337 700 l 1,11,-1
 405.791 121 l 1,12,-1
 883.791 121 l 1,13,-1
 927.915 348 l 1,14,-1
 1043.92 348 l 1,15,-1
 976.271 0 l 1,16,-1
 -10.7295 0 l 1,17,-1
 9.875 106 l 1,18,-1
 202.875 106 l 1,19,-1
 318.337 700 l 1,20,-1
 125.337 700 l 1,21,-1
 146.136 807 l 1,22,-1
 339.136 807 l 1,23,-1
 396.479 1102 l 2,24,25
 436.326 1307 436.326 1307 571.527 1413.5 c 128,-1,26
 706.729 1520 706.729 1520 927.729 1520 c 0,27,28
 1012.73 1520 1012.73 1520 1091.3 1507.5 c 128,-1,29
 1169.87 1495 1169.87 1495 1240.01 1470 c 1,30,-1
 1192.39 1225 l 1,0,-1
EndSplineSet
EndChar
StartChar: currency
Encoding: 164 164 164
Width: 1303
Flags: W
LayerCount: 2
Fore
SplineSet
901 985 m 1,0,-1
 1110 1192 l 1,1,-1
 1204 1098 l 1,2,-1
 995 889 l 1,3,4
 1038 829 1038 829 1058.5 768 c 128,-1,5
 1079 707 1079 707 1079 641 c 0,6,7
 1079 572 1079 572 1058.5 513 c 128,-1,8
 1038 454 1038 454 993 397 c 1,9,-1
 1200 190 l 1,10,-1
 1104 96 l 1,11,-1
 897 301 l 1,12,13
 841 257 841 257 781.5 236 c 128,-1,14
 722 215 722 215 653 215 c 0,15,16
 589 215 589 215 526.5 235.5 c 128,-1,17
 464 256 464 256 403 297 c 1,18,-1
 199 92 l 1,19,-1
 104 186 l 1,20,-1
 309 393 l 1,21,22
 268 455 268 455 247.5 516 c 128,-1,23
 227 577 227 577 227 641 c 0,24,25
 227 711 227 711 248 770.5 c 128,-1,26
 269 830 269 830 313 887 c 1,27,-1
 106 1094 l 1,28,-1
 201 1188 l 1,29,-1
 408 981 l 1,30,31
 464 1025 464 1025 524 1046 c 128,-1,32
 584 1067 584 1067 653 1067 c 0,33,34
 719 1067 719 1067 780 1047 c 128,-1,35
 841 1027 841 1027 901 985 c 1,0,-1
922 643 m 0,36,37
 922 755 922 755 844.5 832 c 128,-1,38
 767 909 767 909 653 909 c 0,39,40
 541 909 541 909 463 832 c 128,-1,41
 385 755 385 755 385 643 c 0,42,43
 385 529 385 529 462.5 451 c 128,-1,44
 540 373 540 373 653 373 c 0,45,46
 766 373 766 373 844 451.5 c 128,-1,47
 922 530 922 530 922 643 c 0,36,37
EndSplineSet
EndChar
StartChar: yen
Encoding: 165 165 165
Width: 1303
Flags: W
LayerCount: 2
Fore
SplineSet
214.896 0 m 1,0,-1
 235.499 106 l 1,1,-1
 426.499 106 l 1,2,-1
 497.837 473 l 1,3,-1
 93.8369 473 l 1,4,-1
 114.247 578 l 1,5,-1
 518.247 578 l 1,6,-1
 530.882 643 l 1,7,-1
 476.289 784 l 1,8,-1
 154.289 784 l 1,9,-1
 174.699 889 l 1,10,-1
 437.699 889 l 1,11,-1
 247.307 1386 l 1,12,-1
 108.307 1386 l 1,13,-1
 129.104 1493 l 1,14,-1
 682.104 1493 l 1,15,-1
 661.307 1386 l 1,16,-1
 486.307 1386 l 1,17,-1
 711.9 782 l 1,18,-1
 1168.31 1386 l 1,19,-1
 1001.31 1386 l 1,20,-1
 1022.1 1493 l 1,21,-1
 1454.1 1493 l 1,22,-1
 1433.31 1386 l 1,23,-1
 1291.31 1386 l 1,24,-1
 910.699 889 l 1,25,-1
 1182.7 889 l 1,26,-1
 1162.29 784 l 1,27,-1
 830.289 784 l 1,28,-1
 735.575 662 l 1,29,-1
 719.247 578 l 1,30,-1
 1122.25 578 l 1,31,-1
 1101.84 473 l 1,32,-1
 698.837 473 l 1,33,-1
 627.499 106 l 1,34,-1
 817.499 106 l 1,35,-1
 796.896 0 l 1,36,-1
 214.896 0 l 1,0,-1
EndSplineSet
EndChar
StartChar: brokenbar
Encoding: 166 166 166
Width: 690
Flags: W
LayerCount: 2
Fore
SplineSet
426 408 m 1,0,-1
 426 -350 l 1,1,-1
 264 -350 l 1,2,-1
 264 408 l 1,3,-1
 426 408 l 1,0,-1
426 1432 m 1,4,-1
 426 674 l 1,5,-1
 264 674 l 1,6,-1
 264 1432 l 1,7,-1
 426 1432 l 1,4,-1
EndSplineSet
EndChar
StartChar: section
Encoding: 167 167 167
Width: 1024
Flags: W
LayerCount: 2
Fore
SplineSet
432.163 936 m 1,0,1
 355.222 890 355.222 890 319.654 848.5 c 128,-1,2
 284.088 807 284.088 807 273.786 754 c 0,3,4
 248.128 622 248.128 622 571.668 419 c 2,5,-1
 600.17 401 l 1,6,7
 665.556 439 665.556 439 704.387 487 c 128,-1,8
 743.217 535 743.217 535 754.296 592 c 0,9,10
 768.875 667 768.875 667 712.398 734 c 128,-1,11
 655.922 801 655.922 801 432.163 936 c 1,0,1
984.796 1464 m 1,12,-1
 945.531 1262 l 1,13,-1
 853.531 1262 l 1,14,15
 865.526 1334 865.526 1334 821.593 1375.5 c 128,-1,16
 777.66 1417 777.66 1417 689.66 1417 c 0,17,18
 589.66 1417 589.66 1417 522.732 1368.5 c 128,-1,19
 455.805 1320 455.805 1320 439.672 1237 c 0,20,21
 420.816 1140 420.816 1140 640.187 1003 c 0,22,23
 663.271 988 663.271 988 673.91 981 c 0,24,25
 847.723 872 847.723 872 895.645 797 c 128,-1,26
 943.565 722 943.565 722 924.322 623 c 0,27,28
 905.855 528 905.855 528 841.11 465 c 128,-1,29
 776.364 402 776.364 402 653.812 358 c 1,30,31
 722.676 311 722.676 311 746.93 248 c 128,-1,32
 771.184 185 771.184 185 753.495 94 c 0,33,34
 728.031 -37 728.031 -37 610.675 -116 c 128,-1,35
 493.319 -195 493.319 -195 320.319 -195 c 0,36,37
 230.319 -195 230.319 -195 152.943 -181.5 c 128,-1,38
 75.5674 -168 75.5674 -168 4.2041 -139 c 1,39,-1
 44.8301 70 l 1,40,-1
 136.636 69 l 1,41,42
 123.085 -11 123.085 -11 169.213 -51.5 c 128,-1,43
 215.34 -92 215.34 -92 322.34 -92 c 0,44,45
 426.34 -92 426.34 -92 496.364 -43 c 128,-1,46
 566.39 6 566.39 6 582.717 90 c 0,47,48
 604.683 203 604.683 203 401.368 330 c 0,49,50
 382.701 342 382.701 342 372.867 348 c 0,51,52
 180.582 470 180.582 470 132.16 545 c 128,-1,53
 83.7393 620 83.7393 620 102.982 719 c 0,54,55
 121.254 813 121.254 813 193.181 879.5 c 128,-1,56
 265.106 946 265.106 946 380.133 977 c 1,57,58
 307.657 1026 307.657 1026 280.403 1089 c 128,-1,59
 253.149 1152 253.149 1152 268.505 1231 c 0,60,61
 293.774 1361 293.774 1361 409.228 1440.5 c 128,-1,62
 524.681 1520 524.681 1520 690.681 1520 c 0,63,64
 768.681 1520 768.681 1520 841.96 1506 c 128,-1,65
 915.238 1492 915.238 1492 984.796 1464 c 1,12,-1
EndSplineSet
EndChar
StartChar: dieresis
Encoding: 168 168 168
Width: 1024
Flags: W
LayerCount: 2
Fore
SplineSet
534 1569 m 0,0,1
 582 1569 582 1569 610 1534 c 0,2,3
 637 1500 637 1500 628 1452 c 0,4,5
 618 1401 618 1401 579 1368 c 0,6,7
 539 1335 539 1335 488 1335 c 0,8,9
 438 1335 438 1335 412 1368 c 0,10,11
 385 1401 385 1401 395 1452 c 0,12,13
 404 1500 404 1500 446 1534 c 0,14,15
 487 1569 487 1569 534 1569 c 0,0,1
924 1569 m 0,16,17
 971 1569 971 1569 999 1534 c 0,18,19
 1026 1500 1026 1500 1017 1452 c 0,20,21
 1007 1401 1007 1401 968 1368 c 0,22,23
 928 1335 928 1335 878 1335 c 0,24,25
 827 1335 827 1335 801 1368 c 0,26,27
 774 1401 774 1401 784 1452 c 0,28,29
 793 1500 793 1500 835 1534 c 0,30,31
 876 1569 876 1569 924 1569 c 0,16,17
EndSplineSet
LCarets2: 1 0 
EndChar
StartChar: copyright
Encoding: 169 169 169
Width: 2048
Flags: W
LayerCount: 2
Fore
SplineSet
1376 573 m 1,0,1
 1349 442 1349 442 1258.5 371.5 c 128,-1,2
 1168 301 1168 301 1026 301 c 0,3,4
 839 301 839 301 727.5 421 c 128,-1,5
 616 541 616 541 616 741 c 0,6,7
 616 942 616 942 728.5 1063 c 128,-1,8
 841 1184 841 1184 1026 1184 c 0,9,10
 1106 1184 1106 1184 1183.5 1165.5 c 128,-1,11
 1261 1147 1261 1147 1348 1108 c 1,12,-1
 1348 895 l 1,13,-1
 1264 895 l 1,14,15
 1247 1004 1247 1004 1190 1055 c 128,-1,16
 1133 1106 1133 1106 1028 1106 c 0,17,18
 909 1106 909 1106 848.5 1014.5 c 128,-1,19
 788 923 788 923 788 741 c 0,20,21
 788 560 788 560 848 469.5 c 128,-1,22
 908 379 908 379 1026 379 c 0,23,24
 1123 379 1123 379 1179.5 426.5 c 128,-1,25
 1236 474 1236 474 1257 573 c 1,26,-1
 1376 573 l 1,0,1
1024 1485 m 0,27,28
 1176 1485 1176 1485 1307.5 1430 c 128,-1,29
 1439 1375 1439 1375 1548 1266 c 0,30,31
 1657 1157 1657 1157 1711 1026 c 128,-1,32
 1765 895 1765 895 1765 741 c 0,33,34
 1765 589 1765 589 1711 458.5 c 128,-1,35
 1657 328 1657 328 1548 219 c 0,36,37
 1439 110 1439 110 1307.5 55 c 128,-1,38
 1176 0 1176 0 1024 0 c 0,39,40
 872 0 872 0 740.5 55 c 128,-1,41
 609 110 609 110 500 219 c 0,42,43
 391 328 391 328 337 458.5 c 128,-1,44
 283 589 283 589 283 741 c 0,45,46
 283 895 283 895 337 1026 c 128,-1,47
 391 1157 391 1157 500 1266 c 0,48,49
 609 1375 609 1375 740.5 1430 c 128,-1,50
 872 1485 872 1485 1024 1485 c 0,27,28
1024 1382 m 0,51,52
 893 1382 893 1382 780 1335 c 128,-1,53
 667 1288 667 1288 573 1194 c 0,54,55
 480 1101 480 1101 432.5 986.5 c 128,-1,56
 385 872 385 872 385 741 c 0,57,58
 385 611 385 611 432.5 498 c 128,-1,59
 480 385 480 385 573 291 c 0,60,61
 667 197 667 197 780 149.5 c 128,-1,62
 893 102 893 102 1024 102 c 0,63,64
 1156 102 1156 102 1269.5 149.5 c 128,-1,65
 1383 197 1383 197 1477 291 c 0,66,67
 1570 384 1570 384 1616.5 497 c 128,-1,68
 1663 610 1663 610 1663 741 c 0,69,70
 1663 874 1663 874 1616 987.5 c 128,-1,71
 1569 1101 1569 1101 1477 1194 c 0,72,73
 1383 1288 1383 1288 1269.5 1335 c 128,-1,74
 1156 1382 1156 1382 1024 1382 c 0,51,52
EndSplineSet
EndChar
StartChar: ordfeminine
Encoding: 170 170 170
Width: 973
Flags: W
LayerCount: 2
Fore
SplineSet
612.78 756 m 17,0,-1
 647.38 934 l 1,1,2
 587.41 857 587.41 857 522.55 813.4 c 0,3,4
 457.13 769.74 457.13 769.74 383.78 756 c 0,5,6
 351.44 749.94 351.44 749.94 323.02 749.94 c 0,7,8
 228.79 749.94 228.79 749.94 177.63 816.53 c 0,9,10
 132.77 874.91 132.77 874.91 132.77 969.29 c 0,11,12
 132.77 1015.04 132.77 1015.04 143.31 1069.25 c 0,13,14
 175.59 1235.3 175.59 1235.3 282.18 1354.41 c 0,15,16
 388.57 1472.5 388.57 1472.5 528.14 1498.64 c 0,17,18
 556.71 1503.99 556.71 1503.99 582.16 1503.99 c 0,19,20
 622.03 1503.99 622.03 1503.99 654.23 1490.85 c 0,21,22
 707.38 1469.13 707.38 1469.13 740.56 1409.65 c 1,23,-1
 756.23 1494 l 1,24,-1
 882.23 1494 l 1,25,-1
 755.89 844 l 1,26,-1
 883.89 844 l 9,27,-1
 866.78 756 l 25,28,-1
 612.78 756 l 17,0,-1
685.1 1129.5 m 2,29,-1
 701.93 1216.09 l 2,30,31
 708.13 1247.96 708.13 1247.96 708.13 1275.09 c 0,32,33
 708.13 1335.56 708.13 1335.56 677.36 1372.48 c 0,34,35
 644.36 1413.15 644.36 1413.15 583.73 1413.15 c 0,36,37
 564.34 1413.15 564.34 1413.15 542.12 1408.99 c 0,38,39
 445.34 1390.86 445.34 1390.86 378.31 1308.61 c 0,40,41
 310.26 1226.17 310.26 1226.17 284.91 1095.78 c 0,42,43
 274.95 1044.51 274.95 1044.51 274.95 1003.77 c 0,44,45
 274.95 940.09 274.95 940.09 299.3 902.15 c 0,46,47
 330.22 853.97 330.22 853.97 395.24 853.97 c 0,48,49
 414.18 853.97 414.18 853.97 436.01 858.06 c 0,50,51
 526.68 875.04 526.68 875.04 596.4 950.92 c 0,52,53
 665.1 1026.61 665.1 1026.61 685.1 1129.5 c 2,29,-1
92.04 639 m 1,54,-1
 790.04 639 l 1,55,-1
 769.82 535 l 1,56,-1
 71.82 535 l 1,57,-1
 92.04 639 l 1,54,-1
EndSplineSet
EndChar
StartChar: guillemotleft
Encoding: 171 171 171
Width: 1253
Flags: W
LayerCount: 2
Fore
SplineSet
1150.22 1059 m 1,0,-1
 1127.87 944 l 1,1,-1
 764 600 l 1,2,-1
 994.133 256 l 1,3,-1
 971.779 141 l 1,4,-1
 584.03 559 l 1,5,-1
 599.97 641 l 1,6,-1
 1150.22 1059 l 1,0,-1
716.221 1059 m 1,7,-1
 693.867 944 l 1,8,-1
 330 600 l 1,9,-1
 560.133 256 l 1,10,-1
 537.779 141 l 1,11,-1
 150.03 559 l 1,12,-1
 165.97 641 l 1,13,-1
 716.221 1059 l 1,7,-1
EndSplineSet
EndChar
StartChar: logicalnot
Encoding: 172 172 172
Width: 1716
Flags: W
LayerCount: 2
Fore
SplineSet
217 862 m 1,0,-1
 1499 862 l 1,1,-1
 1499 287 l 1,2,-1
 1339 287 l 1,3,-1
 1339 700 l 1,4,-1
 217 700 l 1,5,-1
 217 862 l 1,0,-1
EndSplineSet
EndChar
StartChar: sfthyphen
Encoding: 173 173 173
Width: 692
Flags: W
LayerCount: 2
Fore
SplineSet
105.162 627 m 1,0,-1
 617.162 627 l 1,1,-1
 586.838 471 l 1,2,-1
 74.8379 471 l 1,3,-1
 105.162 627 l 1,0,-1
EndSplineSet
EndChar
StartChar: registered
Encoding: 174 174 174
Width: 2048
Flags: W
LayerCount: 2
Fore
SplineSet
895 791 m 1,0,-1
 1020 791 l 2,1,2
 1103 791 1103 791 1144.5 829 c 128,-1,3
 1186 867 1186 867 1186 942 c 0,4,5
 1186 1016 1186 1016 1144 1054 c 128,-1,6
 1102 1092 1102 1092 1020 1092 c 2,7,-1
 895 1092 l 1,8,-1
 895 791 l 1,0,-1
1141 754 m 1,9,10
 1183 740 1183 740 1212.5 714.5 c 128,-1,11
 1242 689 1242 689 1262 649 c 2,12,-1
 1378 420 l 1,13,-1
 1454 420 l 1,14,-1
 1454 352 l 1,15,-1
 1264 352 l 1,16,-1
 1133 606 l 1,17,18
 1098 676 1098 676 1067 699.5 c 128,-1,19
 1036 723 1036 723 987 723 c 2,20,-1
 895 723 l 1,21,-1
 895 420 l 1,22,-1
 979 420 l 1,23,-1
 979 352 l 1,24,-1
 662 352 l 1,25,-1
 662 420 l 1,26,-1
 745 420 l 1,27,-1
 745 1092 l 1,28,-1
 662 1092 l 1,29,-1
 662 1159 l 1,30,-1
 1077 1159 l 2,31,32
 1205 1159 1205 1159 1270 1103 c 128,-1,33
 1335 1047 1335 1047 1335 938 c 0,34,35
 1335 855 1335 855 1287 809.5 c 128,-1,36
 1239 764 1239 764 1141 754 c 1,9,10
1024 1382 m 0,37,38
 893 1382 893 1382 780 1335 c 128,-1,39
 667 1288 667 1288 573 1194 c 0,40,41
 480 1101 480 1101 432.5 986.5 c 128,-1,42
 385 872 385 872 385 741 c 0,43,44
 385 611 385 611 432.5 498 c 128,-1,45
 480 385 480 385 573 291 c 0,46,47
 667 197 667 197 780 149.5 c 128,-1,48
 893 102 893 102 1024 102 c 0,49,50
 1156 102 1156 102 1269.5 149.5 c 128,-1,51
 1383 197 1383 197 1477 291 c 0,52,53
 1570 384 1570 384 1616.5 497 c 128,-1,54
 1663 610 1663 610 1663 741 c 0,55,56
 1663 874 1663 874 1616 987.5 c 128,-1,57
 1569 1101 1569 1101 1477 1194 c 0,58,59
 1383 1288 1383 1288 1269.5 1335 c 128,-1,60
 1156 1382 1156 1382 1024 1382 c 0,37,38
1024 1485 m 0,61,62
 1176 1485 1176 1485 1307.5 1430 c 128,-1,63
 1439 1375 1439 1375 1548 1266 c 0,64,65
 1657 1157 1657 1157 1711 1026 c 128,-1,66
 1765 895 1765 895 1765 741 c 0,67,68
 1765 589 1765 589 1711 458.5 c 128,-1,69
 1657 328 1657 328 1548 219 c 0,70,71
 1439 110 1439 110 1307.5 55 c 128,-1,72
 1176 0 1176 0 1024 0 c 0,73,74
 872 0 872 0 740.5 55 c 128,-1,75
 609 110 609 110 500 219 c 0,76,77
 391 328 391 328 337 458.5 c 128,-1,78
 283 589 283 589 283 741 c 0,79,80
 283 895 283 895 337 1026 c 128,-1,81
 391 1157 391 1157 500 1266 c 0,82,83
 609 1375 609 1375 740.5 1430 c 128,-1,84
 872 1485 872 1485 1024 1485 c 0,61,62
EndSplineSet
EndChar
StartChar: macron
Encoding: 175 175 175
Width: 1024
Flags: W
LayerCount: 2
Fore
SplineSet
396 1526 m 1,0,-1
 994 1526 l 1,1,-1
 966 1378 l 1,2,-1
 368 1378 l 1,3,-1
 396 1526 l 1,0,-1
EndSplineSet
LCarets2: 1 0 
EndChar
StartChar: degree
Encoding: 176 176 176
Width: 1024
Flags: W
LayerCount: 2
Fore
SplineSet
512 1382 m 0,0,1
 436 1382 436 1382 384 1329.5 c 128,-1,2
 332 1277 332 1277 332 1200 c 0,3,4
 332 1124 332 1124 383.5 1073 c 128,-1,5
 435 1022 435 1022 512 1022 c 0,6,7
 588 1022 588 1022 640 1073.5 c 128,-1,8
 692 1125 692 1125 692 1200 c 128,-1,10
 692 1275 692 1275 639 1328.5 c 128,-1,11
 586 1382 586 1382 512 1382 c 0,0,1
512 1520 m 0,12,13
 576 1520 576 1520 635 1495.5 c 128,-1,14
 694 1471 694 1471 737 1425 c 1,15,16
 783 1380 783 1380 806 1323 c 128,-1,17
 829 1266 829 1266 829 1200 c 0,18,19
 829 1068 829 1068 736.5 976.5 c 128,-1,20
 644 885 644 885 510 885 c 0,21,22
 375 885 375 885 285 975 c 128,-1,23
 195 1065 195 1065 195 1200 c 0,24,25
 195 1334 195 1334 287 1427 c 128,-1,26
 379 1520 379 1520 512 1520 c 0,12,13
EndSplineSet
EndChar
StartChar: plusminus
Encoding: 177 177 177
Width: 1716
Flags: W
LayerCount: 2
Fore
SplineSet
938 1284 m 1,0,-1
 938 893 l 1,1,-1
 1499 893 l 1,2,-1
 1499 731 l 1,3,-1
 938 731 l 1,4,-1
 938 340 l 1,5,-1
 778 340 l 1,6,-1
 778 731 l 1,7,-1
 217 731 l 1,8,-1
 217 893 l 1,9,-1
 778 893 l 1,10,-1
 778 1284 l 1,11,-1
 938 1284 l 1,0,-1
217 160 m 1,12,-1
 1499 160 l 1,13,-1
 1499 0 l 1,14,-1
 217 0 l 1,15,-1
 217 160 l 1,12,-1
EndSplineSet
EndChar
StartChar: twosuperior
Encoding: 178 178 178
Width: 821
Flags: W
LayerCount: 2
Fore
SplineSet
209.265 1296 m 1,0,-1
 139.265 1296 l 1,1,-1
 169.977 1454 l 1,2,3
 242.197 1486 242.197 1486 315.502 1503 c 128,-1,4
 388.806 1520 388.806 1520 457.806 1520 c 0,5,6
 595.806 1520 595.806 1520 668.477 1454 c 128,-1,7
 741.147 1388 741.147 1388 720.933 1284 c 0,8,9
 697.218 1162 697.218 1162 469.396 988 c 2,10,-1
 447.091 971 l 1,11,-1
 167.3 756 l 1,12,-1
 552.3 756 l 1,13,-1
 573.293 864 l 1,14,-1
 647.293 864 l 1,15,-1
 609.194 668 l 1,16,-1
 7.19434 668 l 1,17,-1
 21.7725 743 l 1,18,-1
 356.146 997 l 2,19,20
 457.112 1074 457.112 1074 505.97 1135 c 128,-1,21
 554.827 1196 554.827 1196 567.656 1262 c 0,22,23
 584.178 1347 584.178 1347 545.3 1396.5 c 128,-1,24
 506.422 1446 506.422 1446 422.422 1446 c 0,25,26
 344.422 1446 344.422 1446 290.035 1408 c 128,-1,27
 235.649 1370 235.649 1370 209.265 1296 c 1,0,-1
EndSplineSet
EndChar
StartChar: threesuperior
Encoding: 179 179 179
Width: 821
Flags: W
LayerCount: 2
Fore
SplineSet
199.156 1468 m 1,0,1
 277.21 1494 277.21 1494 346.737 1507 c 128,-1,2
 416.264 1520 416.264 1520 475.264 1520 c 0,3,4
 613.264 1520 613.264 1520 677.268 1466 c 128,-1,5
 741.271 1412 741.271 1412 722.027 1313 c 0,6,7
 708.032 1241 708.032 1241 645.312 1191 c 128,-1,8
 582.594 1141 582.594 1141 484.289 1124 c 1,9,10
 600.179 1108 600.179 1108 649.113 1048.5 c 128,-1,11
 698.048 989 698.048 989 678.61 889 c 0,12,13
 656.45 775 656.45 775 557.094 714 c 128,-1,14
 457.736 653 457.736 653 294.736 653 c 0,15,16
 222.736 653 222.736 653 155.957 667 c 128,-1,17
 89.1787 681 89.1787 681 26.6211 709 c 1,18,-1
 59.666 879 l 1,19,-1
 129.472 878 l 1,20,21
 120.088 804 120.088 804 161.604 765.5 c 128,-1,22
 203.12 727 203.12 727 295.12 727 c 0,23,24
 389.12 727 389.12 727 448.673 771 c 128,-1,25
 508.226 815 508.226 815 524.165 897 c 0,26,27
 542.242 990 542.242 990 500.476 1037.5 c 128,-1,28
 458.708 1085 458.708 1085 357.708 1085 c 2,29,-1
 304.708 1085 l 1,30,-1
 319.093 1159 l 1,31,-1
 346.093 1159 l 2,32,33
 443.093 1159 443.093 1159 499.784 1196 c 128,-1,34
 556.477 1233 556.477 1233 570.861 1307 c 0,35,36
 583.885 1374 583.885 1374 550.382 1410 c 128,-1,37
 516.88 1446 516.88 1446 440.88 1446 c 0,38,39
 358.88 1446 358.88 1446 309.159 1414 c 128,-1,40
 259.439 1382 259.439 1382 239.805 1317 c 1,41,-1
 169.805 1317 l 1,42,-1
 199.156 1468 l 1,0,1
EndSplineSet
EndChar
StartChar: acute
Encoding: 180 180 180
Width: 1024
Flags: W
LayerCount: 2
Fore
SplineSet
858 1638 m 1,0,-1
 1057 1638 l 1,1,-1
 643 1262 l 1,2,-1
 526 1262 l 1,3,-1
 858 1638 l 1,0,-1
EndSplineSet
LCarets2: 1 0 
EndChar
StartChar: mu
Encoding: 181 181 181
Width: 1331
Flags: W
LayerCount: 2
Fore
SplineSet
1043.72 1063 m 1,0,-1
 1227.72 1063 l 1,1,-1
 1041.31 104 l 1,2,-1
 1215.31 104 l 1,3,-1
 1195.09 0 l 1,4,-1
 837.09 0 l 1,5,-1
 873.63 188 l 1,6,7
 801.03 82 801.03 82 716.74 26.5 c 0,8,9
 632.45 -29 632.45 -29 542.45 -29 c 0,10,11
 485.45 -29 485.45 -29 441.95 -11 c 0,12,13
 398.45 7 398.45 7 366.45 43 c 1,14,-1
 275.28 -426 l 1,15,-1
 91.28 -426 l 1,16,-1
 359.92 956 l 1,17,-1
 193.92 956 l 1,18,-1
 214.72 1063 l 1,19,-1
 564.72 1063 l 1,20,-1
 444.39 444 l 2,21,22
 424.57 341.99 424.57 341.99 424.57 273.71 c 0,23,24
 424.57 212.14 424.57 212.14 440.69 178 c 0,25,26
 474.69 106 474.69 106 595.69 106 c 0,27,28
 723.69 106 723.69 106 808.97 200 c 0,29,30
 894.24 294 894.24 294 929.03 473 c 2,31,-1
 1043.72 1063 l 1,0,-1
EndSplineSet
EndChar
StartChar: paragraph
Encoding: 182 182 182
Width: 1303
Flags: W
LayerCount: 2
Fore
SplineSet
797.251 1493 m 2,0,-1
 1335.25 1493 l 1,1,-1
 1314.45 1386 l 1,2,-1
 1196.45 1386 l 1,3,-1
 888.749 -197 l 1,4,-1
 781.749 -197 l 1,5,-1
 1089.45 1386 l 1,6,-1
 858.453 1386 l 1,7,-1
 550.749 -197 l 1,8,-1
 443.749 -197 l 1,9,-1
 608.194 649 l 1,10,11
 396.499 666 396.499 666 300.478 776.5 c 128,-1,12
 204.457 887 204.457 887 240.223 1071 c 0,13,14
 277.155 1261 277.155 1261 429.703 1377 c 128,-1,15
 582.251 1493 582.251 1493 797.251 1493 c 2,0,-1
EndSplineSet
EndChar
StartChar: periodcentered
Encoding: 183 183 183
Width: 651
Flags: W
LayerCount: 2
Fore
SplineSet
190 711 m 0,0,1
 200.886 767 200.886 767 246.869 805.5 c 128,-1,2
 292.853 844 292.853 844 349.853 844 c 0,3,4
 404.853 844 404.853 844 436.271 805 c 128,-1,5
 467.691 766 467.691 766 457 711 c 0,6,7
 446.114 655 446.114 655 399.631 616.5 c 128,-1,8
 353.147 578 353.147 578 298.147 578 c 0,9,10
 241.147 578 241.147 578 210.034 616 c 128,-1,11
 178.92 654 178.92 654 190 711 c 0,0,1
EndSplineSet
EndChar
StartChar: cedilla
Encoding: 184 184 184
Width: 1024
Flags: W
LayerCount: 2
Fore
SplineSet
616.39 0 m 1,0,1
 667.95 -64 667.95 -64 688.564 -120 c 128,-1,2
 709.179 -176 709.179 -176 699.654 -225 c 0,3,4
 683.91 -306 683.91 -306 612.26 -350.5 c 128,-1,5
 540.61 -395 540.61 -395 428.61 -395 c 0,6,7
 386.61 -395 386.61 -395 343.776 -389 c 128,-1,8
 300.942 -383 300.942 -383 257.275 -371 c 1,9,-1
 282.739 -240 l 1,10,11
 320.435 -257 320.435 -257 358.282 -265.5 c 128,-1,12
 396.13 -274 396.13 -274 431.13 -274 c 0,13,14
 488.13 -274 488.13 -274 526.281 -247.5 c 128,-1,15
 564.432 -221 564.432 -221 573.179 -176 c 0,16,17
 578.622 -148 578.622 -148 565.175 -104 c 128,-1,18
 551.728 -60 551.728 -60 519.39 0 c 1,19,-1
 616.39 0 l 1,0,1
EndSplineSet
EndChar
StartChar: onesuperior
Encoding: 185 185 185
Width: 821
Flags: W
LayerCount: 2
Fore
SplineSet
94.8467 668 m 1,0,-1
 111.174 752 l 1,1,-1
 283.174 752 l 1,2,-1
 406.411 1386 l 1,3,-1
 184.807 1280 l 1,4,-1
 203.079 1374 l 1,5,-1
 468.153 1503 l 1,6,-1
 570.153 1503 l 1,7,-1
 424.174 752 l 1,8,-1
 597.174 752 l 1,9,-1
 580.847 668 l 1,10,-1
 94.8467 668 l 1,0,-1
EndSplineSet
EndChar
StartChar: ordmasculine
Encoding: 186 186 186
Width: 963
Flags: W
LayerCount: 2
Fore
SplineSet
439.306 813 m 0,0,1
 545.306 813 545.306 813 614.259 892.5 c 128,-1,2
 683.212 972 683.212 972 713.535 1128 c 0,3,4
 743.858 1284 743.858 1284 705.409 1364 c 128,-1,5
 666.959 1444 666.959 1444 561.959 1444 c 0,6,7
 457.959 1444 457.959 1444 387.715 1363 c 128,-1,8
 317.47 1282 317.47 1282 287.535 1128 c 0,9,10
 257.406 973 257.406 973 295.855 893 c 128,-1,11
 334.306 813 334.306 813 439.306 813 c 0,0,1
424.532 737 m 0,12,13
 249.532 737 249.532 737 164.429 844.5 c 128,-1,14
 79.3242 952 79.3242 952 113.535 1128 c 0,15,16
 147.94 1305 147.94 1305 274.836 1412.5 c 128,-1,17
 401.732 1520 401.732 1520 576.732 1520 c 0,18,19
 751.732 1520 751.732 1520 836.836 1412.5 c 128,-1,20
 921.94 1305 921.94 1305 887.535 1128 c 0,21,22
 853.13 951 853.13 951 726.831 844 c 128,-1,23
 600.532 737 600.532 737 424.532 737 c 0,12,13
61.4834 639 m 1,24,-1
 749.483 639 l 1,25,-1
 729.268 535 l 1,26,-1
 41.2676 535 l 1,27,-1
 61.4834 639 l 1,24,-1
EndSplineSet
EndChar
StartChar: guillemotright
Encoding: 187 187 187
Width: 1253
Flags: W
LayerCount: 2
Fore
SplineSet
716.221 1059 m 1,0,-1
 1103.97 641 l 1,1,-1
 1088.03 559 l 1,2,-1
 537.779 141 l 1,3,-1
 560.133 256 l 1,4,-1
 924 600 l 1,5,-1
 693.867 944 l 1,6,-1
 716.221 1059 l 1,0,-1
282.221 1059 m 1,7,-1
 669.97 641 l 1,8,-1
 654.03 559 l 1,9,-1
 103.779 141 l 1,10,-1
 126.133 256 l 1,11,-1
 489 600 l 1,12,-1
 259.867 944 l 1,13,-1
 282.221 1059 l 1,7,-1
EndSplineSet
EndChar
StartChar: questiondown
Encoding: 191 191 191
Width: 1098
Flags: W
LayerCount: 2
Fore
SplineSet
902.695 1389 m 0,0,1
 891.81 1333 891.81 1333 845.729 1294 c 128,-1,2
 799.648 1255 799.648 1255 743.648 1255 c 0,3,4
 688.648 1255 688.648 1255 657.229 1294 c 128,-1,5
 625.81 1333 625.81 1333 636.695 1389 c 0,6,7
 647.386 1444 647.386 1444 693.967 1483 c 128,-1,8
 740.548 1522 740.548 1522 795.548 1522 c 0,9,10
 852.548 1522 852.548 1522 883.063 1483.5 c 128,-1,11
 913.58 1445 913.58 1445 902.695 1389 c 0,0,1
866.53 66 m 1,12,13
 751.394 19 751.394 19 651.923 -4 c 128,-1,14
 552.452 -27 552.452 -27 467.452 -27 c 0,15,16
 246.452 -27 246.452 -27 138.251 80 c 128,-1,17
 30.0498 187 30.0498 187 65.4268 369 c 0,18,19
 101.582 555 101.582 555 235.519 673 c 128,-1,20
 369.455 791 369.455 791 602.369 842 c 1,21,-1
 651.741 1096 l 1,22,-1
 774.741 1096 l 1,23,-1
 710.984 768 l 1,24,25
 525.626 725 525.626 725 415.994 624 c 128,-1,26
 306.361 523 306.361 523 276.038 367 c 0,27,28
 249.408 230 249.408 230 307.552 151 c 128,-1,29
 365.696 72 365.696 72 491.696 72 c 0,30,31
 604.696 72 604.696 72 690.428 137.5 c 128,-1,32
 776.16 203 776.16 203 821.068 326 c 1,33,-1
 917.068 326 l 1,34,-1
 866.53 66 l 1,12,13
EndSplineSet
EndChar
StartChar: Aring
Encoding: 197 197 197
Width: 1479
Flags: W
LayerCount: 2
Fore
SplineSet
1018.3 1626 m 0,0,1
 1030.55 1689 1030.55 1689 994.7 1733.5 c 128,-1,2
 958.85 1778 958.85 1778 895.85 1778 c 0,3,4
 831.85 1778 831.85 1778 779.895 1734.5 c 128,-1,5
 727.938 1691 727.938 1691 715.304 1626 c 0,6,7
 703.058 1563 703.058 1563 738.005 1519 c 128,-1,8
 772.952 1475 772.952 1475 836.952 1475 c 0,9,10
 899.952 1475 899.952 1475 953.005 1519 c 128,-1,11
 1006.06 1563 1006.06 1563 1018.3 1626 c 0,0,1
330.401 541 m 1,12,-1
 876.401 541 l 1,13,-1
 742.411 1251 l 1,14,-1
 330.401 541 l 1,12,-1
-196.759 0 m 1,15,-1
 -176.154 106 l 1,16,-1
 -45.1543 106 l 1,17,-1
 692.264 1384 l 1,18,19
 627.456 1421 627.456 1421 601.813 1482 c 128,-1,20
 576.17 1543 576.17 1543 592.304 1626 c 0,21,22
 614.463 1740 614.463 1740 710.111 1820.5 c 128,-1,23
 805.759 1901 805.759 1901 919.759 1901 c 0,24,25
 1033.76 1901 1033.76 1901 1098.61 1820.5 c 128,-1,26
 1163.46 1740 1163.46 1740 1141.3 1626 c 0,27,28
 1125.75 1546 1125.75 1546 1074.41 1482.5 c 128,-1,29
 1023.07 1419 1023.07 1419 944.264 1384 c 1,30,-1
 1187.85 106 l 1,31,-1
 1334.85 106 l 1,32,-1
 1314.24 0 l 1,33,-1
 771.241 0 l 1,34,-1
 791.846 106 l 1,35,-1
 957.846 106 l 1,36,-1
 896.603 434 l 1,37,-1
 268.603 434 l 1,38,-1
 79.8457 106 l 1,39,-1
 243.846 106 l 1,40,-1
 223.241 0 l 1,41,-1
 -196.759 0 l 1,15,-1
EndSplineSet
EndChar
StartChar: AE
Encoding: 198 198 198
Width: 2050
Flags: W
AnchorPoint: "below" 1055.9 0 basechar 0
AnchorPoint: "above" 1340.66 1465 basechar 0
LayerCount: 2
Fore
SplineSet
386.055 541 m 1,0,-1
 875.055 541 l 1,1,-1
 1039.31 1386 l 1,2,-1
 939.307 1386 l 1,3,-1
 386.055 541 l 1,0,-1
579.896 0 m 1,4,-1
 600.499 106 l 1,5,-1
 790.499 106 l 1,6,-1
 854.256 434 l 1,7,-1
 316.256 434 l 1,8,-1
 100.499 106 l 1,9,-1
 264.499 106 l 1,10,-1
 243.896 0 l 1,11,-1
 -180.104 0 l 1,12,-1
 -159.501 106 l 1,13,-1
 -28.501 106 l 1,14,-1
 810.307 1386 l 1,15,-1
 595.307 1386 l 1,16,-1
 616.104 1493 l 1,17,-1
 2072.1 1493 l 1,18,-1
 2007.57 1161 l 1,19,-1
 1884.57 1161 l 1,20,-1
 1925.2 1370 l 1,21,-1
 1237.2 1370 l 1,22,-1
 1140.01 870 l 1,23,-1
 1632.01 870 l 1,24,-1
 1668.36 1057 l 1,25,-1
 1791.36 1057 l 1,26,-1
 1694.94 561 l 1,27,-1
 1571.94 561 l 1,28,-1
 1608.29 748 l 1,29,-1
 1116.29 748 l 1,30,-1
 994.804 123 l 1,31,-1
 1699.8 123 l 1,32,-1
 1740.43 332 l 1,33,-1
 1863.43 332 l 1,34,-1
 1798.9 0 l 1,35,-1
 579.896 0 l 1,4,-1
EndSplineSet
EndChar
StartChar: Eth
Encoding: 208 208 208
Width: 1653
Flags: W
LayerCount: 2
Fore
SplineSet
389.499 106 m 1,0,-1
 577.499 106 l 2,1,2
 868.499 106 868.499 106 1056.77 272 c 128,-1,3
 1245.03 438 1245.03 438 1305.29 748 c 0,4,5
 1365.55 1058 1365.55 1058 1241.93 1222 c 128,-1,6
 1118.31 1386 1118.31 1386 826.307 1386 c 2,7,-1
 638.307 1386 l 1,8,-1
 532.952 844 l 1,9,-1
 868.952 844 l 1,10,-1
 844.654 719 l 1,11,-1
 508.654 719 l 1,12,-1
 389.499 106 l 1,0,-1
-22.1045 0 m 1,13,-1
 -1.50098 106 l 1,14,-1
 188.499 106 l 1,15,-1
 307.654 719 l 1,16,-1
 107.654 719 l 1,17,-1
 131.952 844 l 1,18,-1
 331.952 844 l 1,19,-1
 437.307 1386 l 1,20,-1
 247.307 1386 l 1,21,-1
 268.104 1493 l 1,22,-1
 862.104 1493 l 2,23,24
 1248.1 1493 1248.1 1493 1425.31 1296 c 128,-1,25
 1602.52 1099 1602.52 1099 1534.29 748 c 0,26,27
 1465.87 396 1465.87 396 1211.38 198 c 128,-1,28
 956.896 0 956.896 0 571.896 0 c 2,29,-1
 -22.1045 0 l 1,13,-1
EndSplineSet
EndChar
StartChar: multiply
Encoding: 215 215 215
Width: 1716
Flags: W
LayerCount: 2
Fore
SplineSet
1434 1104 m 1,0,-1
 971 641 l 1,1,-1
 1434 180 l 1,2,-1
 1319 68 l 1,3,-1
 858 528 l 1,4,-1
 397 68 l 1,5,-1
 283 180 l 1,6,-1
 743 641 l 1,7,-1
 283 1104 l 1,8,-1
 397 1217 l 1,9,-1
 858 756 l 1,10,-1
 1319 1217 l 1,11,-1
 1434 1104 l 1,0,-1
EndSplineSet
EndChar
StartChar: Oslash
Encoding: 216 216 216
Width: 1679
Flags: W
AnchorPoint: "below" 695.09 0 basechar 0
AnchorPoint: "above" 979.856 1465 basechar 0
LayerCount: 2
Fore
SplineSet
1309.73 1239 m 1,0,1
 1261.84 1327 1261.84 1327 1177.7 1370 c 128,-1,2
 1093.55 1413 1093.55 1413 969.555 1413 c 0,3,4
 723.555 1413 723.555 1413 565.802 1244.5 c 128,-1,5
 408.048 1076 408.048 1076 343.708 745 c 0,6,7
 320.577 626 320.577 626 317.819 529.5 c 128,-1,8
 315.062 433 315.062 433 333.317 352 c 1,9,-1
 1309.73 1239 l 1,0,1
367.656 256 m 1,10,11
 414.356 167 414.356 167 499.707 122.5 c 128,-1,12
 585.057 78 585.057 78 710.057 78 c 0,13,14
 955.057 78 955.057 78 1112.81 246.5 c 128,-1,15
 1270.56 415 1270.56 415 1334.71 745 c 0,16,17
 1357.45 862 1357.45 862 1360.1 960.5 c 128,-1,18
 1362.74 1059 1362.74 1059 1344.68 1141 c 1,19,-1
 367.656 256 l 1,10,11
1493.92 1276 m 1,20,21
 1559.93 1168 1559.93 1168 1577.87 1036.5 c 128,-1,22
 1595.81 905 1595.81 905 1564.71 745 c 0,23,24
 1497.65 400 1497.65 400 1255.45 185.5 c 128,-1,25
 1013.26 -29 1013.26 -29 689.258 -29 c 0,26,27
 548.258 -29 548.258 -29 437.616 14 c 128,-1,28
 326.975 57 326.975 57 242.691 143 c 1,29,-1
 21.8154 -57 l 1,30,-1
 -42.7725 12 l 1,31,-1
 184.465 219 l 1,32,33
 117.874 324 117.874 324 100.741 454.5 c 128,-1,34
 83.6074 585 83.6074 585 114.708 745 c 0,35,36
 181.964 1091 181.964 1091 424.658 1305.5 c 128,-1,37
 667.354 1520 667.354 1520 990.354 1520 c 0,38,39
 1131.35 1520 1131.35 1520 1243.09 1477.5 c 128,-1,40
 1354.83 1435 1354.83 1435 1434.7 1352 c 1,41,-1
 1651.18 1550 l 1,42,-1
 1717.38 1479 l 1,43,-1
 1493.92 1276 l 1,20,21
EndSplineSet
EndChar
StartChar: Thorn
Encoding: 222 222 222
Width: 1384
Flags: W
LayerCount: 2
Fore
SplineSet
445.256 434 m 1,0,-1
 709.256 434 l 2,1,2
 858.256 434 858.256 434 951.903 514.5 c 128,-1,3
 1045.55 595 1045.55 595 1075.29 748 c 0,4,5
 1104.84 900 1104.84 900 1042.49 980.5 c 128,-1,6
 980.133 1061 980.133 1061 831.133 1061 c 2,7,-1
 567.133 1061 l 1,8,-1
 445.256 434 l 1,0,-1
-32.1045 0 m 1,9,-1
 -11.501 106 l 1,10,-1
 178.499 106 l 1,11,-1
 427.307 1386 l 1,12,-1
 237.307 1386 l 1,13,-1
 258.104 1493 l 1,14,-1
 882.104 1493 l 1,15,-1
 861.307 1386 l 1,16,-1
 630.307 1386 l 1,17,-1
 587.737 1167 l 1,18,-1
 900.737 1167 l 2,19,20
 1124.74 1167 1124.74 1167 1233.67 1053.5 c 128,-1,21
 1342.61 940 1342.61 940 1305.29 748 c 0,22,23
 1267.58 554 1267.58 554 1113.92 440 c 128,-1,24
 960.263 326 960.263 326 737.263 326 c 2,25,-1
 424.263 326 l 1,26,-1
 381.499 106 l 1,27,-1
 612.499 106 l 1,28,-1
 591.896 0 l 1,29,-1
 -32.1045 0 l 1,9,-1
EndSplineSet
EndChar
StartChar: germandbls
Encoding: 223 223 223
Width: 1368
Flags: W
LayerCount: 2
Fore
SplineSet
1027 1210 m 1,0,1
 1042 1329 1042 1329 985 1393.5 c 128,-1,2
 928 1458 928 1458 809 1458 c 0,3,4
 677 1458 677 1458 603.5 1393.5 c 128,-1,5
 530 1329 530 1329 503 1190 c 2,14,-1
 259 -66 l 2,15,16
 224 -244 224 -244 114 -335 c 128,-1,17
 4 -426 4 -426 -175 -426 c 1,18,-1
 -163 -328 l 1,19,20
 -58 -328 -58 -328 -7 -272 c 0,21,22
 46 -212 46 -212 75 -66 c 2,23,-1
 318 1186 l 2,24,-1
 352 1362 352 1362 485.5 1459 c 128,-1,13
 619 1556 619 1556 828 1556 c 0,14,15
 1041 1556 1041 1556 1132.5 1452 c 128,-1,16
 1224 1348 1224 1348 1195 1137 c 1,17,-1
 1173 1137 l 2,18,19
 1028 1137 1028 1137 934 1083 c 128,-1,20
 840 1029 840 1029 822 936 c 0,21,22
 811 884 811 884 830.5 845.5 c 128,-1,23
 850 807 850 807 914 760 c 1,24,-1
 993 705 l 1,25,26
 1128 606 1128 606 1171 521 c 128,-1,27
 1214 436 1214 436 1192 322 c 0,28,29
 1162 167 1162 167 1027.5 69 c 128,-1,30
 893 -29 893 -29 708 -29 c 0,31,32
 623 -29 623 -29 542.5 -10.5 c 128,-1,33
 462 8 462 8 390 43 c 1,34,-1
 435 276 l 1,35,-1
 544 276 l 1,36,37
 529 175 529 175 574 122.5 c 128,-1,38
 619 70 619 70 721 70 c 0,39,40
 832 70 832 70 907.5 130.5 c 128,-1,41
 983 191 983 191 1003 295 c 0,42,43
 1019 379 1019 379 991 438 c 0,44,45
 962 495 962 495 859 569 c 2,45,-1
 784 623 l 2,46,47
 692 689 692 689 660 752 c 0,48,49
 628 817 628 817 644 899 c 0,49,50
 668 1021 668 1021 768.5 1103 c 128,-1,51
 869 1185 869 1185 1027 1210 c 1,0,1
EndSplineSet
EndChar
StartChar: ae
Encoding: 230 230 230
Width: 1925
Flags: W
AnchorPoint: "below" 800.782 0 basechar 0
AnchorPoint: "above" 1012.09 1092 basechar 0
LayerCount: 2
Fore
SplineSet
1526 632 m 0,0,1
 1638 698 1638 698 1638 822 c 0,2,3
 1638 993 1638 993 1411 993 c 0,4,5
 1277 993 1277 993 1184 891 c 128,-1,6
 1091 789 1091 789 1034 514 c 1,7,8
 1351 528 1351 528 1526 632 c 0,0,1
1195 -29 m 0,9,10
 957 -29 957 -29 851 167 c 1,11,12
 707 -29 707 -29 410.41 -29.1074 c 0,13,14
 403 -29 403 -29 396 -29 c 0,15,16
 220 -29 220 -29 131 90 c 0,17,18
 69 174 69 174 69 294 c 0,19,20
 69 345 69 345 80 402 c 0,21,22
 148 755 148 755 394 937 c 0,23,24
 603 1092 603 1092 856 1092 c 0,25,26
 1026 1092 1026 1092 1084 1063 c 1,27,-1
 1065 966 l 1,28,29
 1224 1092 1224 1092 1442 1092 c 0,30,31
 1833 1092 1833 1092 1833 815 c 0,32,33
 1833 416 1833 416 1013 408 c 1,34,35
 1009 370 1009 370 1009 336 c 0,36,37
 1009 242 1009 242 1043 180 c 0,38,39
 1102 70 1102 70 1260 70 c 0,40,41
 1376 70 1376 70 1433 105 c 0,42,43
 1535 168 1535 168 1559 249 c 1,44,-1
 1694 249 l 1,45,46
 1654 122 1654 122 1505 33 c 0,47,48
 1401 -29 1401 -29 1195 -29 c 0,9,10
276 415 m 0,49,50
 263 350 263 350 263 297 c 0,51,52
 263 86 263 86 470 86 c 0,53,54
 596 86 596 86 681.5 186.5 c 128,-1,55
 767 287 767 287 805 479 c 2,56,-1
 898 961 l 1,57,58
 898 990 898 990 818 990 c 0,59,60
 626 990 626 990 477 840 c 0,61,62
 329 689 329 689 276 415 c 0,49,50
EndSplineSet
AlternateSubs2: "'aalt' Access All Alternates" ae.alt
Substitution2: "'salt' Stylistic Alternatives" ae.alt
EndChar
StartChar: eth
Encoding: 240 240 240
Width: 1233
Flags: W
LayerCount: 2
Fore
SplineSet
852.976 928 m 1,0,1
 809.725 937 809.725 937 770.1 941.5 c 128,-1,2
 730.475 946 730.475 946 690.475 946 c 0,3,4
 517.475 946 517.475 946 414.176 839 c 128,-1,5
 310.877 732 310.877 732 267.336 508 c 0,6,7
 226.516 298 226.516 298 282.856 184 c 128,-1,8
 339.197 70 339.197 70 481.197 70 c 0,9,10
 625.197 70 625.197 70 724.954 184.5 c 128,-1,11
 824.71 299 824.71 299 866.113 512 c 0,12,13
 887.884 624 887.884 624 884.891 729.5 c 128,-1,14
 881.898 835 881.898 835 852.976 928 c 1,0,1
865.646 1307 m 1,15,16
 1016.18 1140 1016.18 1140 1071.68 944.5 c 128,-1,17
 1127.18 749 1127.18 749 1085 532 c 0,18,19
 1035.63 278 1035.63 278 865.291 124.5 c 128,-1,20
 694.953 -29 694.953 -29 461.953 -29 c 0,21,22
 232.953 -29 232.953 -29 119.902 122.5 c 128,-1,23
 6.85059 274 6.85059 274 54.2793 518 c 0,24,25
 100.153 754 100.153 754 269.339 899 c 128,-1,26
 438.523 1044 438.523 1044 666.523 1044 c 0,27,28
 701.523 1044 701.523 1044 738.44 1041 c 128,-1,29
 775.357 1038 775.357 1038 825.803 1030 c 1,30,31
 814.104 1083 814.104 1083 788.004 1136.5 c 128,-1,32
 761.903 1190 761.903 1190 722.594 1245 c 1,33,-1
 371.632 1096 l 1,34,-1
 349.793 1174 l 1,35,-1
 669.034 1309 l 1,36,37
 619.309 1367 619.309 1367 548.681 1407.5 c 128,-1,38
 478.054 1448 478.054 1448 387.33 1470 c 1,39,-1
 422.047 1556 l 1,40,41
 535.992 1530 535.992 1530 631.356 1483 c 128,-1,42
 726.721 1436 726.721 1436 805.503 1368 c 1,43,-1
 1156.66 1518 l 1,44,-1
 1178.5 1440 l 1,45,-1
 865.646 1307 l 1,15,16
EndSplineSet
EndChar
StartChar: divide
Encoding: 247 247 247
Width: 1716
Flags: W
LayerCount: 2
Fore
SplineSet
725 1012 m 0,0,1
 725 1068 725 1068 763.5 1106.5 c 128,-1,2
 802 1145 802 1145 858 1145 c 0,3,4
 913 1145 913 1145 952 1106 c 128,-1,5
 991 1067 991 1067 991 1012 c 0,6,7
 991 956 991 956 952 917.5 c 128,-1,8
 913 879 913 879 858 879 c 0,9,10
 801 879 801 879 763 917 c 128,-1,11
 725 955 725 955 725 1012 c 0,0,1
725 272 m 0,12,13
 725 328 725 328 763.5 367 c 128,-1,14
 802 406 802 406 858 406 c 0,15,16
 913 406 913 406 952 367 c 128,-1,17
 991 328 991 328 991 272 c 0,18,19
 991 217 991 217 952 178 c 128,-1,20
 913 139 913 139 858 139 c 0,21,22
 801 139 801 139 763 177.5 c 128,-1,23
 725 216 725 216 725 272 c 0,12,13
217 723 m 1,24,-1
 1499 723 l 1,25,-1
 1499 561 l 1,26,-1
 217 561 l 1,27,-1
 217 723 l 1,24,-1
EndSplineSet
EndChar
StartChar: oslash
Encoding: 248 248 248
Width: 1233
Flags: W
AnchorPoint: "above" 724 1092 basechar 0
AnchorPoint: "below" 512.687 0 basechar 0
LayerCount: 2
Fore
SplineSet
907.547 879 m 1,0,1
 880.627 936 880.627 936 830.167 964.5 c 128,-1,2
 779.707 993 779.707 993 705.706 993 c 0,3,4
 558.707 993 558.707 993 459.964 876 c 128,-1,5
 361.222 759 361.222 759 317.098 532 c 0,6,7
 303.102 460 303.102 460 299.134 401 c 128,-1,8
 295.165 342 295.165 342 299.641 293 c 1,9,-1
 907.547 879 l 1,0,1
324.619 190 m 1,10,11
 352.762 129 352.762 129 402.527 99.5 c 128,-1,12
 452.294 70 452.294 70 526.294 70 c 0,13,14
 673.294 70 673.294 70 772.133 187.5 c 128,-1,15
 870.973 305 870.973 305 915.098 532 c 0,16,17
 929.87 608 929.87 608 934.13 668.5 c 128,-1,18
 938.39 729 938.39 729 933.304 780 c 1,19,-1
 324.619 190 l 1,10,11
1079.91 922 m 1,20,21
 1127.52 848 1127.52 848 1140.28 749 c 128,-1,22
 1153.03 650 1153.03 650 1130.1 532 c 0,23,24
 1080.72 278 1080.72 278 910.388 124.5 c 128,-1,25
 740.05 -29 740.05 -29 507.05 -29 c 0,26,27
 413.05 -29 413.05 -29 338.201 -2.5 c 128,-1,28
 263.352 24 263.352 24 206.849 78 c 1,29,-1
 30.415 -94 l 1,30,-1
 -33.3389 -31 l 1,31,-1
 150.261 147 l 1,32,33
 104.229 224 104.229 224 91.9854 320.5 c 128,-1,34
 79.7432 417 79.7432 417 102.098 532 c 0,35,36
 151.47 786 151.47 786 321.71 939 c 128,-1,37
 491.95 1092 491.95 1092 724.95 1092 c 0,38,39
 818.95 1092 818.95 1092 893.993 1066.5 c 128,-1,40
 969.037 1041 969.037 1041 1023.32 991 c 1,41,-1
 1194.58 1157 l 1,42,-1
 1258.34 1094 l 1,43,-1
 1079.91 922 l 1,20,21
EndSplineSet
EndChar
StartChar: thorn
Encoding: 254 254 254
Width: 1311
Flags: W
LayerCount: 2
Fore
SplineSet
423.69 584 m 2,0,-1
 403.28 479 l 2,1,2
 388.02 400.5 388.02 400.5 388.02 337.3 c 0,3,4
 388.02 245.91 388.02 245.91 419.93 186.5 c 0,5,6
 473.89 86 473.89 86 613.89 86 c 0,7,8
 754.89 86 754.89 86 849.36 199 c 0,9,10
 943.82 312 943.82 312 986.59 532 c 0,11,12
 1006.28 633.33 1006.28 633.33 1006.28 711.75 c 0,13,14
 1006.28 804.35 1006.28 804.35 978.81 865 c 0,15,16
 928.08 977 928.08 977 787.08 977 c 0,17,18
 647.08 977 647.08 977 553.95 876 c 128,-1,19
 460.82 775 460.82 775 423.69 584 c 2,0,-1
408.03 1450 m 1,20,-1
 231.03 1450 l 1,21,-1
 251.63 1556 l 1,22,-1
 612.63 1556 l 1,23,-1
 484.53 897 l 1,24,25
 557.97 997 557.97 997 650.71 1044.5 c 0,26,27
 743.44 1092 743.44 1092 866.44 1092 c 0,28,29
 1062.44 1092 1062.44 1092 1156.31 937 c 0,30,31
 1218.16 834.87 1218.16 834.87 1218.16 691.5 c 0,32,33
 1218.16 617.27 1218.16 617.27 1201.59 532 c 0,34,35
 1152.99 282 1152.99 282 998.76 126.5 c 0,36,37
 844.54 -29 844.54 -29 648.54 -29 c 0,38,39
 525.54 -29 525.54 -29 451.27 18.5 c 128,-1,40
 377 66 377 66 342.44 166 c 1,41,-1
 227.37 -426 l 1,42,-1
 43.37 -426 l 1,43,-1
 408.03 1450 l 1,20,-1
EndSplineSet
EndChar
StartChar: dcroat
Encoding: 273 273 273
Width: 1311
Flags: W
LayerCount: 2
Fore
SplineSet
1165.1 1227 m 1,0,-1
 926.59 0 l 1,1,-1
 742.59 0 l 1,2,-1
 774.86 166 l 1,3,4
 701.42 66 701.42 66 608.69 18.5 c 0,5,6
 515.95 -29 515.95 -29 392.95 -29 c 0,7,8
 196.95 -29 196.95 -29 102.68 126.5 c 0,9,10
 40.47 229.11 40.47 229.11 40.47 372.86 c 0,11,12
 40.47 446.97 40.47 446.97 57 532 c 0,13,14
 105.6 782 105.6 782 259.72 937 c 0,15,16
 413.85 1092 413.85 1092 610.85 1092 c 0,17,18
 733.85 1092 733.85 1092 808.12 1044.5 c 128,-1,19
 882.39 997 882.39 997 916.95 897 c 1,20,-1
 981.1 1227 l 1,21,-1
 655.1 1227 l 1,22,-1
 675.7 1333 l 1,23,-1
 1001.7 1333 l 1,24,-1
 1024.44 1450 l 1,25,-1
 850.44 1450 l 1,26,-1
 871.05 1556 l 1,27,-1
 1229.05 1556 l 1,28,-1
 1185.7 1333 l 1,29,-1
 1361.7 1333 l 1,30,-1
 1341.1 1227 l 1,31,-1
 1165.1 1227 l 1,0,-1
835.7 479 m 2,32,-1
 856.11 584 l 2,33,34
 871.26 661.93 871.26 661.93 871.26 724.88 c 0,35,36
 871.26 816.21 871.26 816.21 839.37 876 c 0,37,38
 785.5 977 785.5 977 645.5 977 c 0,39,40
 503.5 977 503.5 977 409.23 865 c 0,41,42
 314.96 753 314.96 753 272 532 c 0,43,44
 252.4 431.16 252.4 431.16 252.4 352.8 c 0,45,46
 252.4 260.21 252.4 260.21 279.77 199 c 0,47,48
 330.31 86 330.31 86 472.31 86 c 0,49,50
 612.31 86 612.31 86 705.34 186.5 c 0,51,52
 798.38 287 798.38 287 835.7 479 c 2,32,-1
EndSplineSet
EndChar
StartChar: Hbar
Encoding: 294 294 294
Width: 1786
Flags: W
AnchorPoint: "above" 1038.5 1465 basechar 0
LayerCount: 2
Fore
SplineSet
530 870 m 1,0,-1
 1304 870 l 1,1,-1
 1342 1067 l 1,2,-1
 568 1067 l 1,3,-1
 530 870 l 1,0,-1
-32 0 m 1,4,-1
 -12 106 l 1,5,-1
 178 106 l 1,6,-1
 365 1067 l 1,7,-1
 175 1067 l 1,8,-1
 199 1189 l 1,9,-1
 389 1189 l 1,10,-1
 427 1386 l 1,11,-1
 237 1386 l 1,12,-1
 258 1493 l 1,13,-1
 841 1493 l 1,14,-1
 820 1386 l 1,15,-1
 630 1386 l 1,16,-1
 592 1189 l 1,17,-1
 1366 1189 l 1,18,-1
 1404 1386 l 1,19,-1
 1214 1386 l 1,20,-1
 1235 1493 l 1,21,-1
 1818 1493 l 1,22,-1
 1797 1386 l 1,23,-1
 1607 1386 l 1,24,-1
 1569 1189 l 1,25,-1
 1759 1189 l 1,26,-1
 1735 1067 l 1,27,-1
 1545 1067 l 1,28,-1
 1358 106 l 1,29,-1
 1548 106 l 1,30,-1
 1528 0 l 1,31,-1
 945 0 l 1,32,-1
 965 106 l 1,33,-1
 1155 106 l 1,34,-1
 1280 748 l 1,35,-1
 506 748 l 1,36,-1
 381 106 l 1,37,-1
 571 106 l 1,38,-1
 551 0 l 1,39,-1
 -32 0 l 1,4,-1
EndSplineSet
EndChar
StartChar: hbar
Encoding: 295 295 295
Width: 1319
Flags: W
AnchorPoint: "above" 379.504 1465 basechar 0
LayerCount: 2
Fore
SplineSet
98.77 0 m 1,0,-1
 333.97 1210 l 1,1,-1
 157.97 1210 l 1,2,-1
 181.69 1332 l 1,3,-1
 357.69 1332 l 1,4,-1
 380.62 1450 l 1,5,-1
 204.62 1450 l 1,6,-1
 225.23 1556 l 1,7,-1
 585.23 1556 l 1,8,-1
 541.69 1332 l 1,9,-1
 857.69 1332 l 1,10,-1
 833.97 1210 l 1,11,-1
 517.97 1210 l 1,12,-1
 452.66 874 l 1,13,14
 524.65 982 524.65 982 616.84 1037 c 0,15,16
 709.04 1092 709.04 1092 817.04 1092 c 0,17,18
 993.04 1092 993.04 1092 1056.4 991 c 0,19,20
 1094.66 930.03 1094.66 930.03 1094.66 827.87 c 0,21,22
 1094.66 760.81 1094.66 760.81 1078.17 676 c 2,23,-1
 967.38 106 l 1,24,-1
 1131.38 106 l 1,25,-1
 1110.77 0 l 1,26,-1
 761.77 0 l 1,27,-1
 881.9 618 l 2,28,29
 901.99 721.37 901.99 721.37 901.99 790.03 c 0,30,31
 901.99 850.9 901.99 850.9 886.2 884.5 c 0,32,33
 852.6 956 852.6 956 730.6 956 c 0,34,35
 602.6 956 602.6 956 517.52 863 c 0,36,37
 432.45 770 432.45 770 397.85 592 c 2,38,-1
 282.77 0 l 1,39,-1
 98.77 0 l 1,0,-1
EndSplineSet
EndChar
StartChar: dotlessi
Encoding: 305 305 305
Width: 655
Flags: W
AnchorPoint: "above" 436 1092 basechar 0
LayerCount: 2
Fore
SplineSet
351 106 m 1,0,-1
 525 106 l 1,1,-1
 505 0 l 1,2,-1
 147 0 l 1,3,-1
 333 956 l 1,4,-1
 157 956 l 1,5,-1
 177 1063 l 1,6,-1
 537 1063 l 1,7,-1
 351 106 l 1,0,-1
EndSplineSet
EndChar
StartChar: kgreenlandic
Encoding: 312 312 312
Width: 1241
Flags: W
LayerCount: 2
Fore
SplineSet
316.98 0 m 1,0,-1
 132.98 0 l 1,1,-1
 318.22 953 l 1,2,-1
 141.22 953 l 1,3,-1
 162.02 1060 l 1,4,-1
 523.02 1060 l 1,5,-1
 422.14 541 l 1,6,-1
 950.22 953 l 1,7,-1
 797.22 953 l 1,8,-1
 818.02 1060 l 1,9,-1
 1117.02 1060 l 1,10,-1
 1096.22 953 l 1,11,-1
 723.66 662 l 1,12,-1
 1019.58 106 l 1,13,-1
 1172.58 106 l 1,14,-1
 1151.98 0 l 1,15,-1
 856.98 0 l 1,16,-1
 567.14 541 l 1,17,-1
 395.9 406 l 1,18,-1
 316.98 0 l 1,0,-1
EndSplineSet
EndChar
StartChar: Lslash
Encoding: 321 321 321
Width: 1370
Flags: W
LayerCount: 2
Fore
SplineSet
-22.1045 0 m 1,0,-1
 -1.50098 106 l 1,1,-1
 188.499 106 l 1,2,-1
 281.802 586 l 1,3,-1
 102.837 473 l 1,4,-1
 50.7197 565 l 1,5,-1
 309.21 727 l 1,6,-1
 437.307 1386 l 1,7,-1
 247.307 1386 l 1,8,-1
 268.104 1493 l 1,9,-1
 850.104 1493 l 1,10,-1
 829.307 1386 l 1,11,-1
 638.307 1386 l 1,12,-1
 538.006 870 l 1,13,-1
 888.936 1096 l 1,14,-1
 941.053 1004 l 1,15,-1
 510.599 729 l 1,16,-1
 392.804 123 l 1,17,-1
 1076.8 123 l 1,18,-1
 1125.4 373 l 1,19,-1
 1248.4 373 l 1,20,-1
 1175.9 0 l 1,21,-1
 -22.1045 0 l 1,0,-1
EndSplineSet
EndChar
StartChar: lslash
Encoding: 322 322 322
Width: 664
Flags: W
LayerCount: 2
Fore
SplineSet
297.38 106 m 1,0,-1
 473.38 106 l 1,1,-1
 452.77 0 l 1,2,-1
 92.77 0 l 1,3,-1
 224.95 680 l 1,4,-1
 68.29 584 l 1,5,-1
 24.01 670 l 1,6,-1
 250.41 811 l 1,7,-1
 374.62 1450 l 1,8,-1
 200.62 1450 l 1,9,-1
 221.23 1556 l 1,10,-1
 579.23 1556 l 1,11,-1
 459.49 940 l 1,12,-1
 625.54 1038 l 1,13,-1
 668.82 952 l 1,14,-1
 434.41 811 l 1,15,-1
 297.38 106 l 1,0,-1
EndSplineSet
EndChar
StartChar: Eng
Encoding: 330 330 330
Width: 1726
Flags: W
LayerCount: 2
Fore
SplineSet
818 -181 m 0,0,1
 818 -319 818 -319 964 -319 c 0,2,3
 1083 -319 1083 -319 1144.5 -245 c 128,-1,4
 1206 -171 1206 -171 1249 49 c 2,5,-1
 1410 881 l 2,6,7
 1440 1031 1440 1031 1440 1130 c 128,-1,8
 1440 1229 1440 1229 1414 1282 c 0,9,10
 1360 1391 1360 1391 1165 1391 c 128,-1,11
 970 1391 970 1391 840 1262.5 c 128,-1,12
 710 1134 710 1134 662 887 c 2,13,-1
 511 107 l 1,14,-1
 701 107 l 1,15,-1
 680 0 l 1,16,-1
 96 0 l 1,17,-1
 117 107 l 1,18,-1
 308 107 l 1,19,-1
 556 1386 l 1,20,-1
 380 1386 l 1,21,-1
 401 1493 l 1,22,-1
 780 1493 l 1,23,-1
 741 1292 l 1,24,25
 935 1522 935 1522 1249 1522 c 0,26,27
 1502 1522 1502 1522 1593 1376 c 0,28,29
 1647 1289 1647 1289 1647 1167 c 128,-1,30
 1647 1045 1647 1045 1623 922 c 2,31,-1
 1452 41 l 2,32,33
 1404 -206 1404 -206 1283.5 -316 c 128,-1,34
 1163 -426 1163 -426 943 -426 c 0,35,36
 798 -426 798 -426 665 -358 c 1,37,-1
 711 -123 l 1,38,-1
 823 -123 l 1,39,40
 818 -155 818 -155 818 -181 c 0,0,1
EndSplineSet
AlternateSubs2: "'aalt' Access All Alternates" Eng.alt Eng.alt2
Substitution2: "'locl' Localized Forms in Latin - Sami" Eng.alt
EndChar
StartChar: eng
Encoding: 331 331 331
Width: 1319
Flags: W
LayerCount: 2
Fore
SplineSet
830.87 -104 m 2,0,-1
 971.22 618 l 2,1,2
 991.22 720.92 991.22 720.92 991.22 789.72 c 0,3,4
 991.22 851.26 991.22 851.26 975.21 885.5 c 0,5,6
 941.31 958 941.31 958 820.31 958 c 0,7,8
 692.31 958 692.31 958 607.13 864.5 c 0,9,10
 521.96 771 521.96 771 487.16 592 c 2,11,-1
 372.09 0 l 1,12,-1
 188.09 0 l 1,13,-1
 373.92 956 l 1,14,-1
 197.92 956 l 1,15,-1
 218.72 1063 l 1,16,-1
 578.72 1063 l 1,17,-1
 541.98 874 l 1,18,19
 613.97 982 613.97 982 706.16 1037 c 0,20,21
 798.35 1092 798.35 1092 906.35 1092 c 0,22,23
 1080.37 1092 1080.37 1092 1145.72 991 c 0,24,25
 1184.2 931.53 1184.2 931.53 1184.2 829.3 c 0,26,27
 1184.2 761.93 1184.2 761.93 1167.49 676 c 2,28,-1
 1015.87 -104 l 2,29,30
 984 -268 984 -268 868.32 -361.5 c 0,31,32
 752.65 -455 752.65 -455 581.65 -455 c 0,33,34
 509.65 -455 509.65 -455 447.35 -438.5 c 128,-1,35
 385.06 -422 385.06 -422 329.48 -389 c 1,36,-1
 372.05 -170 l 1,37,-1
 467.05 -170 l 1,38,39
 464.05 -194.65 464.05 -194.65 464.05 -215.93 c 0,40,41
 464.05 -277.55 464.05 -277.55 489.14 -311 c 0,42,43
 522.89 -356 522.89 -356 604.89 -356 c 0,44,45
 695.89 -356 695.89 -356 751.34 -294.5 c 0,46,47
 805.52 -234.43 805.52 -234.43 830.87 -104 c 2,0,-1
EndSplineSet
EndChar
StartChar: OE
Encoding: 338 338 338
Width: 2329
Flags: W
LayerCount: 2
Fore
SplineSet
1012.5 106 m 1,0,-1
 1261.31 1386 l 1,1,-1
 1074.31 1386 l 2,2,3
 782.307 1386 782.307 1386 595.428 1222 c 128,-1,4
 408.55 1058 408.55 1058 348.681 750 c 0,5,6
 288.229 439 288.229 439 411.363 272.5 c 128,-1,7
 534.499 106 534.499 106 825.499 106 c 2,8,-1
 1012.5 106 l 1,0,-1
2019.9 0 m 1,9,-1
 790.896 0 l 2,10,11
 405.896 0 405.896 0 228.383 198 c 128,-1,12
 50.8701 396 50.8701 396 119.681 750 c 0,13,14
 187.908 1101 187.908 1101 441.507 1297 c 128,-1,15
 695.104 1493 695.104 1493 1081.1 1493 c 2,16,-1
 2293.1 1493 l 1,17,-1
 2228.57 1161 l 1,18,-1
 2105.57 1161 l 1,19,-1
 2146.2 1370 l 1,20,-1
 1460.2 1370 l 1,21,-1
 1363.01 870 l 1,22,-1
 1855.01 870 l 1,23,-1
 1891.36 1057 l 1,24,-1
 2012.36 1057 l 1,25,-1
 1915.94 561 l 1,26,-1
 1794.94 561 l 1,27,-1
 1831.29 748 l 1,28,-1
 1339.29 748 l 1,29,-1
 1217.8 123 l 1,30,-1
 1920.8 123 l 1,31,-1
 1961.43 332 l 1,32,-1
 2084.43 332 l 1,33,-1
 2019.9 0 l 1,9,-1
EndSplineSet
EndChar
StartChar: oe
Encoding: 339 339 339
Width: 2025
Flags: W
AnchorPoint: "below" 922.687 0 basechar 0
AnchorPoint: "above" 1134.95 1092 basechar 0
LayerCount: 2
Fore
SplineSet
526.294 70 m 0,0,1
 674.294 70 674.294 70 772.536 187 c 128,-1,2
 870.778 304 870.778 304 915.098 532 c 128,-1,3
 959.416 760 959.416 760 906.562 876.5 c 128,-1,4
 853.707 993 853.707 993 705.706 993 c 128,-1,5
 557.707 993 557.707 993 459.562 876.5 c 128,-1,6
 361.416 760 361.416 760 317.098 532 c 128,-1,7
 272.779 304 272.779 304 326.036 187 c 128,-1,8
 379.294 70 379.294 70 526.294 70 c 0,0,1
1626 631.79 m 0,9,10
 1737.52 698.463 1737.52 698.463 1737.52 822.148 c 0,11,12
 1737.52 993 1737.52 993 1510.72 993 c 0,13,14
 1376.73 993 1376.73 993 1283.87 891 c 128,-1,15
 1191 789 1191 789 1133.6 514 c 1,16,17
 1453.38 528.587 1453.38 528.587 1626 631.79 c 0,9,10
1113 408 m 1,18,19
 1108.6 369.956 1108.6 369.956 1108.6 336.047 c 0,20,21
 1108.6 241.811 1108.6 241.811 1142.58 179.5 c 0,22,23
 1202.29 70.0006 1202.29 70.0006 1360.29 70 c 0,24,25
 1476.33 70 1476.33 70 1533 105 c 0,26,27
 1635 168 1635 168 1659 249 c 1,28,-1
 1794 249 l 1,29,30
 1754.03 122.416 1754.03 122.416 1605 33 c 0,31,32
 1501.1 -29.3427 1501.1 -29.3427 1295.2 -29.3428 c 128,-1,33
 1089.3 -29.3428 1089.3 -29.3428 977.513 124.321 c 0,34,35
 963.28 143.886 963.28 143.886 951.657 165.06 c 1,36,37
 931.997 143.972 931.997 143.972 910.39 124.5 c 0,38,39
 740.05 -29 740.05 -29 507.05 -29 c 0,40,41
 275.05 -29 275.05 -29 163.89 124.5 c 0,42,43
 86.9147 230.79 86.9147 230.79 86.9123 385.263 c 0,44,45
 86.9123 453.878 86.9123 453.878 102.1 532 c 0,46,47
 151.475 785.999 151.475 785.999 321.71 939 c 128,-1,48
 491.95 1092 491.95 1092 724.95 1092 c 128,-1,49
 957.95 1092 957.95 1092 1068.71 939 c 0,50,51
 1082.53 919.909 1082.53 919.909 1093.86 899.246 c 1,52,53
 1112.56 919.349 1112.56 919.349 1133.02 938 c 0,54,55
 1301.95 1092 1301.95 1092 1541.94 1092 c 0,56,57
 1933.46 1092 1933.46 1092 1933.46 815.35 c 0,58,59
 1933.46 612.473 1933.46 612.473 1728 513.067 c 0,60,61
 1519.19 412.042 1519.19 412.042 1113 408 c 1,18,19
EndSplineSet
EndChar
StartChar: Tbar
Encoding: 358 358 358
Width: 1366
Flags: W
AnchorPoint: "above" 817 1465 basechar 0
AnchorPoint: "below" 532 0 basechar 0
LayerCount: 2
Fore
SplineSet
246 0 m 1,0,-1
 266 106 l 1,1,-1
 457 106 l 1,2,-1
 577 719 l 1,3,-1
 241 719 l 1,4,-1
 265 844 l 1,5,-1
 601 844 l 1,6,-1
 704 1374 l 1,7,-1
 265 1374 l 1,8,-1
 220 1141 l 1,9,-1
 97 1141 l 1,10,-1
 165 1493 l 1,11,-1
 1491 1493 l 1,12,-1
 1423 1141 l 1,13,-1
 1300 1141 l 1,14,-1
 1345 1374 l 1,15,-1
 906 1374 l 1,16,-1
 803 844 l 1,17,-1
 1139 844 l 1,18,-1
 1115 719 l 1,19,-1
 779 719 l 1,20,-1
 659 106 l 1,21,-1
 850 106 l 1,22,-1
 830 0 l 1,23,-1
 246 0 l 1,0,-1
EndSplineSet
EndChar
StartChar: tbar
Encoding: 359 359 359
Width: 823
Flags: W
AnchorPoint: "above" 479 1536 basechar 0
AnchorPoint: "below" 381 0 basechar 0
LayerCount: 2
Fore
SplineSet
143 281 m 2,0,-1
 208 616 l 1,1,-1
 46 616 l 1,2,-1
 67 723 l 1,3,-1
 229 723 l 1,4,-1
 274 956 l 1,5,-1
 112 956 l 1,6,-1
 133 1063 l 1,7,-1
 295 1063 l 1,8,-1
 359 1393 l 1,9,-1
 544 1393 l 1,10,-1
 480 1063 l 1,11,-1
 826 1063 l 1,12,-1
 805 956 l 1,13,-1
 459 956 l 1,14,-1
 414 723 l 1,15,-1
 760 723 l 1,16,-1
 739 616 l 1,17,-1
 393 616 l 1,18,-1
 328 281 l 2,19,20
 302 146 302 146 320.5 108 c 128,-1,21
 339 70 339 70 409 70 c 0,22,23
 481 70 481 70 522.5 112.5 c 128,-1,24
 564 155 564 155 584 250 c 1,25,-1
 723 250 l 1,26,27
 687 105 687 105 603 38 c 128,-1,28
 519 -29 519 -29 374 -29 c 0,29,30
 215 -29 215 -29 162.5 41.5 c 128,-1,31
 110 112 110 112 143 281 c 2,0,-1
EndSplineSet
EndChar
StartChar: longs
Encoding: 383 383 383
Width: 758
Flags: W
AnchorPoint: "above" 749.176 1536 basechar 0
AnchorPoint: "below" 40.0234 -430 basechar 0
LayerCount: 2
Fore
SplineSet
1020 1305 m 1,0,-1
 923 1305 l 1,1,2
 927 1326 927 1326 927 1345 c 0,3,4
 927 1391 927 1391 903 1419 c 0,5,6
 869 1458 869 1458 790 1458 c 0,7,8
 687 1458 687 1458 634 1401.5 c 128,-1,9
 581 1345 581 1345 553 1200 c 2,14,-1
 307 -66 l 2,15,16
 272 -244 272 -244 162 -335 c 128,-1,17
 52 -426 52 -426 -127 -426 c 1,18,-1
 -115 -328 l 1,19,20
 -10 -328 -10 -328 41 -272 c 0,21,22
 94 -212 94 -212 123 -66 c 2,23,-1
 321 956 l 25,24,-1
 145 956 l 1,30,-1
 166 1063 l 1,31,-1
 342 1063 l 1,32,-1
 368 1196 l 2,33,34
 403 1374 403 1374 513 1465 c 128,-1,35
 623 1556 623 1556 802 1556 c 0,36,37
 869 1556 869 1556 933.5 1544 c 128,-1,38
 998 1532 998 1532 1060 1507 c 1,39,-1
 1020 1305 l 1,0,-1
EndSplineSet
EndChar
StartChar: uni0180
Encoding: 384 384 384
Width: 1311
Flags: W
LayerCount: 2
Fore
SplineSet
369.44 1450 m 1,0,-1
 193.44 1450 l 1,1,-1
 214.05 1556 l 1,2,-1
 574.05 1556 l 1,3,-1
 530.51 1332 l 1,4,-1
 846.51 1332 l 1,5,-1
 822.79 1210 l 1,6,-1
 506.79 1210 l 9,7,-1
 445.95 897 l 17,8,9
 519.39 997 519.39 997 612.12 1044.5 c 128,-1,10
 704.85 1092 704.85 1092 827.85 1092 c 0,11,12
 1023.85 1092 1023.85 1092 1117.72 937 c 0,13,14
 1179.58 834.87 1179.58 834.87 1179.58 691.5 c 0,15,16
 1179.58 617.28 1179.58 617.28 1163 532 c 0,17,18
 1114.41 282 1114.41 282 960.18 126.5 c 128,-1,19
 805.95 -29 805.95 -29 609.95 -29 c 0,20,21
 486.95 -29 486.95 -29 412.69 18.5 c 128,-1,22
 338.42 66 338.42 66 303.86 166 c 1,23,-1
 271.59 0 l 1,24,-1
 87.5898 0 l 1,25,-1
 322.79 1210 l 1,26,-1
 146.79 1210 l 1,27,-1
 170.51 1332 l 1,28,-1
 346.51 1332 l 1,29,-1
 369.44 1450 l 1,0,-1
364.7 479 m 2,30,31
 349.44 400.5 349.44 400.5 349.44 337.3 c 0,32,33
 349.44 245.91 349.44 245.91 381.34 186.5 c 0,34,35
 435.31 86 435.31 86 575.31 86 c 0,36,37
 716.31 86 716.31 86 810.77 199 c 128,-1,38
 905.24 312 905.24 312 948 532 c 0,39,40
 967.7 633.34 967.7 633.34 967.7 711.75 c 0,41,42
 967.7 804.36 967.7 804.36 940.23 865 c 0,43,44
 889.5 977 889.5 977 748.5 977 c 0,45,46
 608.5 977 608.5 977 515.37 876 c 128,-1,47
 422.24 775 422.24 775 385.11 584 c 2,48,-1
 364.7 479 l 2,30,31
EndSplineSet
EndChar
StartChar: uni0181
Encoding: 385 385 385
Width: 1505
Flags: W
LayerCount: 2
Fore
SplineSet
427.307 1386 m 0,0,1
 200.307 1386 200.307 1386 115.007 1297 c 0,2,3
 26.3174 1206 26.3174 1206 -9.83691 1020 c 1,4,-1
 -138.837 1020 l 1,5,-1
 -71.9697 1364 l 1,6,7
 44.8027 1440 44.8027 1440 231.801 1476 c 0,8,9
 350.104 1493 350.104 1493 448.104 1493 c 2,10,-1
 995.104 1493 l 0,11,12
 1219.1 1493 1219.1 1493 1317.03 1400 c 0,13,14
 1414.14 1308 1414.14 1308 1378.38 1124 c 0,15,16
 1352.53 991 1352.53 991 1258.17 912 c 0,17,18
 1162.81 833 1162.81 833 1006.32 815 c 1,19,20
 1193.65 791 1193.65 791 1271.79 694 c 0,21,22
 1350.75 596 1350.75 596 1318.87 432 c 0,23,24
 1275.71 210 1275.71 210 1115.3 105 c 128,-1,25
 954.896 0 954.896 0 657.896 0 c 2,26,-1
 -32.1045 0 l 1,27,-1
 -11.501 106 l 1,28,-1
 178.499 106 l 1,29,-1
 427.307 1386 l 0,0,1
528.451 862 m 1,30,-1
 782.451 862 l 2,31,32
 946.451 862 946.451 862 1034.7 925 c 0,33,34
 1121.94 988 1121.94 988 1148.38 1124 c 0,35,36
 1178.9 1281 1178.9 1281 1112.25 1324 c 0,37,38
 1017.31 1386 1017.31 1386 884.307 1386 c 2,39,-1
 630.307 1386 l 1,40,-1
 528.451 862 l 1,30,-1
381.499 106 m 1,41,-1
 680.499 106 l 2,42,43
 860.499 106 860.499 106 958.661 184 c 128,-1,44
 1056.82 262 1056.82 262 1089.87 432 c 0,45,46
 1122.33 599 1122.33 599 1054.68 678 c 0,47,48
 987.847 756 987.847 756 806.847 756 c 2,49,-1
 507.847 756 l 1,50,-1
 381.499 106 l 1,41,-1
EndSplineSet
EndChar
StartChar: uni0183
Encoding: 387 387 387
Width: 1311
Flags: W
LayerCount: 2
Fore
SplineSet
364.699 479 m 2,0,1
 327.378 287 327.378 287 381.745 186 c 0,2,3
 435.308 86 435.308 86 575.308 86 c 0,4,5
 716.308 86 716.308 86 810.272 199 c 0,6,7
 905.237 312 905.237 312 948.001 532 c 0,8,9
 990.959 753 990.959 753 939.729 865 c 0,10,11
 889.5 977 889.5 977 748.5 977 c 0,12,13
 608.5 977 608.5 977 515.868 876 c 0,14,15
 422.235 775 422.235 775 385.108 584 c 2,16,-1
 364.699 479 l 2,0,1
1166.05 1556 m 1,17,-1
 1114.15 1289 l 1,18,-1
 1009.15 1289 l 1,19,-1
 1037.14 1433 l 1,20,-1
 550.138 1433 l 1,21,-1
 445.95 897 l 1,22,23
 519.388 997 519.388 997 612.523 1044 c 0,24,25
 704.854 1092 704.854 1092 827.854 1092 c 0,26,27
 1023.85 1092 1023.85 1092 1117.72 937 c 0,28,29
 1211.6 782 1211.6 782 1163 532 c 0,30,31
 1114.41 282 1114.41 282 960.083 126 c 0,32,33
 805.953 -29 805.953 -29 609.953 -29 c 0,34,35
 486.953 -29 486.953 -29 413.09 18 c 0,36,37
 338.42 66 338.42 66 303.857 166 c 1,38,-1
 271.591 0 l 1,39,-1
 -89.4092 0 l 1,40,-1
 -68.8047 106 l 1,41,-1
 108.195 106 l 1,42,-1
 369.442 1450 l 1,43,-1
 192.442 1450 l 1,44,-1
 213.047 1556 l 1,45,-1
 1166.05 1556 l 1,17,-1
EndSplineSet
EndChar
StartChar: uni0184
Encoding: 388 388 388
Width: 1505
Flags: W
LayerCount: 2
Fore
SplineSet
381.499 106 m 1,0,-1
 680.499 106 l 2,1,2
 860.499 106 860.499 106 958.661 184 c 128,-1,3
 1056.82 262 1056.82 262 1089.87 432 c 0,4,5
 1122.72 601 1122.72 601 1055.28 678.5 c 128,-1,6
 987.847 756 987.847 756 806.847 756 c 2,7,-1
 507.847 756 l 1,8,-1
 381.499 106 l 1,0,-1
181.324 1098 m 1,9,-1
 651.104 1493 l 1,10,-1
 528.451 862 l 1,11,-1
 782.451 862 l 2,12,13
 1162.45 862 1162.45 862 1271.79 694 c 1,14,15
 1346.86 576 1346.86 576 1318.87 432 c 0,16,17
 1275.71 210 1275.71 210 1115.3 105 c 128,-1,18
 954.896 0 954.896 0 657.896 0 c 2,19,-1
 -32.1045 0 l 1,20,-1
 -11.501 106 l 1,21,-1
 178.499 106 l 1,22,-1
 350.721 992 l 1,23,-1
 160.721 992 l 1,24,-1
 181.324 1098 l 1,9,-1
EndSplineSet
EndChar
StartChar: uni0185
Encoding: 389 389 389
Width: 1311
Flags: W
LayerCount: 2
Fore
SplineSet
364.699 479 m 2,0,1
 327.378 287 327.378 287 381.343 186.5 c 128,-1,2
 435.308 86 435.308 86 575.308 86 c 0,3,4
 716.308 86 716.308 86 810.772 199 c 128,-1,5
 905.237 312 905.237 312 948.001 532 c 0,6,7
 990.959 753 990.959 753 940.229 865 c 128,-1,8
 889.5 977 889.5 977 748.5 977 c 0,9,10
 608.5 977 608.5 977 515.368 876 c 128,-1,11
 422.235 775 422.235 775 385.108 584 c 2,12,-1
 364.699 479 l 2,0,1
574.047 1556 m 1,13,-1
 445.95 897 l 1,14,15
 519.388 997 519.388 997 612.121 1044.5 c 128,-1,16
 704.854 1092 704.854 1092 827.854 1092 c 0,17,18
 1023.85 1092 1023.85 1092 1117.72 937 c 128,-1,19
 1211.6 782 1211.6 782 1163 532 c 128,-1,20
 1114.41 282 1114.41 282 960.18 126.5 c 128,-1,21
 805.953 -29 805.953 -29 609.953 -29 c 0,22,23
 486.953 -29 486.953 -29 412.687 18.5 c 128,-1,24
 338.42 66 338.42 66 303.857 166 c 1,25,-1
 271.591 0 l 1,26,-1
 -89.4092 0 l 1,27,-1
 -68.8047 106 l 1,28,-1
 108.195 106 l 1,29,-1
 306.269 1125 l 1,30,-1
 129.269 1125 l 1,31,-1
 153.761 1251 l 1,32,-1
 574.047 1556 l 1,13,-1
EndSplineSet
EndChar
StartChar: uni0186
Encoding: 390 390 390
Width: 1567
Flags: W
AnchorPoint: "above" 872.856 1465 basechar 0
LayerCount: 2
Fore
SplineSet
183.13 1096 m 1,0,1
 289.756 1305 289.756 1305 466.151 1412.5 c 128,-1,2
 642.548 1520 642.548 1520 880.548 1520 c 0,3,4
 1026.55 1520 1026.55 1520 1141.83 1470 c 128,-1,5
 1257.11 1420 1257.11 1420 1335.25 1323 c 0,6,7
 1425.48 1211 1425.48 1211 1452.29 1068.5 c 128,-1,8
 1479.09 926 1479.09 926 1444.1 746 c 0,9,10
 1376.45 398 1376.45 398 1133.95 184.5 c 128,-1,11
 891.452 -29 891.452 -29 562.452 -29 c 0,12,13
 440.452 -29 440.452 -29 308.673 3 c 128,-1,14
 176.893 35 176.893 35 30.5273 100 c 1,15,-1
 97.3945 444 l 1,16,-1
 210.395 444 l 1,17,18
 210.851 256 210.851 256 305.051 167 c 128,-1,19
 399.251 78 399.251 78 600.251 78 c 0,20,21
 839.251 78 839.251 78 995.198 247.5 c 128,-1,22
 1151.15 417 1151.15 417 1215.1 746 c 0,23,24
 1278.85 1074 1278.85 1074 1188.8 1243.5 c 128,-1,25
 1098.75 1413 1098.75 1413 859.749 1413 c 0,26,27
 692.749 1413 692.749 1413 569.296 1333.5 c 128,-1,28
 445.843 1254 445.843 1254 367.13 1096 c 1,29,-1
 183.13 1096 l 1,0,1
EndSplineSet
EndChar
StartChar: uni0187
Encoding: 391 391 391
Width: 1567
Flags: W
AnchorPoint: "above" 958.166 1465 basechar 0
LayerCount: 2
Fore
SplineSet
1365.18 395 m 1,0,1
 1258.55 186 1258.55 186 1081.56 78 c 0,2,3
 905.762 -29 905.762 -29 667.762 -29 c 0,4,5
 521.762 -29 521.762 -29 406.48 21 c 0,6,7
 291.199 71 291.199 71 213.055 168 c 0,8,9
 122.825 280 122.825 280 96.4268 422 c 0,10,11
 69.2236 565 69.2236 565 104.212 745 c 0,12,13
 171.856 1093 171.856 1093 414.259 1306 c 0,14,15
 656.856 1520 656.856 1520 985.856 1520 c 0,16,17
 1107.86 1520 1107.86 1520 1239.64 1488 c 0,18,19
 1334.17 1465 1334.17 1465 1435.39 1425 c 1,20,21
 1452.3 1512 1452.3 1512 1544.58 1570 c 0,22,23
 1631.24 1630 1631.24 1630 1745.24 1630 c 0,24,25
 1817.24 1630 1817.24 1630 1880.13 1614 c 0,26,27
 1941.82 1597 1941.82 1597 1997.41 1564 c 1,28,-1
 1954.84 1345 l 1,29,-1
 1859.84 1345 l 1,30,31
 1878.5 1441 1878.5 1441 1837.25 1486 c 0,32,33
 1804 1531 1804 1531 1722 1531 c 0,34,35
 1631 1531 1631 1531 1576.14 1470 c 0,36,37
 1521.28 1409 1521.28 1409 1496.01 1279 c 2,38,-1
 1450.92 1047 l 1,39,-1
 1337.92 1047 l 1,40,41
 1337.46 1235 1337.46 1235 1243.76 1324 c 0,42,43
 1149.06 1413 1149.06 1413 948.058 1413 c 0,44,45
 709.058 1413 709.058 1413 553.208 1244 c 0,46,47
 397.163 1074 397.163 1074 333.212 745 c 0,48,49
 269.455 417 269.455 417 359.604 248 c 0,50,51
 449.561 78 449.561 78 688.561 78 c 0,52,53
 855.561 78 855.561 78 979.11 158 c 0,54,55
 1102.47 237 1102.47 237 1181.18 395 c 1,56,-1
 1365.18 395 l 1,0,1
EndSplineSet
EndChar
StartChar: uni0188
Encoding: 392 392 392
Width: 1147
Flags: W
AnchorPoint: "above" 703.957 1092 basechar 0
LayerCount: 2
Fore
SplineSet
990.701 319 m 1,0,1
 918.656 149 918.656 149 790.356 60 c 0,2,3
 662.057 -29 662.057 -29 486.057 -29 c 0,4,5
 254.057 -29 254.057 -29 142.797 124 c 0,6,7
 31.7314 278 31.7314 278 81.1045 532 c 0,8,9
 130.671 787 130.671 787 301.411 940 c 0,10,11
 471.957 1092 471.957 1092 703.957 1092 c 0,12,13
 804.957 1092 804.957 1092 900.292 1068 c 0,14,15
 947.153 1057 947.153 1057 993.655 1039 c 1,16,17
 1038.65 1183 1038.65 1183 1134.64 1255 c 0,18,19
 1204.94 1308 1204.94 1308 1328.94 1308 c 0,20,21
 1400.94 1308 1400.94 1308 1462.83 1292 c 0,22,23
 1525.53 1275 1525.53 1275 1581.11 1242 c 1,24,-1
 1538.54 1023 l 1,25,-1
 1443.54 1023 l 1,26,27
 1462.21 1119 1462.21 1119 1421.95 1164 c 0,28,29
 1387.7 1209 1387.7 1209 1305.7 1209 c 0,30,31
 1214.7 1209 1214.7 1209 1158.84 1148 c 0,32,33
 1104.99 1087 1104.99 1087 1079.72 957 c 2,34,-1
 1034.62 725 l 1,35,-1
 927.619 725 l 1,36,37
 933.833 865 933.833 865 876.273 929 c 0,38,39
 817.714 993 817.714 993 686.714 993 c 0,40,41
 537.714 993 537.714 993 439.359 878 c 0,42,43
 340.812 762 340.812 762 296.104 532 c 0,44,45
 251.396 302 251.396 302 303.849 186 c 0,46,47
 357.301 70 357.301 70 507.301 70 c 0,48,49
 626.301 70 626.301 70 709.352 132 c 0,50,51
 792.403 194 792.403 194 842.701 319 c 1,52,-1
 990.701 319 l 1,0,1
EndSplineSet
EndChar
StartChar: uni018A
Encoding: 394 394 394
Width: 1642
Flags: W
AnchorPoint: "above" 882.662 1465 basechar 0
LayerCount: 2
Fore
SplineSet
427.307 1386 m 0,0,1
 200.307 1386 200.307 1386 115.007 1297 c 0,2,3
 26.3174 1206 26.3174 1206 -9.83691 1020 c 1,4,-1
 -138.837 1020 l 1,5,-1
 -71.9697 1364 l 1,6,7
 86.0508 1467 86.0508 1467 231.801 1476 c 0,8,9
 329.104 1493 329.104 1493 448.104 1493 c 2,10,-1
 852.104 1493 l 2,11,12
 1238.1 1493 1238.1 1493 1414.81 1296 c 0,13,14
 1592.52 1099 1592.52 1099 1524.29 748 c 0,15,16
 1455.87 396 1455.87 396 1201.38 198 c 128,-1,17
 946.896 0 946.896 0 561.896 0 c 2,18,-1
 -32.1045 0 l 1,19,-1
 -11.501 106 l 1,20,-1
 178.499 106 l 1,21,-1
 427.307 1386 l 0,0,1
381.499 106 m 1,22,-1
 567.499 106 l 2,23,24
 858.499 106 858.499 106 1045.77 272 c 0,25,26
 1234.03 438 1234.03 438 1294.29 748 c 128,-1,27
 1354.55 1058 1354.55 1058 1231.43 1222 c 128,-1,28
 1108.31 1386 1108.31 1386 816.307 1386 c 2,29,-1
 630.307 1386 l 1,30,-1
 381.499 106 l 1,22,-1
EndSplineSet
EndChar
StartChar: uni018B
Encoding: 395 395 395
Width: 1505
Flags: W
LayerCount: 2
Fore
SplineSet
862.499 106 m 1,0,-1
 988.847 756 l 1,1,-1
 689.847 756 l 2,2,3
 508.847 756 508.847 756 410.685 678 c 0,4,5
 313.718 601 313.718 601 280.867 432 c 0,6,7
 247.822 262 247.822 262 315.661 184 c 128,-1,8
 383.499 106 383.499 106 563.499 106 c 2,9,-1
 862.499 106 l 1,0,-1
1525.1 1493 m 1,10,-1
 1504.31 1386 l 1,11,-1
 1314.31 1386 l 1,12,-1
 1065.5 106 l 1,13,-1
 1255.5 106 l 1,14,-1
 1234.9 0 l 1,15,-1
 544.896 0 l 2,16,17
 247.896 0 247.896 0 128.305 105 c 128,-1,18
 8.71484 210 8.71484 210 51.8672 432 c 0,19,20
 79.8584 576 79.8584 576 200.795 694 c 1,21,22
 375.451 862 375.451 862 755.451 862 c 2,23,-1
 1009.45 862 l 1,24,-1
 1108.2 1370 l 1,25,-1
 423.196 1370 l 1,26,-1
 382.57 1161 l 1,27,-1
 259.57 1161 l 1,28,-1
 324.104 1493 l 1,29,-1
 1525.1 1493 l 1,10,-1
EndSplineSet
EndChar
StartChar: uni018C
Encoding: 396 396 396
Width: 1311
Flags: W
LayerCount: 2
Fore
SplineSet
791.699 479 m 2,0,-1
 812.108 584 l 2,1,2
 849.235 775 849.235 775 795.868 876 c 0,3,4
 741.5 977 741.5 977 601.5 977 c 0,5,6
 460.5 977 460.5 977 365.729 865 c 0,7,8
 271.959 753 271.959 753 229.001 532 c 0,9,10
 186.237 312 186.237 312 236.272 199 c 0,11,12
 287.308 86 287.308 86 428.308 86 c 0,13,14
 568.308 86 568.308 86 661.745 186 c 0,15,16
 754.378 287 754.378 287 791.699 479 c 2,0,-1
409.047 1556 m 1,17,-1
 1362.05 1556 l 1,18,-1
 1341.44 1450 l 1,19,-1
 1164.44 1450 l 1,20,-1
 903.195 106 l 1,21,-1
 1080.2 106 l 1,22,-1
 1059.59 0 l 1,23,-1
 698.591 0 l 1,24,-1
 730.857 166 l 1,25,26
 657.42 66 657.42 66 565.09 18 c 0,27,28
 471.953 -29 471.953 -29 348.953 -29 c 0,29,30
 152.953 -29 152.953 -29 59.083 126 c 0,31,32
 -34.5938 282 -34.5938 282 14.001 532 c 0,33,34
 62.5957 782 62.5957 782 216.725 937 c 0,35,36
 370.854 1092 370.854 1092 566.854 1092 c 0,37,38
 689.854 1092 689.854 1092 764.523 1044 c 0,39,40
 838.388 997 838.388 997 872.95 897 c 1,41,-1
 977.138 1433 l 1,42,-1
 490.138 1433 l 1,43,-1
 462.146 1289 l 1,44,-1
 357.146 1289 l 1,45,-1
 409.047 1556 l 1,17,-1
EndSplineSet
EndChar
StartChar: uni018D
Encoding: 397 397 397
Width: 1233
Flags: W
LayerCount: 2
Fore
SplineSet
814.101 27 m 1,0,1
 875.241 2 875.241 2 898.717 -47 c 0,2,3
 925.831 -103 925.831 -103 899.201 -240 c 0,4,5
 874.126 -369 874.126 -369 762.908 -437 c 0,6,7
 651.885 -504 651.885 -504 455.885 -504 c 0,8,9
 401.885 -504 401.885 -504 300.994 -488 c 0,10,11
 200.299 -471 200.299 -471 94.3252 -440 c 1,12,-1
 132.618 -243 l 1,13,-1
 245.478 -218 l 1,14,15
 240.178 -307 240.178 -307 303.236 -353 c 0,16,17
 366.489 -398 366.489 -398 460.489 -398 c 128,-1,18
 554.489 -398 554.489 -398 633.014 -349 c 0,19,20
 716.121 -297 716.121 -297 725.95 -231 c 0,21,22
 744.416 -136 744.416 -136 713.637 -104 c 0,23,24
 651.215 -29 651.215 -29 553.215 -29 c 16,25,26
 320.215 -29 320.215 -29 208.955 124 c 0,27,28
 98.6953 277 98.6953 277 148.068 531 c 128,-1,29
 197.44 785 197.44 785 367.181 938 c 0,30,31
 538.115 1092 538.115 1092 771.115 1092 c 0,32,33
 1003.12 1092 1003.12 1092 1114.18 938 c 0,34,35
 1225.44 785 1225.44 785 1176.07 531 c 128,-1,36
 1126.7 277 1126.7 277 956.955 124 c 0,37,38
 880.932 57 880.932 57 814.101 27 c 1,0,1
751.872 993 m 0,39,40
 603.872 993 603.872 993 505.129 876 c 0,41,42
 407.387 759 407.387 759 363.068 531 c 128,-1,43
 318.749 303 318.749 303 371.007 186 c 0,44,45
 424.459 70 424.459 70 572.459 70 c 128,-1,46
 720.459 70 720.459 70 819.007 186 c 0,47,48
 916.749 303 916.749 303 961.068 531 c 128,-1,49
 1005.39 759 1005.39 759 952.129 876 c 128,-1,50
 898.872 993 898.872 993 751.872 993 c 0,39,40
EndSplineSet
EndChar
StartChar: uni018E
Encoding: 398 398 398
Width: 1495
Flags: W
AnchorPoint: "above" 835.662 1465 basechar 0
LayerCount: 2
Fore
SplineSet
1185.9 0 m 1,0,-1
 -32.1045 0 l 1,1,-1
 32.4297 332 l 1,2,-1
 155.43 332 l 1,3,-1
 114.804 123 l 1,4,-1
 816.804 123 l 1,5,-1
 938.292 748 l 1,6,-1
 449.292 748 l 1,7,-1
 412.942 561 l 1,8,-1
 289.942 561 l 1,9,-1
 386.355 1057 l 1,10,-1
 509.355 1057 l 1,11,-1
 473.006 870 l 1,12,-1
 962.006 870 l 1,13,-1
 1059.2 1370 l 1,14,-1
 373.196 1370 l 1,15,-1
 332.57 1161 l 1,16,-1
 209.57 1161 l 1,17,-1
 274.104 1493 l 1,18,-1
 1476.1 1493 l 1,19,-1
 1455.31 1386 l 1,20,-1
 1265.31 1386 l 1,21,-1
 1016.5 106 l 1,22,-1
 1206.5 106 l 1,23,-1
 1185.9 0 l 1,0,-1
EndSplineSet
EndChar
StartChar: uni018F
Encoding: 399 399 399
Width: 1679
Flags: W
AnchorPoint: "above" 980 1465 basechar 0
AnchorPoint: "below" 695 0 basechar 0
LayerCount: 2
Fore
SplineSet
980.749 1413 m 24,0,1
 802.749 1413 802.749 1413 679.393 1334 c 0,2,3
 555.843 1254 555.843 1254 477.13 1096 c 1,4,-1
 293.13 1096 l 1,5,6
 399.756 1305 399.756 1305 575.555 1412 c 0,7,8
 752.548 1520 752.548 1520 990.548 1520 c 24,9,10
 1315.55 1520 1315.55 1520 1474.14 1307 c 128,-1,11
 1632.74 1094 1632.74 1094 1564.9 745 c 0,12,13
 1530.11 566 1530.11 566 1447.12 422 c 0,14,15
 1364.52 280 1364.52 280 1230.75 168 c 0,16,17
 1112.7 70 1112.7 70 977.978 20 c 0,18,19
 842.452 -29 842.452 -29 689.452 -29 c 0,20,21
 537.452 -29 537.452 -29 419.172 21 c 0,22,23
 301.891 71 301.891 71 223.745 168 c 0,24,25
 133.516 280 133.516 280 107.118 422 c 0,26,27
 79.7197 564 79.7197 564 114.902 745 c 2,28,-1
 128.704 816 l 1,29,-1
 1346.7 816 l 1,30,31
 1400.94 1095 1400.94 1095 1306.9 1244 c 0,32,33
 1214.75 1413 1214.75 1413 980.749 1413 c 24,0,1
1323.99 694 m 1,34,-1
 334.989 694 l 1,35,36
 278.23 402 278.23 402 371.907 246 c 0,37,38
 464.251 78 464.251 78 710.251 78 c 0,39,40
 955.251 78 955.251 78 1112.91 246 c 0,41,42
 1267.23 402 1267.23 402 1323.99 694 c 1,34,-1
EndSplineSet
EndChar
StartChar: uni0190
Encoding: 400 400 400
Width: 1276
Flags: W
AnchorPoint: "below" 670 0 basechar 0
AnchorPoint: "above" 954.768 1465 basechar 0
LayerCount: 2
Fore
SplineSet
1424.96 1430 m 1,0,-1
 1373.84 1167 l 1,1,-1
 1261.84 1167 l 1,2,3
 1263.64 1186.69 1263.64 1186.69 1263.64 1204.86 c 0,4,5
 1263.64 1303 1263.64 1303 1206.43 1362 c 128,-1,6
 1149.21 1421 1149.21 1421 979.215 1421 c 0,7,8
 809.215 1421 809.215 1421 723.705 1351.5 c 128,-1,9
 638.195 1282 638.195 1282 611.273 1143.5 c 0,10,11
 603.976 1105.96 603.976 1105.96 603.976 1073.34 c 0,12,13
 603.976 985.619 603.976 985.619 656.747 933.5 c 0,14,15
 729.142 862 729.142 862 947.556 862 c 2,16,-1
 997.556 862 l 1,17,-1
 976.951 756 l 1,18,-1
 881.951 756 l 2,19,20
 662.94 756 662.94 756 555.549 666.5 c 128,-1,21
 448.157 577 448.157 577 416.085 412 c 0,22,23
 406.134 360.805 406.134 360.805 406.134 316.975 c 0,24,25
 406.134 219.541 406.134 219.541 455.31 158.5 c 0,26,27
 526.606 70 526.606 70 663.173 70 c 0,28,29
 799.738 70 799.738 70 906.96 139.048 c 128,-1,30
 1014.18 208.095 1014.18 208.095 1032.51 265 c 1,31,-1
 1216.51 265 l 1,32,33
 1158.53 160.022 1158.53 160.022 1019.67 65.5107 c 128,-1,34
 880.832 -29 880.832 -29 640.597 -29 c 0,35,36
 400.363 -29 400.363 -29 281.536 82.5 c 0,37,38
 192.985 165.592 192.985 165.592 192.985 302.831 c 0,39,40
 192.985 349.751 192.985 349.751 203.335 403 c 0,41,42
 236.574 574 236.574 574 358.97 681.5 c 128,-1,43
 481.366 789 481.366 789 670.42 815 c 1,44,45
 520.64 847 520.64 847 453.231 937.5 c 0,46,47
 404.711 1002.64 404.711 1002.64 404.711 1090.84 c 0,48,49
 404.711 1125.17 404.711 1125.17 412.064 1163 c 0,50,51
 444.72 1331 444.72 1331 586.089 1425.5 c 128,-1,52
 727.458 1520 727.458 1520 965.299 1520 c 0,53,54
 1203.14 1520 1203.14 1520 1424.96 1430 c 1,0,-1
EndSplineSet
EndChar
StartChar: uni0191
Encoding: 401 401 401
Width: 1421
Flags: W
LayerCount: 2
Fore
SplineSet
-98.5078 -426 m 0,0,1
 -243.508 -426 -243.508 -426 -376.29 -358 c 1,2,-1
 -330.61 -123 l 1,3,-1
 -216.61 -123 l 1,4,5
 -254.709 -319 -254.709 -319 -75.709 -319 c 0,6,7
 43.291 -319 43.291 -319 104.869 -244 c 0,8,9
 167.837 -167 167.837 -167 208.822 49 c 2,10,-1
 468.709 1386 l 1,11,-1
 278.709 1386 l 1,12,-1
 299.508 1493 l 1,13,-1
 1521.51 1493 l 1,14,-1
 1456.97 1161 l 1,15,-1
 1333.97 1161 l 1,16,-1
 1374.6 1370 l 1,17,-1
 668.6 1370 l 1,18,-1
 571.409 870 l 1,19,-1
 1081.41 870 l 1,20,-1
 1117.76 1057 l 1,21,-1
 1240.76 1057 l 1,22,-1
 1144.35 561 l 1,23,-1
 1021.35 561 l 1,24,-1
 1057.69 748 l 1,25,-1
 547.694 748 l 1,26,-1
 410.268 41 l 2,27,28
 349.427 -272 349.427 -272 164.183 -371 c 0,29,30
 60.4922 -426 60.4922 -426 -98.5078 -426 c 0,0,1
EndSplineSet
EndChar
StartChar: florin
Encoding: 402 402 402
Width: 758
Flags: W
LayerCount: 2
Fore
SplineSet
1020.27 1305 m 1,0,-1
 923.273 1305 l 1,1,2
 927.155 1326.44 927.155 1326.44 927.155 1344.94 c 0,3,4
 927.155 1391.15 927.155 1391.15 902.933 1419 c 0,5,6
 869.014 1458 869.014 1458 790.014 1458 c 0,7,8
 687.014 1458 687.014 1458 634.031 1401.5 c 128,-1,9
 581.049 1345 581.049 1345 552.863 1200 c 2,10,-1
 526.233 1063 l 1,11,-1
 823.233 1063 l 1,12,-1
 802.435 956 l 1,13,-1
 505.435 956 l 1,14,-1
 315.914 -19 l 2,15,16
 281.314 -197 281.314 -197 171.126 -288 c 128,-1,17
 60.9375 -379 60.9375 -379 -118.062 -379 c 0,18,19
 -185.062 -379 -185.062 -379 -249.73 -367 c 128,-1,20
 -314.397 -355 -314.397 -355 -375.538 -330 c 1,21,-1
 -336.273 -128 l 1,22,-1
 -239.273 -128 l 1,23,24
 -243.155 -149.44 -243.155 -149.44 -243.155 -167.939 c 0,25,26
 -243.155 -214.149 -243.155 -214.149 -218.933 -242 c 0,27,28
 -185.014 -281 -185.014 -281 -106.014 -281 c 0,29,30
 -3.01367 -281 -3.01367 -281 49.9688 -224.5 c 128,-1,31
 102.951 -168 102.951 -168 131.914 -19 c 2,32,-1
 321.435 956 l 1,33,-1
 145.435 956 l 1,34,-1
 166.233 1063 l 1,35,-1
 342.233 1063 l 1,36,-1
 368.086 1196 l 2,37,38
 402.686 1374 402.686 1374 512.874 1465 c 128,-1,39
 623.062 1556 623.062 1556 802.062 1556 c 0,40,41
 869.062 1556 869.062 1556 933.73 1544 c 128,-1,42
 998.397 1532 998.397 1532 1059.54 1507 c 1,43,-1
 1020.27 1305 l 1,0,-1
EndSplineSet
EndChar
StartChar: uni0193
Encoding: 403 403 403
Width: 1636
Flags: W
AnchorPoint: "above" 985.166 1465 basechar 0
LayerCount: 2
Fore
SplineSet
1742 1531 m 0,0,1
 1617 1531 1617 1531 1558.06 1413 c 0,2,3
 1531.56 1359 1531.56 1359 1516.01 1279 c 2,4,-1
 1470.92 1047 l 1,5,-1
 1357.92 1047 l 1,6,-1
 1358.89 1052 l 2,7,8
 1358.79 1319 1358.79 1319 1157 1387 c 0,9,10
 1081.06 1413 1081.06 1413 975.058 1413 c 0,11,12
 717.058 1413 717.058 1413 557.791 1247 c 0,13,14
 398.523 1081 398.523 1081 333.212 745 c 0,15,16
 230.19 215 230.19 215 540.809 105 c 0,17,18
 618.561 78 618.561 78 719.561 78 c 0,19,20
 945.561 78 945.561 78 1153.33 190 c 1,21,-1
 1228.17 575 l 1,22,-1
 947.167 575 l 1,23,-1
 967.966 682 l 1,24,-1
 1451.97 682 l 1,25,-1
 1343.7 125 l 1,26,27
 1047.76 -29 1047.76 -29 698.762 -29 c 0,28,29
 360.762 -29 360.762 -29 197.775 182 c 0,30,31
 35.9844 394 35.9844 394 104.212 745 c 0,32,33
 173.022 1099 173.022 1099 418.037 1310 c 0,34,35
 662.856 1520 662.856 1520 1007.86 1520 c 0,36,37
 1219.86 1520 1219.86 1520 1452.53 1436 c 1,38,39
 1492.5 1513 1492.5 1513 1564.58 1570 c 0,40,41
 1640.24 1630 1640.24 1630 1765.24 1630 c 0,42,43
 1906.24 1630 1906.24 1630 2017.41 1564 c 1,44,-1
 1974.84 1345 l 1,45,-1
 1879.84 1345 l 1,46,47
 1908.41 1492 1908.41 1492 1804.25 1522 c 0,48,49
 1778 1531 1778 1531 1742 1531 c 0,0,1
EndSplineSet
EndChar
StartChar: uni0194
Encoding: 404 404 404
Width: 1458
Flags: W
AnchorPoint: "above" 874.5 1465 basechar 0
LayerCount: 2
Fore
SplineSet
629.647 733 m 0,0,-1
 320.578 1386 l 1,1,-1
 160.578 1386 l 1,2,-1
 181.377 1493 l 1,3,-1
 773.377 1493 l 1,4,-1
 752.578 1386 l 1,5,-1
 576.578 1386 l 1,6,-1
 803.081 905 l 1,7,-1
 1225.58 1386 l 1,8,-1
 1033.58 1386 l 1,9,-1
 1054.38 1493 l 1,10,-1
 1543.38 1493 l 1,11,-1
 1522.58 1386 l 1,12,-1
 1354.58 1386 l 1,13,-1
 847.81 811 l 0,14,15
 1269.66 126 1269.66 126 1052.61 -44 c 0,16,17
 868.623 -188 868.623 -188 516.623 -188 c 16,18,19
 161.623 -188 161.623 -188 139.499 12 c 0,20,21
 118.683 193 118.683 193 629.647 733 c 0,0,-1
676.793 636 m 1,22,23
 315.317 258 315.317 258 276.052 56 c 24,24,25
 249.228 -82 249.228 -82 537.228 -82 c 16,26,27
 809.228 -82 809.228 -82 836.052 56 c 16,28,29
 877.261 268 877.261 268 676.793 636 c 1,22,23
EndSplineSet
EndChar
StartChar: uni0195
Encoding: 405 405 405
Width: 1909
Flags: W
LayerCount: 2
Fore
SplineSet
99 0 m 1,0,-1
 381 1450 l 1,3,-1
 205 1450 l 1,4,-1
 226 1556 l 1,5,-1
 586 1556 l 1,6,-1
 453 874 l 1,7,8
 525 982 525 982 617 1037 c 0,9,10
 710 1092 710 1092 818 1092 c 0,11,12
 996 1092 996 1092 1057 991 c 0,13,14
 1120 888 1120 888 1079 676 c 2,15,-1
 1016 351 l 2,16,17
 990 220 990 220 1021 160 c 128,-1,19
 1052 100 1052 100 1144 99 c 0,20,21
 1269 99 1269 99 1406 229 c 0,22,23
 1518 336 1518 336 1555 526 c 0,24,25
 1585 680 1585 680 1544 783 c 0,26,27
 1502 885 1502 885 1393 931 c 1,28,-1
 1405 990 l 1,29,-1
 1517 990 l 1,30,31
 1658 926 1658 926 1722 797 c 0,32,33
 1787 667 1787 667 1757 510 c 0,34,35
 1735 399 1735 399 1674 303 c 0,36,37
 1612 205 1612 205 1517 131 c 0,38,39
 1432 64 1432 64 1331 29 c 0,40,41
 1229 -7 1229 -7 1123 -7 c 0,42,43
 963 -7 963 -7 874 94 c 0,44,45
 798 180 798 180 831 351 c 2,46,-1
 883 618 l 2,47,48
 920 813 920 813 887 884 c 0,49,50
 853 956 853 956 731 956 c 0,51,52
 603 956 603 956 518 863 c 128,-1,54
 433 770 433 770 399 592 c 2,55,-1
 283 0 l 1,58,-1
 99 0 l 1,0,-1
EndSplineSet
EndChar
StartChar: uni0196
Encoding: 406 406 406
Width: 809
Flags: W
LayerCount: 2
Fore
SplineSet
429.123 351 m 2,0,1
 403.659 220 403.659 220 433.996 160 c 0,2,3
 466.139 99 466.139 99 557.139 99 c 2,4,-1
 570.139 99 l 1,5,-1
 550.896 0 l 1,6,-1
 537.896 0 l 1,7,8
 336.896 0 336.896 0 285.392 54 c 0,9,10
 188.024 155 188.024 155 226.123 351 c 2,11,-1
 427.307 1386 l 1,12,-1
 237.307 1386 l 1,13,-1
 258.104 1493 l 1,14,-1
 841.104 1493 l 1,15,-1
 820.307 1386 l 1,16,-1
 630.307 1386 l 1,17,-1
 429.123 351 l 2,0,1
EndSplineSet
EndChar
StartChar: uni0197
Encoding: 407 407 407
Width: 809
Flags: W
AnchorPoint: "above" 546 1465 basechar 0
AnchorPoint: "below" 261 0 basechar 0
LayerCount: 2
Fore
SplineSet
381 106 m 1,0,-1
 571 106 l 1,1,-1
 551 0 l 1,2,-1
 -32 0 l 1,3,-1
 -12 106 l 1,4,-1
 178 106 l 1,5,-1
 298 719 l 1,6,-1
 98 719 l 1,7,-1
 122 844 l 1,8,-1
 322 844 l 1,9,-1
 427 1386 l 1,10,-1
 237 1386 l 1,11,-1
 258 1493 l 1,12,-1
 841 1493 l 1,13,-1
 820 1386 l 1,14,-1
 630 1386 l 1,15,-1
 525 844 l 1,16,-1
 723 844 l 1,17,-1
 699 719 l 1,18,-1
 501 719 l 1,19,-1
 381 106 l 1,0,-1
EndSplineSet
EndChar
StartChar: uni0198
Encoding: 408 408 408
Width: 1530
Flags: W
LayerCount: 2
Fore
SplineSet
1270.97 1386 m 2,0,1
 1445.44 1517 1445.44 1517 1569.44 1517 c 0,2,3
 1636.44 1517 1636.44 1517 1698.13 1500 c 0,4,5
 1765.63 1482 1765.63 1482 1816.61 1451 c 1,6,-1
 1774.04 1232 l 1,7,-1
 1679.04 1232 l 1,8,9
 1697.7 1328 1697.7 1328 1657.45 1373 c 0,10,11
 1627.83 1411 1627.83 1411 1567.8 1416 c 0,12,13
 1480.8 1416 1480.8 1416 1394.14 1356 c 2,14,-1
 686.537 823 l 1,15,-1
 1264.17 106 l 1,16,-1
 1434.17 106 l 1,17,-1
 1413.56 0 l 1,18,-1
 1066.56 0 l 1,19,-1
 496.378 709 l 1,20,-1
 379.167 106 l 1,21,-1
 569.167 106 l 1,22,-1
 548.562 0 l 1,23,-1
 -34.4375 0 l 1,24,-1
 -13.833 106 l 1,25,-1
 176.167 106 l 1,26,-1
 424.974 1386 l 1,27,-1
 234.974 1386 l 1,28,-1
 255.772 1493 l 1,29,-1
 838.772 1493 l 1,30,-1
 817.974 1386 l 1,31,-1
 627.974 1386 l 1,32,-1
 518.148 821 l 1,33,-1
 1270.97 1386 l 2,0,1
EndSplineSet
EndChar
StartChar: uni0199
Encoding: 409 409 409
Width: 1241
Flags: W
LayerCount: 2
Fore
SplineSet
374 543 m 1,0,-1
 903 956 l 1,14,-1
 750 956 l 1,15,-1
 770 1063 l 1,16,-1
 1069 1063 l 1,17,-1
 1049 956 l 1,18,-1
 676 664 l 1,0,-1
 971 106 l 1,1,-1
 1124 106 l 1,2,-1
 1104 0 l 1,3,-1
 809 0 l 1,4,-1
 519 543 l 1,5,-1
 348 408 l 1,6,-1
 269 0 l 1,18,-1
 85 0 l 1,19,-1
 319 1205 l 2,22,23
 350.545 1367.44 350.545 1367.44 467 1462 c 0,24,25
 582 1556 582 1556 753 1556 c 0,26,27
 830 1556 830 1556 888 1540 c 0,28,29
 950 1523 950 1523 1005 1490 c 1,30,-1
 963 1271 l 1,31,-1
 868 1271 l 1,32,33
 886 1363 886 1363 845 1412 c 0,34,35
 808 1457 808 1457 730 1457 c 0,36,37
 639 1457 639 1457 584 1396 c 0,38,39
 529.9 1336.89 529.9 1336.89 504 1205 c 2,40,-1
 374 543 l 1,0,-1
EndSplineSet
EndChar
StartChar: uni019A
Encoding: 410 410 410
Width: 655
Flags: W
LayerCount: 2
Fore
SplineSet
-1 464 m 1,0,-1
 20 570 l 1,1,-1
 196 570 l 1,2,-1
 367 1450 l 1,3,-1
 190 1450 l 1,4,-1
 210 1556 l 1,5,-1
 571 1556 l 1,6,-1
 380 570 l 1,7,-1
 554 570 l 1,8,-1
 533 464 l 1,9,-1
 359 464 l 1,10,-1
 289 106 l 1,11,-1
 463 106 l 1,12,-1
 443 0 l 1,13,-1
 85 0 l 1,14,-1
 175 464 l 1,17,-1
 -1 464 l 1,0,-1
EndSplineSet
EndChar
StartChar: uni019B
Encoding: 411 411 411
Width: 1298
Flags: W
LayerCount: 2
Fore
SplineSet
633.758 1307 m 2,0,1
 614.641 1399 614.641 1399 586.473 1429 c 0,2,3
 557.498 1460 557.498 1460 504.498 1460 c 0,4,5
 444.498 1460 444.498 1460 410.861 1431 c 0,6,7
 376.03 1401 376.03 1401 356.812 1333 c 1,8,-1
 262.812 1333 l 1,9,-1
 302.271 1536 l 1,10,11
 355.187 1551 355.187 1551 405.742 1559 c 0,12,13
 457.297 1567 457.297 1567 504.297 1567 c 0,14,15
 615.297 1567 615.297 1567 667.355 1521 c 0,16,17
 719.608 1476 719.608 1476 745.505 1352 c 1,18,-1
 911.555 1450 l 1,19,-1
 954.838 1364 l 1,20,-1
 765.484 1249 l 1,21,-1
 990.502 107 l 1,22,-1
 1109.5 107 l 1,23,-1
 1088.7 0 l 1,24,-1
 689.703 0 l 1,25,-1
 710.502 107 l 1,26,-1
 869.502 107 l 1,27,-1
 729.177 841 l 1,28,-1
 271.502 107 l 1,29,-1
 441.502 107 l 1,30,-1
 420.703 0 l 1,31,-1
 -68.2969 0 l 1,32,-1
 -47.498 107 l 1,33,-1
 73.502 107 l 1,34,-1
 676.411 1084 l 1,35,-1
 657.655 1183 l 1,36,-1
 354.306 996 l 1,37,-1
 310.022 1082 l 1,38,-1
 637.481 1285 l 1,39,-1
 633.758 1307 l 2,0,1
EndSplineSet
EndChar
StartChar: uni019C
Encoding: 412 412 412
Width: 1942
Flags: W
LayerCount: 2
Fore
SplineSet
796.756 207 m 1,0,1
 721.014 90 721.014 90 626.948 30.5 c 128,-1,2
 532.882 -29 532.882 -29 422.882 -29 c 0,3,4
 256.941 -29 256.941 -29 194.001 74.5 c 0,5,6
 131.862 176.68 131.862 176.68 172.744 387 c 2,7,-1
 367.514 1389 l 1,8,-1
 201.514 1389 l 1,9,-1
 222.118 1495 l 1,10,-1
 732.118 1495 l 1,11,-1
 711.514 1389 l 1,12,-1
 551.514 1389 l 1,13,-1
 360.826 408 l 2,14,15
 329.143 245 329.143 245 363.73 176 c 128,-1,16
 398.318 107 398.318 107 509.318 107 c 0,17,18
 632.736 107 632.736 107 714.896 200 c 0,19,20
 797.591 293.607 797.591 293.607 832.072 471 c 2,21,-1
 1010.51 1389 l 1,22,-1
 850.514 1389 l 1,23,-1
 871.118 1495 l 1,24,-1
 1375.12 1495 l 1,25,-1
 1354.51 1389 l 1,26,-1
 1194.51 1389 l 1,27,-1
 1002.47 401 l 2,28,29
 971.56 242.004 971.56 242.004 1006.44 174.5 c 128,-1,30
 1041.32 107 1041.32 107 1152.32 107 c 0,31,32
 1275.74 107 1275.74 107 1357.9 200 c 0,33,34
 1440.59 293.609 1440.59 293.609 1475.07 471 c 2,35,-1
 1653.51 1389 l 1,36,-1
 1493.51 1389 l 1,37,-1
 1514.12 1495 l 1,38,-1
 2024.12 1495 l 1,39,-1
 2003.51 1389 l 1,40,-1
 1837.51 1389 l 1,41,-1
 1587.93 105 l 1,42,-1
 1763.93 105 l 1,43,-1
 1743.52 0 l 1,44,-1
 1383.52 0 l 1,45,-1
 1420.26 189 l 1,46,47
 1348.65 83 1348.65 83 1258.77 27 c 128,-1,48
 1168.88 -29 1168.88 -29 1068.88 -29 c 0,49,50
 944.882 -29 944.882 -29 873.837 32.5 c 128,-1,51
 802.791 94 802.791 94 796.756 207 c 1,0,1
EndSplineSet
EndChar
StartChar: uni019D
Encoding: 413 413 413
Width: 1792
Flags: W
AnchorPoint: "above" 1054.01 1475 basechar 0
LayerCount: 2
Fore
SplineSet
-378.29 -358 m 1,0,-1
 -332.61 -123 l 1,1,-1
 -218.61 -123 l 1,2,3
 -237.854 -222 -237.854 -222 -200.185 -270 c 0,4,5
 -165.709 -319 -165.709 -319 -77.709 -319 c 0,6,7
 41.291 -319 41.291 -319 102.869 -244 c 0,8,9
 164.448 -169 164.448 -169 206.822 49 c 2,10,-1
 466.709 1386 l 1,11,-1
 265.709 1386 l 1,12,-1
 286.508 1493 l 1,13,-1
 669.508 1493 l 1,14,-1
 1335.53 315 l 1,15,-1
 1543.71 1386 l 1,16,-1
 1343.71 1386 l 1,17,-1
 1364.51 1493 l 1,18,-1
 1888.51 1493 l 1,19,-1
 1867.71 1386 l 1,20,-1
 1666.71 1386 l 1,21,-1
 1391.66 -29 l 1,22,-1
 1270.66 -29 l 1,23,-1
 559.997 1228 l 1,24,-1
 329.268 41 l 2,25,26
 281.256 -206 281.256 -206 160.874 -316 c 0,27,28
 40.4922 -426 40.4922 -426 -151.508 -426 c 0,29,30
 -171.508 -426 -171.508 -426 -241.203 -409 c 0,31,32
 -311.899 -392 -311.899 -392 -378.29 -358 c 1,0,-1
EndSplineSet
EndChar
StartChar: uni019E
Encoding: 414 414 414
Width: 1319
Flags: W
AnchorPoint: "above" 741.535 1092 basechar 0
LayerCount: 2
Fore
SplineSet
185 0 m 1,0,-1
 371 956 l 1,1,-1
 195 956 l 1,2,-1
 216 1063 l 1,3,-1
 576 1063 l 1,4,-1
 539 874 l 1,5,6
 611 982 611 982 703 1037 c 0,7,8
 796 1092 796 1092 904 1092 c 0,9,10
 1080 1092 1080 1092 1143 991 c 128,-1,11
 1206 890 1206 890 1165 676 c 2,12,-1
 971 -319 l 1,13,-1
 1135 -319 l 1,14,-1
 1114 -426 l 1,15,-1
 765 -426 l 1,16,-1
 968 618 l 2,17,18
 1006 813 1006 813 972 886 c 0,19,20
 938 958 938 958 817 958 c 0,21,22
 689 958 689 958 604 864 c 0,23,24
 519 771 519 771 484 592 c 2,25,-1
 369 0 l 1,26,-1
 185 0 l 1,0,-1
EndSplineSet
EndChar
StartChar: uni019F
Encoding: 415 415 415
Width: 1679
Flags: W
AnchorPoint: "above" 979.856 1465 basechar 0
LayerCount: 2
Fore
SplineSet
689.452 -29 m 0,0,1
 537.452 -29 537.452 -29 419.672 21 c 0,2,3
 301.891 71 301.891 71 223.745 168 c 0,4,5
 133.516 280 133.516 280 106.618 422 c 0,6,7
 79.7197 564 79.7197 564 114.902 745 c 0,8,9
 150.086 926 150.086 926 232.285 1068.5 c 0,10,11
 314.484 1211 314.484 1211 448.255 1323 c 0,12,13
 565.304 1421 565.304 1421 700.926 1470.5 c 0,14,15
 836.548 1520 836.548 1520 990.548 1520 c 0,16,17
 1315.55 1520 1315.55 1520 1474.14 1307 c 0,18,19
 1632.74 1094 1632.74 1094 1564.9 745 c 0,20,21
 1530.11 566 1530.11 566 1447.21 422.5 c 0,22,23
 1364.79 279.807 1364.79 279.807 1230.75 168 c 0,24,25
 1112.91 69.7139 1112.91 69.7139 978.074 20.5 c 0,26,27
 842.452 -29 842.452 -29 689.452 -29 c 0,0,1
710.251 78 m 0,28,29
 955.251 78 955.251 78 1113 246.5 c 0,30,31
 1258.33 401.724 1258.33 401.724 1324.21 694 c 1,32,-1
 334.766 694 l 1,33,34
 287.025 401.724 287.025 401.724 372.004 246.5 c 0,35,36
 464.251 78 464.251 78 710.251 78 c 0,28,29
1347.18 816 m 1,37,38
 1389.07 1094.57 1389.07 1094.57 1307 1244.5 c 0,39,40
 1214.75 1413 1214.75 1413 969.749 1413 c 0,41,42
 723.749 1413 723.749 1413 565.996 1244.5 c 0,43,44
 425.631 1094.57 425.631 1094.57 359.223 816 c 1,45,-1
 1347.18 816 l 1,37,38
EndSplineSet
EndChar
StartChar: uni01A2
Encoding: 418 418 418
Width: 2129
Flags: W
LayerCount: 2
Fore
SplineSet
717.832 -29 m 0,0,1
 565.832 -29 565.832 -29 448.051 21 c 0,2,3
 330.27 71 330.27 71 252.125 168 c 0,4,5
 161.896 280 161.896 280 134.997 422 c 0,6,7
 108.1 564 108.1 564 143.282 745 c 0,8,9
 178.465 926 178.465 926 260.664 1068.5 c 0,10,11
 342.863 1211 342.863 1211 476.634 1323 c 0,12,13
 593.684 1421 593.684 1421 729.306 1470.5 c 0,14,15
 864.927 1520 864.927 1520 1018.93 1520 c 0,16,17
 1222.67 1520 1222.67 1520 1361.02 1436.29 c 1,18,19
 1426.4 1461.95 1426.4 1461.95 1489.87 1476 c 0,20,21
 1566.68 1493 1566.68 1493 1637.68 1493 c 0,22,23
 1857.68 1493 1857.68 1493 1935.3 1383 c 0,24,25
 2012.92 1273 2012.92 1273 1964.9 1026 c 2,26,-1
 1723.87 -214 l 1,27,-1
 1913.87 -214 l 1,28,-1
 1893.07 -321 l 1,29,-1
 1268.07 -321 l 1,30,-1
 1288.87 -214 l 1,31,-1
 1520.87 -214 l 1,32,-1
 1760.35 1018 l 2,33,34
 1802.72 1236 1802.72 1236 1770.3 1311 c 0,35,36
 1737.88 1386 1737.88 1386 1618.88 1386 c 0,37,38
 1531.14 1386 1531.14 1386 1477.77 1337.79 c 1,39,40
 1490.61 1322.99 1490.61 1322.99 1502.52 1307 c 0,41,42
 1661.12 1094 1661.12 1094 1593.28 745 c 0,43,44
 1558.49 566 1558.49 566 1475.59 422.5 c 0,45,46
 1393.17 279.807 1393.17 279.807 1259.12 168 c 0,47,48
 1141.29 69.7139 1141.29 69.7139 1006.45 20.5 c 0,49,50
 870.832 -29 870.832 -29 717.832 -29 c 0,0,1
738.631 78 m 0,51,52
 983.631 78 983.631 78 1141.38 246.5 c 0,53,54
 1299.14 415 1299.14 415 1363.28 745 c 0,55,56
 1427.62 1076 1427.62 1076 1335.38 1244.5 c 0,57,58
 1243.13 1413 1243.13 1413 998.128 1413 c 0,59,60
 752.128 1413 752.128 1413 594.375 1244.5 c 0,61,62
 436.622 1076 436.622 1076 372.282 745 c 0,63,64
 308.137 415 308.137 415 400.384 246.5 c 0,65,66
 492.631 78 492.631 78 738.631 78 c 0,51,52
EndSplineSet
EndChar
StartChar: uni01A3
Encoding: 419 419 419
Width: 1653
Flags: W
LayerCount: 2
Fore
SplineSet
1005 1033 m 1,0,1
 1006 1035 1006 1035 1052 1046 c 0,2,3
 1121 1063 1121 1063 1193 1063 c 0,4,5
 1364 1063 1364 1063 1443.5 969.5 c 128,-1,6
 1523 876 1523 876 1491 712 c 2,7,-1
 1290 -319 l 1,8,-1
 1466 -319 l 1,9,-1
 1445 -426 l 1,10,-1
 1085 -426 l 1,11,-1
 1307 712 l 2,14,15
 1332 841 1332 841 1300.5 902.5 c 128,-1,16
 1269 964 1269 964 1178 964 c 0,17,18
 1113 964 1113 964 1098 951 c 0,19,-1
 1107 939 l 0,20,21
 1218 786 1218 786 1168.5 532 c 128,-1,22
 1119 278 1119 278 949 124.5 c 128,-1,23
 779 -29 779 -29 546 -29 c 0,24,25
 314 -29 314 -29 202.5 124.5 c 128,-1,26
 91 278 91 278 140.5 532 c 128,-1,27
 190 786 190 786 360.5 939 c 128,-1,28
 531 1092 531 1092 764 1092 c 0,29,30
 908 1092 908 1092 1005 1033 c 1,0,1
565 70 m 0,31,32
 713 70 713 70 811 187 c 128,-1,33
 909 304 909 304 953.5 532 c 128,-1,34
 998 760 998 760 945 876.5 c 128,-1,35
 892 993 892 993 744 993 c 128,-1,36
 596 993 596 993 498 876.5 c 128,-1,37
 400 760 400 760 355.5 532 c 128,-1,38
 311 304 311 304 364.5 187 c 128,-1,39
 418 70 418 70 565 70 c 0,31,32
EndSplineSet
EndChar
StartChar: uni01A4
Encoding: 420 420 420
Width: 1378
Flags: W
LayerCount: 2
Fore
SplineSet
448.104 1493 m 2,0,-1
 964.104 1493 l 2,1,2
 1188.1 1493 1188.1 1493 1297.14 1380 c 0,3,4
 1405.98 1266 1405.98 1266 1368.46 1073 c 0,5,6
 1331.14 881 1331.14 881 1177.98 767 c 128,-1,7
 1024.83 653 1024.83 653 800.825 653 c 2,8,-1
 487.825 653 l 1,9,-1
 381.499 106 l 1,10,-1
 612.499 106 l 1,11,-1
 591.896 0 l 1,12,-1
 -32.1045 0 l 1,13,-1
 -11.501 106 l 1,14,-1
 178.499 106 l 1,15,-1
 427.307 1386 l 0,16,17
 200.307 1386 200.307 1386 115.007 1297 c 0,18,19
 26.3174 1206 26.3174 1206 -9.83691 1020 c 1,20,-1
 -138.837 1020 l 1,21,-1
 -71.9697 1364 l 1,22,23
 40.2197 1437 40.2197 1437 231.801 1476 c 0,24,25
 350.104 1493 350.104 1493 448.104 1493 c 2,0,-1
508.624 760 m 1,26,-1
 772.624 760 l 2,27,28
 921.624 760 921.624 760 1015.17 840 c 0,29,30
 1108.92 921 1108.92 921 1138.46 1073 c 0,31,32
 1168.21 1226 1168.21 1226 1105.76 1306 c 128,-1,33
 1043.31 1386 1043.31 1386 894.307 1386 c 2,34,-1
 630.307 1386 l 1,35,-1
 508.624 760 l 1,26,-1
EndSplineSet
EndChar
StartChar: uni01A5
Encoding: 421 421 421
Width: 1311
Flags: W
LayerCount: 2
Fore
SplineSet
432 584 m 2,0,-1
 412 479 l 2,1,2
 375 287 375 287 429 186 c 0,3,4
 483 86 483 86 623 86 c 0,5,6
 764 86 764 86 858 199 c 0,7,8
 953 312 953 312 995 532 c 0,9,10
 1038 753 1038 753 987 865 c 0,11,12
 937 977 937 977 796 977 c 0,13,14
 656 977 656 977 563 876 c 128,-1,16
 470 775 470 775 432 584 c 2,0,-1
351 1115 m 2,17,18
 383 1281 383 1281 498 1373 c 0,19,20
 614 1466 614 1466 785 1466 c 0,21,22
 852 1466 852 1466 919 1449 c 0,23,24
 981 1433 981 1433 1037 1400 c 1,25,-1
 994 1181 l 1,26,-1
 899 1181 l 1,27,28
 918 1274 918 1274 878 1322 c 0,29,30
 841 1367 841 1367 762 1367 c 0,31,32
 671 1367 671 1367 615 1305 c 0,33,34
 561 1245 561 1245 536 1115 c 2,35,-1
 493 897 l 1,36,37
 565 995 565 995 660 1044 c 0,38,39
 752 1092 752 1092 875 1092 c 0,40,41
 1071 1092 1071 1092 1165 937 c 128,-1,43
 1259 782 1259 782 1210.5 532 c 128,-1,45
 1162 282 1162 282 1007 126 c 0,46,47
 853 -29 853 -29 657 -29 c 0,48,49
 534 -29 534 -29 460 18 c 0,50,51
 386 66 386 66 351 166 c 1,52,-1
 236 -426 l 1,55,-1
 51 -426 l 1,56,-1
 351 1115 l 2,17,18
EndSplineSet
EndChar
StartChar: uni01A6
Encoding: 422 422 422
Width: 1542
Flags: W
LayerCount: 2
Fore
SplineSet
458.893 1386 m 1,0,-1
 268.893 1386 l 1,1,-1
 289.691 1493 l 1,2,-1
 893.691 1493 l 1,3,-1
 872.893 1386 l 1,4,-1
 661.893 1386 l 1,5,-1
 619.519 1168 l 1,6,-1
 983.519 1168 l 2,7,8
 1201.52 1168 1201.52 1168 1299.8 1064 c 0,9,10
 1371.14 988.515 1371.14 988.515 1371.14 867.196 c 0,11,12
 1371.14 821.368 1371.14 821.368 1360.96 769 c 0,13,14
 1300.95 460.257 1300.95 460.257 948.344 416 c 1,15,16
 1014.65 397 1014.65 397 1056.18 351.635 c 128,-1,17
 1097.71 306.27 1097.71 306.27 1122.02 224 c 2,18,-1
 1252.91 -219 l 1,19,-1
 1434.91 -219 l 1,20,-1
 1414.31 -325 l 1,21,-1
 1062.31 -325 l 1,22,-1
 921.639 150 l 2,23,24
 880.541 288.776 880.541 288.776 832.875 328.888 c 128,-1,25
 785.208 369 785.208 369 687.208 369 c 2,26,-1
 464.208 369 l 1,27,-1
 413.086 106 l 1,28,-1
 624.086 106 l 1,29,-1
 603.481 0 l 1,30,-1
 -0.518555 0 l 1,31,-1
 20.0859 106 l 1,32,-1
 210.086 106 l 1,33,-1
 458.893 1386 l 1,0,-1
485.007 476 m 1,34,-1
 780.007 476 l 2,35,36
 931.007 476 931.007 476 1016.91 547.5 c 128,-1,37
 1102.8 619 1102.8 619 1131.96 769 c 0,38,39
 1141.69 819.066 1141.69 819.066 1141.69 880.882 c 128,-1,40
 1141.69 942.698 1141.69 942.698 1102.92 990 c 0,41,42
 1044.72 1061 1044.72 1061 893.72 1061 c 2,43,-1
 598.72 1061 l 1,44,-1
 485.007 476 l 1,34,-1
EndSplineSet
EndChar
StartChar: uni01A7
Encoding: 423 423 423
Width: 1403
Flags: W
AnchorPoint: "above" 841.856 1465 basechar 0
LayerCount: 2
Fore
SplineSet
1104.08 72 m 1,0,1
 962.172 21 962.172 21 830.312 -4 c 0,2,3
 697.452 -29 697.452 -29 574.452 -29 c 0,4,5
 299.452 -29 299.452 -29 181.834 81 c 128,-1,6
 64.2158 191 64.2158 191 106.396 408 c 0,7,8
 137.303 567 137.303 567 241.77 662 c 0,9,10
 347.041 756 347.041 756 561.898 817 c 2,11,-1
 757.589 872 l 2,12,13
 970.252 932 970.252 932 1044.11 993 c 128,-1,14
 1117.97 1054 1117.97 1054 1138.76 1161 c 0,15,16
 1162.67 1284 1162.67 1284 1093.11 1348 c 0,17,18
 1022.75 1413 1022.75 1413 864.749 1413 c 0,19,20
 683.749 1413 683.749 1413 581.948 1342 c 0,21,22
 479.341 1272 479.341 1272 431.629 1114 c 1,23,-1
 318.629 1114 l 1,24,-1
 380.442 1432 l 1,25,26
 528.801 1475 528.801 1475 657.271 1498 c 0,27,28
 785.548 1520 785.548 1520 889.548 1520 c 0,29,30
 1133.55 1520 1133.55 1520 1248.14 1415 c 128,-1,31
 1362.73 1310 1362.73 1310 1325.8 1120 c 0,32,33
 1292.95 951 1292.95 951 1187.09 854 c 0,34,35
 1080.24 757 1080.24 757 853.601 692 c 2,36,-1
 645.132 633 l 2,37,38
 452.441 578 452.441 578 384.167 520 c 0,39,40
 316.894 462 316.894 462 295.9 354 c 0,41,42
 269.659 219 269.659 219 349.857 148 c 0,43,44
 429.251 78 429.251 78 607.251 78 c 0,45,46
 798.251 78 798.251 78 908.19 160 c 0,47,48
 1016.94 241 1016.94 241 1055.17 412 c 1,49,-1
 1170.17 412 l 1,50,-1
 1104.08 72 l 1,0,1
EndSplineSet
EndChar
StartChar: uni01A8
Encoding: 424 424 424
Width: 1051
Flags: W
AnchorPoint: "above" 634.95 1092 basechar 0
LayerCount: 2
Fore
SplineSet
854.155 59 m 1,0,1
 747.603 15 747.603 15 645.326 -7 c 128,-1,2
 543.05 -29 543.05 -29 440.05 -29 c 0,3,4
 237.05 -29 237.05 -29 137.961 58 c 0,5,6
 39.6777 144 39.6777 144 69.0293 295 c 0,7,8
 90.6055 406 90.6055 406 171.212 476 c 0,9,10
 251.013 547 251.013 547 411.148 594 c 2,11,-1
 565.896 639 l 2,12,13
 709.06 681 709.06 681 762.029 722 c 0,14,15
 814.805 762 814.805 762 827.828 829 c 0,16,17
 843.768 911 843.768 911 791.737 952 c 0,18,19
 740.707 993 740.707 993 624.706 993 c 0,20,21
 507.706 993 507.706 993 428.433 935 c 128,-1,22
 349.158 877 349.158 877 325.138 774 c 1,23,-1
 219.138 774 l 1,24,-1
 264.233 1006 l 1,25,26
 371.397 1048 371.397 1048 468.674 1070 c 128,-1,27
 565.95 1092 565.95 1092 649.95 1092 c 0,28,29
 838.95 1092 838.95 1092 929.816 1009 c 128,-1,30
 1020.68 926 1020.68 926 992.304 780 c 0,31,32
 972.477 678 972.477 678 897.647 612 c 0,33,34
 823.818 546 823.818 546 678.266 502 c 1,35,-1
 536.519 457 l 1,36,37
 373.994 408 373.994 408 317.636 365 c 0,38,39
 262.277 322 262.277 322 248.671 252 c 0,40,41
 231.371 163 231.371 163 287.235 116 c 0,42,43
 343.294 70 343.294 70 467.294 70 c 0,44,45
 605.294 70 605.294 70 687.762 129 c 0,46,47
 769.23 188 769.23 188 796.361 307 c 1,48,-1
 902.361 307 l 1,49,-1
 854.155 59 l 1,0,1
EndSplineSet
EndChar
StartChar: uni01AA
Encoding: 426 426 426
Width: 664
Flags: W
LayerCount: 2
Fore
SplineSet
356.446 1459 m 0,0,1
 197.446 1459 197.446 1459 176.647 1352 c 0,2,3
 152.738 1229 152.738 1229 463.738 1229 c 0,4,5
 477.738 1229 477.738 1229 491.933 1230 c 1,6,7
 518.399 1325 518.399 1325 479.395 1397 c 0,8,9
 445.446 1459 445.446 1459 356.446 1459 c 0,0,1
684.954 1333 m 1,10,11
 727.812 1394 727.812 1394 746.277 1489 c 2,12,-1
 758.718 1553 l 1,13,-1
 858.718 1553 l 1,14,-1
 845.277 1489 l 2,15,16
 799.514 1269 799.514 1269 660.797 1183 c 1,17,18
 466.832 643 466.832 643 213.436 -105 c 0,19,20
 176.248 -214 176.248 -214 219.503 -295 c 0,21,22
 250.451 -357 250.451 -357 341.451 -357 c 0,23,24
 423.451 -357 423.451 -357 475.393 -311 c 0,25,26
 525.945 -267 525.945 -267 551.606 -171 c 1,27,-1
 646.606 -171 l 1,28,-1
 604.231 -389 l 1,29,30
 535.622 -423 535.622 -423 467.513 -439 c 0,31,32
 398.402 -455 398.402 -455 326.402 -455 c 0,33,34
 155.402 -455 155.402 -455 76.4795 -362 c 0,35,36
 -21.167 -247 -21.167 -247 28.4355 -105 c 1,37,38
 26.1562 -91 26.1562 -91 457.301 1129 c 1,39,40
 452.301 1129 452.301 1129 448.301 1129 c 0,41,42
 -89.6992 1129 -89.6992 1129 -39.9922 1359 c 0,43,44
 2.68945 1558 2.68945 1558 377.689 1558 c 0,45,46
 538.689 1558 538.689 1558 622.612 1465 c 0,47,48
 675.755 1404 675.755 1404 684.954 1333 c 1,10,11
EndSplineSet
EndChar
StartChar: uni01AB
Encoding: 427 427 427
Width: 823
Flags: W
LayerCount: 2
Fore
SplineSet
406.827 956 m 1,0,-1
 244.827 956 l 1,1,-1
 265.626 1063 l 1,2,-1
 427.626 1063 l 1,3,-1
 491.771 1393 l 1,4,-1
 676.771 1393 l 1,5,-1
 612.626 1063 l 1,6,-1
 958.626 1063 l 1,7,-1
 937.827 956 l 1,8,-1
 591.827 956 l 1,9,-1
 460.621 281 l 2,10,11
 434.38 146 434.38 146 452.993 108 c 0,12,13
 471.606 70 471.606 70 541.606 70 c 0,14,15
 613.606 70 613.606 70 654.868 112.5 c 0,16,17
 696.129 155 696.129 155 716.595 250 c 1,18,-1
 855.595 250 l 1,19,-1
 786.784 -104 l 2,20,21
 754.906 -268 754.906 -268 639.231 -361.5 c 0,22,23
 523.557 -455 523.557 -455 352.557 -455 c 0,24,25
 280.557 -455 280.557 -455 218.265 -438.5 c 0,26,27
 155.972 -422 155.972 -422 100.386 -389 c 1,28,-1
 142.955 -170 l 1,29,-1
 237.955 -170 l 1,30,31
 226.295 -266 226.295 -266 260.048 -311 c 0,32,33
 293.801 -356 293.801 -356 375.801 -356 c 0,34,35
 466.77 -356 466.77 -356 522.255 -294.5 c 0,36,37
 576.426 -234.457 576.426 -234.457 601.784 -104 c 2,38,-1
 618.721 -16.8691 l 1,39,40
 568.062 -29 568.062 -29 506.363 -29 c 0,41,42
 347.363 -29 347.363 -29 295.066 41.5 c 0,43,44
 242.771 112 242.771 112 275.621 281 c 2,45,-1
 406.827 956 l 1,0,-1
EndSplineSet
EndChar
StartChar: uni01AC
Encoding: 428 428 428
Width: 1366
Flags: W
AnchorPoint: "above" 816.662 1465 basechar 0
LayerCount: 2
Fore
SplineSet
727.104 1493 m 10,0,-1
 1491.1 1493 l 17,1,-1
 1422.68 1141 l 1,2,-1
 1299.68 1141 l 1,3,-1
 1344.97 1374 l 1,4,-1
 905.974 1374 l 1,5,-1
 659.499 106 l 1,6,-1
 850.499 106 l 1,7,-1
 829.896 0 l 1,8,-1
 245.896 0 l 1,9,-1
 266.499 106 l 1,10,-1
 457.499 106 l 1,11,-1
 703.974 1374 l 0,12,13
 476.974 1374 476.974 1374 390.674 1285 c 0,14,15
 302.985 1194 302.985 1194 266.83 1008 c 1,16,-1
 137.83 1008 l 1,17,-1
 207.03 1364 l 1,18,19
 323.803 1440 323.803 1440 510.801 1476 c 0,20,21
 634.104 1493 634.104 1493 727.104 1493 c 10,0,-1
EndSplineSet
EndChar
StartChar: uni01AD
Encoding: 429 429 429
Width: 823
Flags: W
LayerCount: 2
Fore
SplineSet
464.217 1063 m 1,0,-1
 810.217 1063 l 1,1,-1
 789.418 956 l 1,2,-1
 443.418 956 l 1,3,-1
 312.212 281 l 2,4,5
 285.97 146 285.97 146 304.584 108 c 128,-1,6
 323.197 70 323.197 70 393.197 70 c 0,7,8
 465.197 70 465.197 70 506.361 112 c 0,9,10
 547.72 155 547.72 155 568.186 250 c 1,11,-1
 707.186 250 l 1,12,13
 679.001 105 679.001 105 586.978 38 c 0,14,15
 502.953 -29 502.953 -29 357.953 -29 c 0,16,17
 198.953 -29 198.953 -29 146.755 42 c 0,18,19
 94.3613 112 94.3613 112 127.212 281 c 2,20,-1
 258.418 956 l 1,21,-1
 96.418 956 l 1,22,-1
 117.217 1063 l 1,23,-1
 279.217 1063 l 1,24,-1
 306.819 1205 l 2,25,26
 338.309 1367 338.309 1367 454.774 1462 c 0,27,28
 570.047 1556 570.047 1556 741.047 1556 c 0,29,30
 818.047 1556 818.047 1556 875.937 1540 c 0,31,32
 937.632 1523 937.632 1523 993.218 1490 c 1,33,-1
 950.648 1271 l 1,34,-1
 855.648 1271 l 1,35,36
 874.309 1367 874.309 1367 833.056 1412 c 0,37,38
 799.803 1457 799.803 1457 717.803 1457 c 0,39,40
 626.803 1457 626.803 1457 571.945 1396 c 0,41,42
 517.478 1337 517.478 1337 491.819 1205 c 2,43,-1
 464.217 1063 l 1,0,-1
EndSplineSet
EndChar
StartChar: uni01AE
Encoding: 430 430 430
Width: 1366
Flags: W
LayerCount: 2
Fore
SplineSet
1116.71 -358 m 1,0,1
 1037.1 -392 1037.1 -392 960.797 -409 c 0,2,3
 883.492 -426 883.492 -426 812.492 -426 c 0,4,5
 592.492 -426 592.492 -426 514.874 -316 c 0,6,7
 437.256 -206 437.256 -206 486.268 41 c 2,8,-1
 745.377 1374 l 1,9,-1
 306.377 1374 l 1,10,-1
 261.086 1141 l 1,11,-1
 138.086 1141 l 1,12,-1
 206.508 1493 l 1,13,-1
 1532.51 1493 l 1,14,-1
 1464.09 1141 l 1,15,-1
 1341.09 1141 l 1,16,-1
 1386.38 1374 l 1,17,-1
 947.377 1374 l 1,18,-1
 689.822 49 l 2,19,20
 648.031 -166 648.031 -166 679.869 -244 c 0,21,22
 710.291 -319 710.291 -319 831.291 -319 c 0,23,24
 919.291 -319 919.291 -319 972.815 -270 c 0,25,26
 1026.15 -222 1026.15 -222 1048.39 -123 c 1,27,-1
 1162.39 -123 l 1,28,-1
 1116.71 -358 l 1,0,1
EndSplineSet
EndChar
StartChar: uni01B1
Encoding: 433 433 433
Width: 1698
Flags: W
LayerCount: 2
Fore
SplineSet
695.851 1356 m 1,0,-1
 359.851 1356 l 1,1,-1
 333.221 1219 l 1,2,-1
 216.221 1219 l 1,3,-1
 274.729 1520 l 1,4,-1
 866.729 1520 l 1,5,-1
 831.352 1338 l 1,6,7
 637.745 1268 637.745 1268 514.422 1112 c 0,8,9
 392.293 957 392.293 957 347.196 725 c 0,10,11
 292.965 446 292.965 446 396.92 276 c 0,12,13
 501.069 107 501.069 107 723.069 107 c 128,-1,14
 945.069 107 945.069 107 1114.92 276 c 0,15,16
 1284.96 446 1284.96 446 1339.2 725 c 0,17,18
 1384.49 958 1384.49 958 1322.62 1113 c 128,-1,19
 1260.75 1268 1260.75 1268 1095.35 1338 c 1,20,-1
 1130.73 1520 l 1,21,-1
 1720.73 1520 l 1,22,-1
 1662.22 1219 l 1,23,-1
 1545.22 1219 l 1,24,-1
 1571.85 1356 l 1,25,-1
 1237.85 1356 l 1,26,27
 1429.94 1269 1429.94 1269 1517.73 1093 c 128,-1,28
 1605.52 917 1605.52 917 1563.92 703 c 0,29,30
 1534.57 552 1534.57 552 1452.11 421 c 0,31,32
 1368.64 290 1368.64 290 1238.62 187 c 0,33,34
 1121.93 96 1121.93 96 984.602 48 c 128,-1,35
 847.271 0 847.271 0 702.271 0 c 128,-1,36
 557.271 0 557.271 0 439.602 48 c 0,37,38
 321.737 95 321.737 95 240.62 187 c 0,39,40
 149.642 290 149.642 290 117.3 422 c 0,41,42
 84.7637 553 84.7637 553 113.92 703 c 0,43,44
 155.323 916 155.323 916 312.534 1092 c 0,45,46
 468.939 1269 468.939 1269 695.851 1356 c 1,0,-1
EndSplineSet
EndChar
StartChar: uni01B2
Encoding: 434 434 434
Width: 1556
Flags: W
LayerCount: 2
Fore
SplineSet
563.052 0 m 24,0,1
 348.236 -11.0957 348.236 -11.0957 285.549 54 c 0,2,3
 188.198 155.089 188.198 155.089 226.279 351 c 2,4,-1
 427.463 1386 l 1,5,-1
 237.463 1386 l 1,6,-1
 258.262 1493 l 1,7,-1
 841.262 1493 l 1,8,-1
 820.463 1386 l 1,9,-1
 630.463 1386 l 1,10,-1
 429.279 351 l 2,11,12
 405.045 226.325 405.045 226.325 434.153 160 c 0,13,14
 454.888 112.753 454.888 112.753 583.851 107 c 24,15,16
 796.346 97.5195 796.346 97.5195 975.798 276.5 c 0,17,18
 1145.75 446 1145.75 446 1199.98 725 c 0,19,20
 1248.36 973.905 1248.36 973.905 1183.4 1113 c 0,21,22
 1120.86 1244 1120.86 1244 974.304 1272 c 1,23,-1
 996.463 1386 l 1,24,-1
 1104.46 1386 l 1,25,-1
 1104.46 1386 l 1,26,27
 1309.96 1303.35 1309.96 1303.35 1382.31 1128 c 0,28,29
 1466.88 919.998 1466.88 919.998 1424.7 703 c 0,30,31
 1395.35 552 1395.35 552 1312.39 421 c 0,32,33
 1227.42 286.834 1227.42 286.834 1099.4 187 c 0,34,35
 982.713 96 982.713 96 845.383 48 c 0,36,37
 733.194 8.78809 733.194 8.78809 563.052 0 c 24,0,1
EndSplineSet
EndChar
StartChar: uni01B3
Encoding: 435 435 435
Width: 1512
Flags: W
AnchorPoint: "above" 814.022 1472 basechar 0
LayerCount: 2
Fore
SplineSet
655.499 106 m 17,0,-1
 846.499 106 l 1,1,-1
 825.896 0 l 1,2,-1
 241.896 0 l 1,3,-1
 262.499 106 l 1,4,-1
 453.499 106 l 1,5,-1
 557.882 643 l 1,6,-1
 241.307 1386 l 1,7,-1
 101.307 1386 l 1,8,-1
 122.104 1493 l 1,9,-1
 677.104 1493 l 1,10,-1
 656.307 1386 l 1,11,-1
 482.307 1386 l 1,12,-1
 737.9 782 l 1,13,-1
 1228.31 1386 l 1,14,15
 1378.83 1493 1378.83 1493 1515.1 1493 c 0,16,17
 1581.98 1493 1581.98 1493 1648.8 1476 c 0,18,19
 1711.69 1460 1711.69 1460 1767.28 1427 c 1,20,-1
 1724.71 1208 l 1,21,-1
 1629.71 1208 l 1,22,23
 1641.37 1304 1641.37 1304 1608.11 1349 c 0,24,25
 1573.86 1394 1573.86 1394 1491.86 1394 c 0,26,27
 1365.96 1394 1365.96 1394 1300.87 1322 c 0,28,-1
 763.575 662 l 9,29,-1
 655.499 106 l 17,0,-1
EndSplineSet
EndChar
StartChar: uni01B4
Encoding: 436 436 436
Width: 1525
Flags: W
AnchorPoint: "above" 723.533 1092 basechar 0
LayerCount: 2
Fore
SplineSet
437.118 -240 m 1,0,1
 363.016 -364 363.016 -364 293.171 -409.5 c 128,-1,2
 223.326 -455 223.326 -455 112.326 -455 c 0,3,4
 65.3262 -455 65.3262 -455 17.3818 -447 c 128,-1,5
 -30.5635 -439 -30.5635 -439 -77.6475 -424 c 1,6,-1
 -38.1885 -221 l 1,7,-1
 55.8115 -221 l 1,8,9
 48.5938 -289 48.5938 -289 71.3594 -318.5 c 128,-1,10
 94.125 -348 94.125 -348 154.125 -348 c 0,11,12
 209.125 -348 209.125 -348 248.554 -317.5 c 128,-1,13
 287.982 -287 287.982 -287 342.865 -195 c 1,14,-1
 447.271 -18 l 1,15,-1
 239.598 956 l 1,16,-1
 118.598 956 l 1,17,-1
 139.396 1063 l 1,18,-1
 628.396 1063 l 1,19,-1
 607.598 956 l 1,20,-1
 437.598 956 l 1,21,-1
 594.505 225 l 1,22,-1
 982.714 864 l 2,23,24
 1117.64 1086.09 1117.64 1086.09 1362.67 1085 c 0,25,26
 1455.5 1084.59 1455.5 1084.59 1496.37 1068 c 0,27,28
 1610 1021.88 1610 1021.88 1614.84 1019 c 1,29,-1
 1572.27 800 l 1,30,-1
 1477.27 800 l 1,31,32
 1488.93 896 1488.93 896 1455.68 941 c 0,33,34
 1421.43 986 1421.43 986 1339.43 986 c 0,35,36
 1173.78 986 1173.78 986 1086.05 840 c 2,37,-1
 437.118 -240 l 1,0,1
EndSplineSet
EndChar
StartChar: uni01B5
Encoding: 437 437 437
Width: 1423
Flags: W
AnchorPoint: "above" 853 1465 basechar 0
AnchorPoint: "below" 568 0 basechar 0
LayerCount: 2
Fore
SplineSet
-53 0 m 1,0,-1
 -39 72 l 1,1,-1
 551 719 l 1,2,-1
 245 719 l 1,3,-1
 269 844 l 1,4,-1
 664 844 l 1,5,-1
 1143 1370 l 1,6,-1
 371 1370 l 1,7,-1
 328 1147 l 1,8,-1
 205 1147 l 1,9,-1
 272 1493 l 1,10,-1
 1452 1493 l 1,11,-1
 1438 1421 l 1,12,-1
 913 844 l 1,13,-1
 1240 844 l 1,14,-1
 1216 719 l 1,15,-1
 799 719 l 1,16,-1
 256 123 l 1,17,-1
 1100 123 l 1,18,-1
 1140 332 l 1,19,-1
 1262 332 l 1,20,-1
 1198 0 l 1,21,-1
 -53 0 l 1,0,-1
EndSplineSet
EndChar
StartChar: uni01B6
Encoding: 438 438 438
Width: 1079
Flags: W
AnchorPoint: "above" 637.95 1092 basechar 0
AnchorPoint: "below" 425.687 0 basechar 0
LayerCount: 2
Fore
SplineSet
159 464 m 1,0,-1
 179 570 l 1,1,-1
 460 570 l 1,2,-1
 723 843 l 1,3,4
 712 847 712 847 683 856 c 0,5,6
 653.1 865.674 653.1 865.674 615 889 c 2,7,-1
 566 919 l 2,8,9
 472.9 976 472.9 976 404 976 c 0,10,11
 273 976 273 976 119 826 c 1,12,-1
 143 947 l 1,13,14
 315.254 1116.23 315.254 1116.23 444 1115 c 0,15,16
 520.968 1114.26 520.968 1114.26 634 1044 c 0,17,18
 745 975 745 975 815 975 c 0,19,20
 923 975 923 975 1028 1063 c 1,21,-1
 1088 1063 l 1,22,-1
 1072 977 l 1,23,-1
 681 570 l 1,24,-1
 913 570 l 1,25,-1
 893 464 l 1,26,-1
 580 464 l 1,27,-1
 345 219 l 1,28,29
 355 216 355 216 384 207 c 0,30,31
 413.9 197.326 413.9 197.326 452 174 c 2,32,-1
 501 144 l 2,33,34
 594.1 87 594.1 87 663 87 c 0,35,36
 794 87 794 87 948 237 c 1,37,-1
 924 116 l 1,38,39
 751.746 -53.232 751.746 -53.232 623 -52 c 0,40,41
 546.033 -51.2635 546.033 -51.2635 433 19 c 0,42,43
 322 88 322 88 252 88 c 0,44,45
 144 88 144 88 39 0 c 1,46,-1
 -21 0 l 1,47,-1
 -5 86 l 1,48,-1
 358 464 l 1,49,-1
 159 464 l 1,0,-1
EndSplineSet
EndChar
StartChar: uni01B7
Encoding: 439 439 439
Width: 1156
Flags: W
LayerCount: 2
Fore
SplineSet
551.325 852 m 2,0,-1
 456.325 852 l 1,1,-1
 476.152 954 l 1,2,-1
 901.015 1370 l 1,3,-1
 374.015 1370 l 1,4,-1
 330.668 1147 l 1,5,-1
 207.668 1147 l 1,6,-1
 274.924 1493 l 1,7,-1
 1147.92 1493 l 1,8,-1
 1123.63 1368 l 1,9,-1
 668.127 923 l 1,10,-1
 745.766 916 l 0,11,12
 924.129 887 924.129 887 1002.61 766 c 0,13,14
 1080.28 646 1080.28 646 1042.96 454 c 0,15,16
 997.478 220 997.478 220 832.18 95 c 0,17,18
 668.076 -29 668.076 -29 404.076 -29 c 0,19,20
 287.076 -29 287.076 -29 181.52 -1 c 0,21,22
 74.9619 27 74.9619 27 -23.958 84 c 1,23,-1
 39.0205 408 l 1,24,-1
 151.021 408 l 1,25,26
 129.726 247 129.726 247 200.592 164 c 128,-1,27
 271.458 81 271.458 81 429.458 81 c 0,28,29
 582.458 81 582.458 81 690.896 181 c 0,30,31
 798.14 280 798.14 280 831.573 452 c 0,32,33
 869.866 649 869.866 649 798.693 751 c 0,34,35
 727.325 852 727.325 852 551.325 852 c 2,0,-1
EndSplineSet
AlternateSubs2: "'aalt' Access All Alternates" uni01B7.alt
EndChar
StartChar: uni01B8
Encoding: 440 440 440
Width: 1156
Flags: W
LayerCount: 2
Fore
SplineSet
694.325 852 m 2,0,1
 518.325 852 518.325 852 407.693 751 c 0,2,3
 296.866 649 296.866 649 258.573 452 c 0,4,5
 225.14 280 225.14 280 293.896 181 c 0,6,7
 363.458 81 363.458 81 516.458 81 c 0,8,9
 674.458 81 674.458 81 777.592 164 c 128,-1,10
 880.726 247 880.726 247 922.021 408 c 1,11,-1
 1034.02 408 l 1,12,-1
 971.042 84 l 1,13,14
 849.962 27 849.962 27 732.52 -1 c 0,15,16
 616.076 -29 616.076 -29 499.076 -29 c 0,17,18
 235.076 -29 235.076 -29 119.18 95 c 0,19,20
 2.47754 220 2.47754 220 47.9619 454 c 0,21,22
 85.2832 646 85.2832 646 209.609 766 c 0,23,24
 335.129 887 335.129 887 524.766 916 c 0,25,-1
 605.127 923 l 1,26,-1
 322.626 1368 l 1,27,-1
 346.924 1493 l 1,28,-1
 1219.92 1493 l 1,29,-1
 1152.67 1147 l 1,30,-1
 1029.67 1147 l 1,31,-1
 1073.01 1370 l 1,32,-1
 546.015 1370 l 1,33,-1
 809.152 954 l 1,34,-1
 789.325 852 l 1,35,-1
 694.325 852 l 2,0,1
EndSplineSet
EndChar
StartChar: uni01B9
Encoding: 441 441 441
Width: 1156
Flags: W
LayerCount: 2
Fore
SplineSet
694.423 423 m 2,0,1
 518.423 423 518.423 423 407.79 322 c 0,2,3
 296.964 220 296.964 220 258.671 23 c 0,4,5
 225.237 -149 225.237 -149 293.993 -248 c 0,6,7
 363.556 -348 363.556 -348 516.556 -348 c 0,8,9
 674.556 -348 674.556 -348 777.689 -265 c 128,-1,10
 880.822 -182 880.822 -182 922.118 -21 c 1,11,-1
 1034.12 -21 l 1,12,-1
 971.139 -345 l 1,13,14
 850.059 -402 850.059 -402 732.616 -430 c 0,15,16
 616.174 -458 616.174 -458 499.174 -458 c 0,17,18
 235.174 -458 235.174 -458 119.277 -334 c 0,19,20
 2.57422 -209 2.57422 -209 48.0596 25 c 0,21,22
 85.3809 217 85.3809 217 209.706 337 c 0,23,24
 335.227 458 335.227 458 524.863 487 c 0,25,-1
 605.224 494 l 1,26,-1
 330.109 977 l 1,27,-1
 346.826 1063 l 1,28,-1
 1216.83 1063 l 1,29,-1
 1160.26 772 l 1,30,-1
 1054.26 772 l 1,31,-1
 1090.03 956 l 1,32,-1
 563.027 956 l 1,33,-1
 809.25 525 l 1,34,-1
 789.423 423 l 1,35,-1
 694.423 423 l 2,0,1
EndSplineSet
EndChar
StartChar: uni01BA
Encoding: 442 442 442
Width: 1156
Flags: W
AnchorPoint: "above" 682 1092 basechar 0
AnchorPoint: "below" 437 -430 basechar 0
LayerCount: 2
Fore
SplineSet
551 423 m 2,0,1
 456 423 l 1,2,-1
 476 525 l 1,3,-1
 890 956 l 1,4,-1
 363 956 l 1,5,-1
 327 772 l 1,6,-1
 221 772 l 1,7,-1
 278 1063 l 1,8,-1
 1148 1063 l 1,9,-1
 1131 977 l 1,10,-1
 668 494 l 1,11,12
 1100 455 1100 455 1066 282 c 0,13,14
 1029 89 1029 89 631.5 -19.5 c 128,-1,15
 234 -128 234 -128 214 -231 c 0,16,17
 212 -240 212 -240 212 -247 c 0,18,19
 213 -348 213 -348 472 -348 c 0,20,21
 752 -348 752 -348 837 -130 c 1,22,-1
 932 -130 l 1,23,-1
 902 -284 l 1,24,25
 748 -458 748 -458 365 -458 c 0,26,27
 19 -458 19 -458 19 -285 c 0,28,29
 19 -266 19 -266 23 -246 c 0,30,31
 59 -62 59 -62 442 25 c 128,-1,32
 825 112 825 112 860 292 c 0,33,34
 885 423 885 423 551 423 c 2,0,1
EndSplineSet
EndChar
StartChar: uni01BB
Encoding: 443 443 443
Width: 1303
Flags: W
LayerCount: 2
Fore
SplineSet
335 1137 m 1,0,-1
 223 1137 l 1,1,-1
 275 1403 l 1,2,3
 393 1460 393 1460 507.5 1490 c 128,-1,4
 622 1520 622 1520 726 1520 c 0,5,6
 959 1520 959 1520 1072 1407 c 128,-1,7
 1185 1294 1185 1294 1147 1100 c 0,8,9
 1124 984 1124 984 1011 844 c 1,10,-1
 1138 844 l 1,11,-1
 1114 719 l 1,12,-1
 898 719 l 1,13,14
 829 650 829 650 739 576 c 1,15,-1
 696 541 l 1,16,-1
 246 164 l 1,17,-1
 869 164 l 1,18,-1
 905 348 l 1,19,-1
 1022 348 l 1,20,-1
 954 0 l 1,21,-1
 -9 0 l 1,22,-1
 12 109 l 1,23,-1
 553 561 l 2,24,25
 652 644 652 644 723 719 c 1,26,-1
 254 719 l 1,27,-1
 278 844 l 1,28,-1
 826 844 l 1,29,30
 910 966 910 966 936 1100 c 0,31,32
 965 1251 965 1251 903 1336 c 128,-1,33
 841 1421 841 1421 703 1421 c 0,34,35
 560 1421 560 1421 468.5 1350 c 128,-1,36
 377 1279 377 1279 335 1137 c 1,0,-1
EndSplineSet
EndChar
StartChar: uni01BC
Encoding: 444 444 444
Width: 1406
Flags: W
LayerCount: 2
Fore
SplineSet
887.993 840 m 0,0,1
 1066.94 814 1066.94 814 1147.54 706.5 c 0,2,3
 1228.15 599 1228.15 599 1190.05 403 c 0,4,5
 1149.42 194 1149.42 194 987.25 82.5 c 0,6,7
 825.076 -29 825.076 -29 561.076 -29 c 0,8,9
 444.076 -29 444.076 -29 337.437 -4 c 0,10,11
 230.796 21 230.796 21 130.709 72 c 1,12,-1
 187.079 362 l 1,13,-1
 299.079 362 l 1,14,15
 281.089 218 281.089 218 353.704 144 c 0,16,17
 426.32 70 426.32 70 584.32 70 c 0,18,19
 737.32 70 737.32 70 843.022 158.5 c 0,20,21
 948.726 247 948.726 247 978.66 401 c 0,22,23
 1012.87 577 1012.87 577 939.463 667.5 c 0,24,25
 866.054 758 866.054 758 690.054 758 c 2,26,-1
 308.054 758 l 1,27,-1
 430.125 1386 l 1,28,-1
 240.125 1386 l 1,29,-1
 260.924 1493 l 1,30,-1
 1345.92 1493 l 1,31,-1
 1281.39 1161 l 1,32,-1
 1158.39 1161 l 1,33,-1
 1199.01 1370 l 1,34,-1
 630.015 1370 l 1,35,-1
 530.881 860 l 1,36,-1
 664.881 860 l 2,37,38
 750.345 860 750.345 860 887.993 840 c 0,0,1
EndSplineSet
EndChar
StartChar: uni01BD
Encoding: 445 445 445
Width: 1156
Flags: W
LayerCount: 2
Fore
SplineSet
571.25 525 m 1,0,-1
 749.168 504 l 2,1,2
 927.53 475 927.53 475 1006.01 354 c 0,3,4
 1083.68 234 1083.68 234 1043.06 25 c 0,5,6
 997.574 -209 997.574 -209 832.277 -334 c 0,7,8
 668.174 -458 668.174 -458 404.174 -458 c 0,9,10
 287.672 -458 287.672 -458 181.616 -430 c 0,11,12
 74.6348 -401.755 74.6348 -401.755 -23.8613 -345 c 1,13,-1
 39.1182 -21 l 1,14,-1
 151.118 -21 l 1,15,16
 129.822 -182 129.822 -182 200.689 -265 c 0,17,18
 271.556 -348 271.556 -348 429.556 -348 c 0,19,20
 582.556 -348 582.556 -348 690.993 -248 c 0,21,22
 798.237 -149 798.237 -149 831.671 23 c 0,23,24
 869.964 220 869.964 220 798.79 322 c 0,25,26
 727.423 423 727.423 423 551.423 423 c 2,27,-1
 239.423 423 l 1,28,-1
 343.416 958 l 1,29,-1
 166.416 958 l 1,30,-1
 186.826 1063 l 1,31,-1
 1139.83 1063 l 1,32,-1
 1087.93 796 l 1,33,-1
 982.927 796 l 1,34,-1
 1010.92 940 l 1,35,-1
 523.917 940 l 1,36,-1
 443.25 525 l 1,37,-1
 571.25 525 l 1,0,-1
EndSplineSet
EndChar
StartChar: uni01BE
Encoding: 446 446 446
Width: 1098
Flags: W
LayerCount: 2
Fore
SplineSet
536.302 1393 m 1,0,-1
 720.302 1393 l 1,1,-1
 656.351 1064 l 1,2,-1
 830.351 1064 l 1,3,-1
 809.746 958 l 1,4,-1
 635.746 958 l 1,5,-1
 602.507 787 l 1,6,7
 714.955 778.999 714.955 778.999 781.984 702 c 0,8,9
 861.714 608.002 861.714 608.002 817.395 380 c 0,10,11
 773.854 156 773.854 156 657.775 63 c 0,12,13
 542.699 -30 542.699 -30 371.698 -30 c 0,14,15
 299.702 -30 299.702 -30 236.809 -14 c 0,16,17
 174.928 2 174.928 2 119.527 36 c 1,18,-1
 161.902 254 l 1,19,-1
 256.902 254 l 1,20,21
 245.241 158 245.241 158 279.689 114 c 1,22,23
 312.749 68 312.749 68 394.748 68 c 0,24,25
 485.75 68 485.75 68 540.799 130 c 0,26,27
 595.462 190 595.462 190 632.395 380 c 0,28,29
 670.104 573.999 670.104 573.999 638.767 634 c 0,30,31
 607.82 696 607.82 696 516.818 696 c 2,32,-1
 400.818 696 l 1,33,-1
 451.746 958 l 1,34,-1
 275.746 958 l 1,35,-1
 296.351 1064 l 1,36,-1
 472.351 1064 l 1,37,-1
 536.302 1393 l 1,0,-1
EndSplineSet
EndChar
StartChar: uni01BF
Encoding: 447 447 447
Width: 1300
Flags: W
LayerCount: 2
Fore
SplineSet
535 950 m 1,0,1
 728 1147 728 1147 1001 1147 c 0,2,3
 1185 1147 1185 1147 1240.5 1034.5 c 128,-1,4
 1296 922 1296 922 1266 769 c 0,5,6
 1178 315 1178 315 326 -122 c 1,7,-1
 267 -426 l 1,8,-1
 83 -426 l 1,9,-1
 352 956 l 1,10,-1
 175 956 l 1,11,-1
 196 1063 l 1,12,-1
 557 1063 l 1,13,-1
 535 950 l 1,0,1
348 -10 m 1,14,15
 1003 358 1003 358 1082 769 c 0,16,17
 1108 902 1108 902 1062.5 977 c 128,-1,18
 1017 1052 1017 1052 897 1052 c 0,19,20
 727 1052 727 1052 508 813 c 1,21,-1
 348 -10 l 1,14,15
EndSplineSet
EndChar
StartChar: uni01C0
Encoding: 448 448 448
Width: 604
Flags: W
LayerCount: 2
Fore
SplineSet
528.104 1493 m 1,0,-1
 237.896 0 l 1,1,-1
 75.8955 0 l 1,2,-1
 366.104 1493 l 1,3,-1
 528.104 1493 l 1,0,-1
EndSplineSet
EndChar
